<svg width="949" height="231" viewBox="0 0 949 231" fill="none" xmlns="http://www.w3.org/2000/svg">
<path d="M55.0823 184.708C47.8095 184.708 40.8348 183.516 34.1582 181.131C27.6008 178.628 21.7587 174.932 16.632 170.043C11.6245 165.036 7.57084 158.836 4.47097 151.444C1.49032 143.933 0 135.229 0 125.334C0 115.557 1.49032 106.913 4.47097 99.4021C7.45161 91.7717 11.5053 85.3931 16.632 80.2664C21.7587 75.0204 27.7796 71.0264 34.6947 68.2842C41.6098 65.542 49.0018 64.1709 56.8707 64.1709C64.3819 64.1709 71.1778 65.7208 77.2583 68.8207C83.3388 71.8014 88.4655 75.2589 92.6384 79.1934L75.8276 98.1503C73.0854 95.7657 70.224 93.9177 67.2434 92.6063C64.2627 91.2948 60.8052 90.639 56.8707 90.639C53.2939 90.639 49.9556 91.414 46.8557 92.9639C43.7559 94.5139 41.0733 96.7196 38.808 99.581C36.5427 102.442 34.7543 105.96 33.4428 110.132C32.1314 114.305 31.4756 119.015 31.4756 124.261C31.4756 135.229 33.9794 143.635 38.9868 149.477C43.9943 155.319 50.4325 158.24 58.3014 158.24C62.1166 158.24 65.5742 157.405 68.6741 155.736C71.8932 153.948 74.7546 151.683 77.2583 148.94L94.0692 167.54C89.1809 173.263 83.3984 177.555 76.7218 180.416C70.1644 183.277 62.9512 184.708 55.0823 184.708Z" fill="white"/>
<path d="M151.228 184.708C143.597 184.708 135.788 183.397 127.8 180.774C119.931 178.032 112.718 173.799 106.16 168.076L123.687 146.973C128.098 150.312 132.807 153.054 137.815 155.2C142.822 157.227 148.009 158.24 153.374 158.24C158.024 158.24 161.302 157.584 163.21 156.273C165.237 154.961 166.25 153.352 166.25 151.444C166.25 149.775 165.833 148.404 164.998 147.331C164.283 146.139 163.21 145.125 161.779 144.291C160.348 143.337 158.56 142.443 156.414 141.608C154.387 140.773 152.062 139.82 149.439 138.747L134.953 132.666C131.615 131.474 128.456 129.924 125.475 128.016C122.494 125.989 119.871 123.665 117.606 121.042C115.46 118.299 113.731 115.2 112.42 111.742C111.108 108.284 110.452 104.469 110.452 100.296C110.452 95.2888 111.525 90.639 113.672 86.3469C115.818 81.9356 118.798 78.1203 122.613 74.9012C126.548 71.5629 131.198 68.9399 136.563 67.0323C142.047 65.1247 148.128 64.1709 154.804 64.1709C161.72 64.1709 168.635 65.4228 175.55 67.9265C182.465 70.4303 188.784 74.3647 194.507 79.7299L179.126 99.0445C174.954 96.3023 170.9 94.2158 166.965 92.7851C163.15 91.3544 158.5 90.639 153.016 90.639C149.559 90.639 146.757 91.2948 144.611 92.6063C142.584 93.7985 141.57 95.7657 141.57 98.5079C141.57 99.8194 141.988 101.012 142.822 102.085C143.657 103.039 144.849 103.933 146.399 104.767C147.949 105.602 149.857 106.436 152.122 107.271C154.387 108.106 156.951 109.059 159.812 110.132L173.225 115.676C181.094 118.538 187.115 122.532 191.288 127.659C195.58 132.785 197.726 139.402 197.726 147.51C197.726 152.398 196.712 157.107 194.685 161.638C192.659 166.169 189.678 170.163 185.744 173.62C181.809 176.959 176.921 179.641 171.079 181.668C165.356 183.695 158.739 184.708 151.228 184.708Z" fill="white"/>
<path fill-rule="evenodd" clip-rule="evenodd" d="M248.141 0C237.852 0 229.512 8.3405 229.512 18.629V212.371C229.512 222.66 237.852 231 248.141 231H929.963C940.252 231 948.592 222.66 948.592 212.371V18.629C948.592 8.3405 940.252 0 929.963 0H248.141ZM283.964 175.114V100.181H259.105V89.0926L283.964 88.1984V80.866C283.964 70.2549 286.766 61.7302 292.369 55.2921C298.092 48.8539 306.975 45.6348 319.016 45.6348C327.601 45.6348 335.947 47.3039 344.054 50.6423L340.656 61.7303C337.079 60.0611 333.741 58.9881 330.641 58.5112C327.66 57.915 324.262 57.617 320.447 57.617C312.578 57.617 306.915 59.6438 303.457 63.6975C300.119 67.6319 298.45 73.1759 298.45 80.3295V88.1984H334.933V100.181H298.45V175.114H283.964ZM389.051 177.26C383.329 177.26 377.844 176.247 372.598 174.22C367.471 172.193 362.941 169.272 359.006 165.457C355.072 161.522 351.913 156.753 349.528 151.15C347.263 145.427 346.13 138.989 346.13 131.835C346.13 124.562 347.263 118.124 349.528 112.52C351.913 106.798 355.072 101.969 359.006 98.0345C362.941 94.1001 367.471 91.1194 372.598 89.0926C377.844 87.0657 383.329 86.0523 389.051 86.0523C394.774 86.0523 400.199 87.0657 405.326 89.0926C410.572 91.1194 415.162 94.1001 419.096 98.0345C423.031 101.969 426.131 106.798 428.396 112.52C430.78 118.124 431.973 124.562 431.973 131.835C431.973 138.989 430.78 145.427 428.396 151.15C426.131 156.753 423.031 161.522 419.096 165.457C415.162 169.272 410.572 172.193 405.326 174.22C400.199 176.247 394.774 177.26 389.051 177.26ZM389.051 165.099C393.224 165.099 396.98 164.324 400.318 162.774C403.776 161.105 406.697 158.84 409.081 155.978C411.585 152.998 413.493 149.48 414.804 145.427C416.116 141.373 416.771 136.843 416.771 131.835C416.771 126.828 416.116 122.297 414.804 118.243C413.493 114.07 411.585 110.494 409.081 107.513C406.697 104.532 403.776 102.267 400.318 100.717C396.98 99.0479 393.224 98.2134 389.051 98.2134C384.878 98.2134 381.063 99.0479 377.606 100.717C374.267 102.267 371.346 104.532 368.843 107.513C366.458 110.494 364.61 114.07 363.299 118.243C361.987 122.297 361.331 126.828 361.331 131.835C361.331 136.843 361.987 141.373 363.299 145.427C364.61 149.48 366.458 152.998 368.843 155.978C371.346 158.84 374.267 161.105 377.606 162.774C381.063 164.324 384.878 165.099 389.051 165.099ZM456.225 88.1984V175.114H470.89V124.145C476.136 115.084 481.739 108.705 487.7 105.009C493.781 101.194 500.1 99.2864 506.657 99.2864C510.115 99.2864 512.857 99.5248 514.884 100.002C517.03 100.479 519.653 101.254 522.753 102.327L526.151 89.6291C523.409 88.3176 520.666 87.4234 517.924 86.9465C515.182 86.3504 512.201 86.0523 508.982 86.0523C500.875 86.0523 493.483 88.0792 486.806 92.1328C480.249 96.1865 474.705 101.731 470.174 108.765H469.638L468.386 88.1984H456.225ZM583.846 177.26C576.931 177.26 570.433 176.247 564.352 174.22C558.391 172.074 553.205 169.033 548.793 165.099C544.382 161.165 540.925 156.336 538.421 150.613C535.917 144.771 534.665 138.154 534.665 130.762C534.665 123.489 535.917 116.991 538.421 111.269C541.044 105.427 544.501 100.538 548.793 96.6038C553.086 92.5501 557.974 89.5099 563.458 87.483C569.062 85.337 574.844 84.2639 580.806 84.2639C587.601 84.2639 593.622 85.337 598.868 87.483C604.114 89.6291 608.466 92.6097 611.924 96.425C615.5 100.24 618.183 104.771 619.971 110.017C621.76 115.143 622.654 120.747 622.654 126.828C622.654 129.212 622.475 131.537 622.117 133.802C621.879 135.948 621.64 137.558 621.402 138.631H560.954C562.266 145.069 565.187 149.779 569.718 152.759C574.248 155.74 580.15 157.23 587.423 157.23C591.476 157.23 595.292 156.694 598.868 155.621C602.564 154.548 606.38 152.998 610.314 150.971L619.077 166.887C613.95 170.107 608.287 172.67 602.087 174.577C595.888 176.366 589.807 177.26 583.846 177.26ZM581.7 104.294C576.454 104.294 572.042 105.665 568.466 108.407C565.008 111.149 562.624 115.322 561.312 120.926H599.226C597.914 109.838 592.072 104.294 581.7 104.294ZM638.322 169.57C640.826 171.955 643.866 173.803 647.443 175.114C651.019 176.545 655.073 177.26 659.604 177.26C665.326 177.26 670.87 176.127 676.236 173.862C681.601 171.478 686.549 168.557 691.079 165.099H691.795L693.762 175.114H715.222V124.324C715.222 110.732 711.646 100.657 704.492 94.1001C697.339 87.5426 687.562 84.2639 675.163 84.2639C667.532 84.2639 660.2 85.3966 653.165 87.6619C646.25 89.9272 639.753 92.7886 633.672 96.2461L642.972 113.415C647.979 110.911 652.629 108.944 656.921 107.513C661.332 105.963 665.684 105.188 669.976 105.188C676.057 105.188 680.587 106.321 683.568 108.586C686.668 110.851 688.456 114.011 688.933 118.064C678.441 118.661 669.499 119.793 662.107 121.462C654.715 123.012 648.635 125.099 643.866 127.722C639.216 130.345 635.818 133.564 633.672 137.379C631.526 141.075 630.453 145.427 630.453 150.434C630.453 154.249 631.109 157.767 632.42 160.986C633.851 164.205 635.818 167.066 638.322 169.57ZM679.097 154.548C675.639 156.097 671.943 156.872 668.009 156.872C664.194 156.872 661.154 156.217 658.888 154.905C656.742 153.475 655.669 151.328 655.669 148.467C655.669 146.559 656.146 144.771 657.1 143.102C658.173 141.433 659.961 140.002 662.465 138.81C664.969 137.498 668.367 136.425 672.659 135.591C676.951 134.756 682.376 134.16 688.933 133.802V148.467C685.833 150.852 682.555 152.878 679.097 154.548ZM775.6 177.26C768.566 177.26 762.068 176.247 756.107 174.22C750.145 172.074 744.899 169.033 740.369 165.099C735.957 161.165 732.5 156.336 729.996 150.613C727.492 144.771 726.241 138.154 726.241 130.762C726.241 123.37 727.612 116.813 730.354 111.09C733.215 105.248 736.971 100.359 741.621 96.425C746.39 92.4905 751.874 89.5099 758.074 87.483C764.274 85.337 770.771 84.2639 777.567 84.2639C784.602 84.2639 790.921 85.3966 796.524 87.6619C802.247 89.9272 807.016 92.7886 810.831 96.2461L798.67 112.52C792.113 107.871 785.555 105.546 778.998 105.546C771.368 105.546 765.168 107.811 760.399 112.342C755.63 116.872 753.245 123.012 753.245 130.762C753.245 138.512 755.51 144.652 760.041 149.182C764.691 153.713 770.712 155.978 778.104 155.978C782.754 155.978 786.986 155.144 790.801 153.475C794.736 151.805 798.313 149.838 801.532 147.573L812.083 164.205C806.718 168.735 800.816 172.074 794.378 174.22C787.94 176.247 781.681 177.26 775.6 177.26ZM821.849 49.7481V175.114H848.139V115.918C851.239 112.819 854.1 110.494 856.723 108.944C859.465 107.394 862.625 106.619 866.201 106.619C871.09 106.619 874.488 107.99 876.395 110.732C878.303 113.474 879.257 117.826 879.257 123.787V175.114H905.546V120.389C905.546 109.182 903.221 100.359 898.571 93.9212C894.041 87.483 886.768 84.2639 876.753 84.2639C869.957 84.2639 864.175 85.635 859.406 88.3772C854.636 91.0002 850.583 94.0404 847.245 97.498H846.708L848.139 80.5083V49.7481H821.849Z" fill="white"/>
</svg>
