<svg width="844" height="440" viewBox="0 0 844 440" fill="none" xmlns="http://www.w3.org/2000/svg">
<path fill-rule="evenodd" clip-rule="evenodd" d="M57.0802 102.75C59.3632 112.6 60.1552 128.403 59.0402 141.872C58.4202 149.368 57.5302 157.188 57.0622 159.25L56.2112 163H69.0352H81.8592L79.3332 158.48C74.7632 150.304 75.2202 136.558 80.1492 133.92C81.7812 133.047 82.5642 133.316 84.5212 135.428C87.4482 138.587 92.1562 138.844 95.0002 136C97.8042 133.196 97.5542 128.869 94.4192 125.924C91.2482 122.944 84.2312 122.641 79.0962 125.262C74.7612 127.476 74.8422 127.499 75.6232 124.25C78.8172 110.96 89.4892 106.394 98.1192 114.625L100.738 117.124L101.869 109.521C102.491 105.34 103 101.262 103 100.459C103 99.222 99.4432 99 79.6052 99H56.2112L57.0802 102.75ZM118.619 111.054C117.736 126.682 115.789 136.658 110.947 150.37C108.786 156.491 107.013 161.838 107.009 162.25C107.004 162.662 112.389 163 118.975 163H130.95L130.522 160.25C130.287 158.738 129.836 155.544 129.52 153.152L128.945 148.805L133.744 149.465C136.511 149.845 139.759 149.662 141.418 149.031L144.293 147.938L143.724 155.469L143.154 163H155.184C166.234 163 167.159 162.857 166.533 161.25C162.742 151.502 157.781 135.44 156.539 128.891C155.692 124.429 155 115.879 155 109.89V99H137.15H119.3L118.619 111.054ZM183.313 101.815C185.507 112.785 186.274 126.381 185.194 135.167C184.16 143.574 181.291 156.669 179.478 161.25C178.844 162.853 179.713 163 189.788 163H200.789L199.919 159.25C198.367 152.568 199.15 134 200.984 134C202.335 134 205.167 144.525 206.3 153.75L207.435 163H213.698C220.797 163 219.937 164.276 221.972 150.724C222.614 146.447 223.845 140.876 224.708 138.345C227.033 131.52 228.141 134.738 228.765 150.129L229.287 163H239.144C244.565 163 249 162.811 249 162.579C249 162.347 247.988 158.185 246.75 153.329C244.741 145.447 244.5 142.06 244.5 121.75V99H232.397H220.293L219.643 106.699C218.963 114.744 216.26 126 215.009 126C213.892 126 210.162 113.866 208.866 106.016L207.707 99H195.228H182.75L183.313 101.815ZM265.716 104.25C266.737 111.087 266.726 143.038 265.698 154.25L264.896 163H275.564C286.156 163 286.229 162.984 285.577 160.75C285.216 159.512 284.656 151.525 284.332 143C283.782 128.512 284.768 116.412 287.686 101.821L288.25 99H276.591H264.931L265.716 104.25ZM303.381 100.75C306.468 111.231 307.225 141.35 304.75 155.25L303.37 163H326.685H350V150.522V138.045L345.802 142.599C340.751 148.078 337.298 150 332.504 150C327.965 150 324.398 146.637 323.422 141.438C322.447 136.236 323.69 115.909 325.468 108C326.272 104.425 326.946 100.938 326.965 100.25C326.991 99.317 323.939 99 314.933 99C303.91 99 302.91 99.152 303.381 100.75ZM366.042 103.25C367.746 112.495 368.14 128.264 367.048 143.5C366.417 152.3 365.668 160.287 365.383 161.25C364.913 162.84 365.844 163 375.572 163H386.279L385.619 157.75C383.84 143.582 383.79 133.073 385.439 120C386.376 112.575 387.512 104.813 387.965 102.75L388.787 99H377.023H365.258L366.042 103.25ZM412.695 112.75C412.046 127.561 410.4 135.712 404.613 152.75L401.132 163H413.073H425.014L424.353 155.886L423.692 148.772L427.754 149.458C429.988 149.836 433.488 149.683 435.532 149.119L439.248 148.093L438.567 154.114C438.192 157.426 437.638 160.78 437.336 161.568C436.877 162.762 438.796 163 448.893 163C455.552 163 461 162.594 461 162.097C461 161.6 459.379 156.538 457.397 150.847C451.45 133.77 449.926 126.512 449.29 112.25L448.7 99H430.999H413.297L412.695 112.75ZM504.763 119.25C504.303 139.156 504.189 140.052 499.474 160.75C498.971 162.962 499.124 163 508.481 163H518V155.943C518 148.191 519.885 135 520.993 135C521.963 135 527.003 155.76 527.001 159.75L527 163H535H543V157.456C543 151.636 545.721 139 546.974 139C547.376 139 547.991 142.713 548.341 147.25C549.715 165.085 555.283 178.294 565.429 187.785C577.852 199.406 597.667 203.256 610.801 196.601C623.163 190.337 625.757 176.19 615.445 171.273C611.209 169.252 607.646 170.235 604.658 174.248C603.006 176.467 602.801 177.526 603.593 179.748C604.388 181.981 605.179 182.498 607.79 182.49C611.681 182.478 611.453 183.75 607.025 186.75C598.909 192.249 582.481 187.77 575.504 178.156C568.463 168.453 565.596 151.937 565.539 120.75L565.5 99.001L553.395 99H541.289L540.698 105.25C540.053 112.061 536.401 125 535.124 125C533.782 125 531 111.578 531 105.107V99H518.115H505.23L504.763 119.25ZM582.462 103.25C585.773 122.848 585.759 136.239 582.406 158.75L581.773 163H605.003H628.233L627.609 160.75C627.266 159.512 626.725 155.8 626.408 152.5C625.558 143.664 625.495 143.574 621.932 146.209C617.788 149.272 610.309 149.364 606.323 146.401C602.818 143.794 601.921 137.849 604.589 134.902C606.855 132.398 607.82 132.501 610.179 135.5C612.587 138.561 617.867 138.91 620.345 136.171C622.596 133.684 622.446 128.446 620.056 126.056C616.173 122.173 610.736 122.39 600.78 126.825C600.379 127.004 600.69 125.025 601.472 122.428C604.947 110.881 615.653 106.807 623.06 114.214C624.677 115.831 626.03 117.007 626.066 116.827C626.102 116.647 626.69 112.563 627.372 107.75L628.613 99H605.179H581.744L582.462 103.25ZM642 108.485V117.971L645.25 115.989C652.212 111.744 661 114.972 661 121.773C661 128.892 652.732 147.957 645.583 157.323C643.612 159.905 642 162.238 642 162.509C642 162.779 653.25 163 667 163H692L691.999 149.75L691.998 136.5L689.876 140.788C687.401 145.788 683.159 148.413 679.024 147.505C674.85 146.589 673.516 142.647 674.986 135.568C676.173 129.848 685.705 109.493 690.354 102.75L692.94 99H667.47H642V108.485ZM717 109.369C717 122.99 714.895 134.655 709.622 150.25L705.311 163H717.55H729.789L728.919 159.25C728.44 157.188 728.037 153.986 728.024 152.136L728 148.773L732.25 149.4C734.587 149.744 737.962 149.602 739.75 149.083L743 148.14L742.976 151.82C742.963 153.844 742.56 157.188 742.081 159.25L741.211 163H753.545H765.88L761.864 151.75C755.571 134.118 753.766 125.251 753.624 111.255L753.5 99.01L735.25 99.005L717 99V109.369ZM133.68 124.68C132.113 130.486 131.411 134.811 131.947 135.347C132.444 135.844 134.908 135.941 137.425 135.564C140.7 135.072 142 134.416 142 133.253C142 130.989 137.97 116.674 137.061 115.708C136.651 115.272 135.129 119.309 133.68 124.68ZM430.693 116.688C429.733 118.24 426 132.307 426 134.369C426 136.079 426.536 136.215 431.136 135.67C433.96 135.336 436.473 134.861 436.719 134.614C437.233 134.101 433.333 119.418 432.097 117.208C431.646 116.402 431.014 116.168 430.693 116.688ZM734.636 116.779C733.894 117.98 730 133.14 730 134.828C730 135.986 731.035 136.156 735.136 135.67C737.96 135.336 740.501 134.832 740.783 134.55C741.451 133.882 736.934 117.077 735.918 116.449C735.489 116.184 734.912 116.333 734.636 116.779ZM163.882 222.323C152.036 226.744 141.63 238.979 137.483 253.364C135.542 260.094 135.327 272.789 137.046 279.172C140.307 291.279 150.175 303.168 159.643 306.394C165.673 308.449 175.327 308.449 181.357 306.394C186.915 304.5 195.775 296.765 199.325 290.708C209.803 272.829 206.045 246.446 190.789 230.783C183.071 222.86 171.877 219.34 163.882 222.323ZM474.324 222.439C457.428 227.723 444 246.312 444 264.419C444 276.628 448.712 290.719 454.614 296.16C462.419 303.355 471.814 305.932 493 306.688L509.5 307.277V287.639V268H498.887H488.273L489.057 272.75C489.487 275.363 490.047 279.651 490.301 282.279C490.734 286.784 490.638 287.021 488.63 286.403C475.997 282.512 468.892 267.106 473.161 252.858C475.744 244.235 485.838 236.918 493.136 238.377C496.854 239.121 499 240.683 499 242.645C499 243.784 498.534 243.741 496.507 242.413C491.502 239.133 485.897 243.469 487.4 249.457C488.294 253.019 493.507 255.992 498.868 255.996C507.5 256.004 513.556 246.107 511.53 235.306C510.539 230.024 504.788 224.608 498.041 222.605C491.617 220.697 480.152 220.617 474.324 222.439ZM57.0352 226.124C58.8402 232.415 60.2202 254.654 59.5732 267C58.8652 280.5 57.3372 298.519 56.4562 303.75L55.9092 307H70.9552C79.2302 307 86.0002 306.663 86.0002 306.25C86.0002 305.837 85.3582 302.125 84.5742 298C82.9142 289.268 80.7772 270.89 81.3552 270.312C81.5732 270.094 85.1342 276.797 89.2692 285.208C106.809 320.884 125.87 342.252 148.5 351.606C154.891 354.248 156.544 354.5 167.5 354.5C178.877 354.5 179.844 354.337 186.123 351.362C201.556 344.05 207.586 333.153 201.849 322.945C199.444 318.667 195.573 316.617 190.273 316.816C180.091 317.199 174.826 330.639 183.723 333.535C188.672 335.145 188.658 335.821 183.632 338.045C177.811 340.619 169.081 340.858 162.427 338.625C146.305 333.214 122.233 304.199 111.613 277.376C109.626 272.358 108 267.722 108 267.075C108 266.428 109.463 265.283 111.25 264.531C114.691 263.083 119.012 258.948 120.878 255.316C122.498 252.161 122.256 242.549 120.447 238.218C117.268 230.608 110.741 225.978 100.535 224.091C97.2892 223.491 85.9722 223 75.3862 223H56.1402L57.0352 226.124ZM221.323 225.614C221.658 227.201 222.673 233.9 223.579 240.5C225.5 254.504 224.987 282.856 222.559 296.929C221.758 301.565 221.332 305.728 221.611 306.179C222.362 307.394 255.684 307.175 262.526 305.911C265.768 305.311 270.491 303.771 273.023 302.488C294.465 291.623 298.657 254.235 280.524 235.578C271.611 226.407 263.593 224.027 239.107 223.285L220.715 222.727L221.323 225.614ZM307.369 224.672C310.708 235.695 310.744 287.573 307.424 303.25L306.841 306H323.488C339.243 306 340.103 305.901 339.546 304.146C338.458 300.716 336.079 285.946 335.389 278.339L334.706 270.796L337.774 272.383C342.463 274.808 344.73 278.847 346.872 288.595C349.423 300.2 350.136 301.858 354.282 305.829C358.289 309.666 364.201 311.376 368.85 310.043C377.227 307.641 381.94 300.688 381.978 290.677L382 284.855L379.365 286.927C376.451 289.22 373.868 289.535 370.923 287.959C368.501 286.662 358.345 266.718 359.852 266.216C360.447 266.018 363.295 264.65 366.18 263.178C373.286 259.55 376.381 253.939 375.698 245.928C374.861 236.124 370.506 229.956 361.488 225.799C356.783 223.63 355.091 223.481 331.658 223.172C307.979 222.86 306.842 222.93 307.369 224.672ZM398.417 225.75C401.807 241.944 401.829 278.331 398.463 302.75L397.877 307H411.914H425.95L425.492 304.25C424.088 295.825 423.005 282.21 423.003 272.962C422.999 260.489 426.21 232.928 428.619 224.75C429.095 223.136 427.919 223 413.488 223H397.841L398.417 225.75ZM530.077 229.25C533.024 238.977 534.002 249.056 533.79 267.5C533.611 283.023 533.789 284.992 535.834 290.157C538.329 296.458 544.454 302.838 550.683 305.624C553.243 306.77 557.299 307.36 563 307.416C570.378 307.489 572.25 307.132 577.182 304.71C585.17 300.787 591.02 293.524 594.243 283.528C594.78 281.863 595.585 270.6 596.032 258.5C596.657 241.56 597.291 234.947 598.788 229.75L600.731 223H586.021H571.31L573.165 228.493C574.185 231.515 575.551 238.52 576.202 244.062C579.043 268.278 570.121 284.704 559.143 275.467C554.745 271.766 553.535 267.131 553.673 254.5C553.795 243.22 555.788 231.136 558.384 225.933L559.847 223H544.015H528.183L530.077 229.25ZM620.405 224.75C624.491 238.01 625.58 271.411 622.605 292.263C621.682 298.733 620.67 304.695 620.357 305.513C619.859 306.809 623.719 307 650.393 307C667.227 307 681 306.662 681 306.25C681 305.837 680.333 302.349 679.517 298.5C678.702 294.65 678.027 289.389 678.017 286.809C677.997 281.284 676.972 280.256 674.384 283.162C670.137 287.928 662.163 289.25 654.982 286.376C647.591 283.419 645.664 275.183 651.092 269.754L654.184 266.662L656.121 269.722C660.859 277.205 671.636 275.486 673.512 266.947C675.655 257.188 661.073 251.398 649.649 257.472C644.207 260.365 643.969 259.83 647.043 251.615C649.603 244.772 655.169 239.485 660.817 238.531C666.103 237.638 672.816 240.529 676.071 245.1L678.459 248.453L679.686 237.976C680.362 232.214 681.167 226.488 681.476 225.25L682.038 223H650.952C621.807 223 619.899 223.109 620.405 224.75ZM699 236.174V249.349L701.25 247.241C705.818 242.962 713.647 241.732 718.928 244.463C722.377 246.246 723 247.729 723 254.155C723 265.26 713.179 286.788 700.574 303.314L697.763 307H730.881H764L763.99 289.25L763.98 271.5L761.632 276.5C757.669 284.937 751.818 288.204 745.441 285.54C740.966 283.67 740.117 279.196 742.398 269.517C744.193 261.906 752.903 243.051 759.961 231.5C762.313 227.65 764.436 224.162 764.678 223.75C764.92 223.338 750.241 223 732.059 223H699V236.174ZM332 246.346C332 255.487 332.322 256 338.06 256C344.242 256 347.563 254.468 349.023 250.944C351.45 245.084 347.872 241.786 337.75 240.555L332 239.856V246.346ZM79.0002 246.809C79.0002 254.889 80.3692 256.495 86.5362 255.65C89.1952 255.286 92.4052 254.31 93.6692 253.481C96.1462 251.858 97.5812 247.958 96.6222 245.457C95.7312 243.134 89.7022 241 84.0322 241H79.0002V246.809ZM166.21 244.477C158.608 250.873 155.942 268.32 161.01 278.5C164.33 285.166 169.182 287.787 174.271 285.66C185.804 280.841 186.559 252.878 175.393 244.095C171.921 241.364 169.805 241.452 166.21 244.477ZM248.691 248.643C247.245 257.961 246.797 268.469 247.466 277.385C248.285 288.31 248.715 288.675 256.571 285.107C271.052 278.53 273.45 256.036 260.48 248.435C258.099 247.04 254.608 245.648 252.721 245.342C249.382 244.8 249.274 244.889 248.691 248.643Z" fill="white"/>
<path fill-rule="evenodd" clip-rule="evenodd" d="M57.0802 102.75C59.3632 112.6 60.1552 128.403 59.0402 141.872C58.4202 149.368 57.5302 157.188 57.0622 159.25L56.2112 163H69.0352H81.8592L79.3332 158.48C74.7632 150.304 75.2202 136.558 80.1492 133.92C81.7812 133.047 82.5642 133.316 84.5212 135.428C87.4482 138.587 92.1562 138.844 95.0002 136C97.8042 133.196 97.5542 128.869 94.4192 125.924C91.2482 122.944 84.2312 122.641 79.0962 125.262C74.7612 127.476 74.8422 127.499 75.6232 124.25C78.8172 110.96 89.4892 106.394 98.1192 114.625L100.738 117.124L101.869 109.521C102.491 105.34 103 101.262 103 100.459C103 99.222 99.4432 99 79.6052 99H56.2112L57.0802 102.75ZM118.619 111.054C117.736 126.682 115.789 136.658 110.947 150.37C108.786 156.491 107.013 161.838 107.009 162.25C107.004 162.662 112.389 163 118.975 163H130.95L130.522 160.25C130.287 158.738 129.836 155.544 129.52 153.152L128.945 148.805L133.744 149.465C136.511 149.845 139.759 149.662 141.418 149.031L144.293 147.938L143.724 155.469L143.154 163H155.184C166.234 163 167.159 162.857 166.533 161.25C162.742 151.502 157.781 135.44 156.539 128.891C155.692 124.429 155 115.879 155 109.89V99H137.15H119.3L118.619 111.054ZM183.313 101.815C185.507 112.785 186.274 126.381 185.194 135.167C184.16 143.574 181.291 156.669 179.478 161.25C178.844 162.853 179.713 163 189.788 163H200.789L199.919 159.25C198.367 152.568 199.15 134 200.984 134C202.335 134 205.167 144.525 206.3 153.75L207.435 163H213.698C220.797 163 219.937 164.276 221.972 150.724C222.614 146.447 223.845 140.876 224.708 138.345C227.033 131.52 228.141 134.738 228.765 150.129L229.287 163H239.144C244.565 163 249 162.811 249 162.579C249 162.347 247.988 158.185 246.75 153.329C244.741 145.447 244.5 142.06 244.5 121.75V99H232.397H220.293L219.643 106.699C218.963 114.744 216.26 126 215.009 126C213.892 126 210.162 113.866 208.866 106.016L207.707 99H195.228H182.75L183.313 101.815ZM265.716 104.25C266.737 111.087 266.726 143.038 265.698 154.25L264.896 163H275.564C286.156 163 286.229 162.984 285.577 160.75C285.216 159.512 284.656 151.525 284.332 143C283.782 128.512 284.768 116.412 287.686 101.821L288.25 99H276.591H264.931L265.716 104.25ZM303.381 100.75C306.468 111.231 307.225 141.35 304.75 155.25L303.37 163H326.685H350V150.522V138.045L345.802 142.599C340.751 148.078 337.298 150 332.504 150C327.965 150 324.398 146.637 323.422 141.438C322.447 136.236 323.69 115.909 325.468 108C326.272 104.425 326.946 100.938 326.965 100.25C326.991 99.317 323.939 99 314.933 99C303.91 99 302.91 99.152 303.381 100.75ZM366.042 103.25C367.746 112.495 368.14 128.264 367.048 143.5C366.417 152.3 365.668 160.287 365.383 161.25C364.913 162.84 365.844 163 375.572 163H386.279L385.619 157.75C383.84 143.582 383.79 133.073 385.439 120C386.376 112.575 387.512 104.813 387.965 102.75L388.787 99H377.023H365.258L366.042 103.25ZM412.695 112.75C412.046 127.561 410.4 135.712 404.613 152.75L401.132 163H413.073H425.014L424.353 155.886L423.692 148.772L427.754 149.458C429.988 149.836 433.488 149.683 435.532 149.119L439.248 148.093L438.567 154.114C438.192 157.426 437.638 160.78 437.336 161.568C436.877 162.762 438.796 163 448.893 163C455.552 163 461 162.594 461 162.097C461 161.6 459.379 156.538 457.397 150.847C451.45 133.77 449.926 126.512 449.29 112.25L448.7 99H430.999H413.297L412.695 112.75ZM504.763 119.25C504.303 139.156 504.189 140.052 499.474 160.75C498.971 162.962 499.124 163 508.481 163H518V155.943C518 148.191 519.885 135 520.993 135C521.963 135 527.003 155.76 527.001 159.75L527 163H535H543V157.456C543 151.636 545.721 139 546.974 139C547.376 139 547.991 142.713 548.341 147.25C549.715 165.085 555.283 178.294 565.429 187.785C577.852 199.406 597.667 203.256 610.801 196.601C623.163 190.337 625.757 176.19 615.445 171.273C611.209 169.252 607.646 170.235 604.658 174.248C603.006 176.467 602.801 177.526 603.593 179.748C604.388 181.981 605.179 182.498 607.79 182.49C611.681 182.478 611.453 183.75 607.025 186.75C598.909 192.249 582.481 187.77 575.504 178.156C568.463 168.453 565.596 151.937 565.539 120.75L565.5 99.001L553.395 99H541.289L540.698 105.25C540.053 112.061 536.401 125 535.124 125C533.782 125 531 111.578 531 105.107V99H518.115H505.23L504.763 119.25ZM582.462 103.25C585.773 122.848 585.759 136.239 582.406 158.75L581.773 163H605.003H628.233L627.609 160.75C627.266 159.512 626.725 155.8 626.408 152.5C625.558 143.664 625.495 143.574 621.932 146.209C617.788 149.272 610.309 149.364 606.323 146.401C602.818 143.794 601.921 137.849 604.589 134.902C606.855 132.398 607.82 132.501 610.179 135.5C612.587 138.561 617.867 138.91 620.345 136.171C622.596 133.684 622.446 128.446 620.056 126.056C616.173 122.173 610.736 122.39 600.78 126.825C600.379 127.004 600.69 125.025 601.472 122.428C604.947 110.881 615.653 106.807 623.06 114.214C624.677 115.831 626.03 117.007 626.066 116.827C626.102 116.647 626.69 112.563 627.372 107.75L628.613 99H605.179H581.744L582.462 103.25ZM642 108.485V117.971L645.25 115.989C652.212 111.744 661 114.972 661 121.773C661 128.892 652.732 147.957 645.583 157.323C643.612 159.905 642 162.238 642 162.509C642 162.779 653.25 163 667 163H692L691.999 149.75L691.998 136.5L689.876 140.788C687.401 145.788 683.159 148.413 679.024 147.505C674.85 146.589 673.516 142.647 674.986 135.568C676.173 129.848 685.705 109.493 690.354 102.75L692.94 99H667.47H642V108.485ZM717 109.369C717 122.99 714.895 134.655 709.622 150.25L705.311 163H717.55H729.789L728.919 159.25C728.44 157.188 728.037 153.986 728.024 152.136L728 148.773L732.25 149.4C734.587 149.744 737.962 149.602 739.75 149.083L743 148.14L742.976 151.82C742.963 153.844 742.56 157.188 742.081 159.25L741.211 163H753.545H765.88L761.864 151.75C755.571 134.118 753.766 125.251 753.624 111.255L753.5 99.01L735.25 99.005L717 99V109.369ZM133.68 124.68C132.113 130.486 131.411 134.811 131.947 135.347C132.444 135.844 134.908 135.941 137.425 135.564C140.7 135.072 142 134.416 142 133.253C142 130.989 137.97 116.674 137.061 115.708C136.651 115.272 135.129 119.309 133.68 124.68ZM430.693 116.688C429.733 118.24 426 132.307 426 134.369C426 136.079 426.536 136.215 431.136 135.67C433.96 135.336 436.473 134.861 436.719 134.614C437.233 134.101 433.333 119.418 432.097 117.208C431.646 116.402 431.014 116.168 430.693 116.688ZM734.636 116.779C733.894 117.98 730 133.14 730 134.828C730 135.986 731.035 136.156 735.136 135.67C737.96 135.336 740.501 134.832 740.783 134.55C741.451 133.882 736.934 117.077 735.918 116.449C735.489 116.184 734.912 116.333 734.636 116.779ZM163.882 222.323C152.036 226.744 141.63 238.979 137.483 253.364C135.542 260.094 135.327 272.789 137.046 279.172C140.307 291.279 150.175 303.168 159.643 306.394C165.673 308.449 175.327 308.449 181.357 306.394C186.915 304.5 195.775 296.765 199.325 290.708C209.803 272.829 206.045 246.446 190.789 230.783C183.071 222.86 171.877 219.34 163.882 222.323ZM474.324 222.439C457.428 227.723 444 246.312 444 264.419C444 276.628 448.712 290.719 454.614 296.16C462.419 303.355 471.814 305.932 493 306.688L509.5 307.277V287.639V268H498.887H488.273L489.057 272.75C489.487 275.363 490.047 279.651 490.301 282.279C490.734 286.784 490.638 287.021 488.63 286.403C475.997 282.512 468.892 267.106 473.161 252.858C475.744 244.235 485.838 236.918 493.136 238.377C496.854 239.121 499 240.683 499 242.645C499 243.784 498.534 243.741 496.507 242.413C491.502 239.133 485.897 243.469 487.4 249.457C488.294 253.019 493.507 255.992 498.868 255.996C507.5 256.004 513.556 246.107 511.53 235.306C510.539 230.024 504.788 224.608 498.041 222.605C491.617 220.697 480.152 220.617 474.324 222.439ZM57.0352 226.124C58.8402 232.415 60.2202 254.654 59.5732 267C58.8652 280.5 57.3372 298.519 56.4562 303.75L55.9092 307H70.9552C79.2302 307 86.0002 306.663 86.0002 306.25C86.0002 305.837 85.3582 302.125 84.5742 298C82.9142 289.268 80.7772 270.89 81.3552 270.312C81.5732 270.094 85.1342 276.797 89.2692 285.208C106.809 320.884 125.87 342.252 148.5 351.606C154.891 354.248 156.544 354.5 167.5 354.5C178.877 354.5 179.844 354.337 186.123 351.362C201.556 344.05 207.586 333.153 201.849 322.945C199.444 318.667 195.573 316.617 190.273 316.816C180.091 317.199 174.826 330.639 183.723 333.535C188.672 335.145 188.658 335.821 183.632 338.045C177.811 340.619 169.081 340.858 162.427 338.625C146.305 333.214 122.233 304.199 111.613 277.376C109.626 272.358 108 267.722 108 267.075C108 266.428 109.463 265.283 111.25 264.531C114.691 263.083 119.012 258.948 120.878 255.316C122.498 252.161 122.256 242.549 120.447 238.218C117.268 230.608 110.741 225.978 100.535 224.091C97.2892 223.491 85.9722 223 75.3862 223H56.1402L57.0352 226.124ZM221.323 225.614C221.658 227.201 222.673 233.9 223.579 240.5C225.5 254.504 224.987 282.856 222.559 296.929C221.758 301.565 221.332 305.728 221.611 306.179C222.362 307.394 255.684 307.175 262.526 305.911C265.768 305.311 270.491 303.771 273.023 302.488C294.465 291.623 298.657 254.235 280.524 235.578C271.611 226.407 263.593 224.027 239.107 223.285L220.715 222.727L221.323 225.614ZM307.369 224.672C310.708 235.695 310.744 287.573 307.424 303.25L306.841 306H323.488C339.243 306 340.103 305.901 339.546 304.146C338.458 300.716 336.079 285.946 335.389 278.339L334.706 270.796L337.774 272.383C342.463 274.808 344.73 278.847 346.872 288.595C349.423 300.2 350.136 301.858 354.282 305.829C358.289 309.666 364.201 311.376 368.85 310.043C377.227 307.641 381.94 300.688 381.978 290.677L382 284.855L379.365 286.927C376.451 289.22 373.868 289.535 370.923 287.959C368.501 286.662 358.345 266.718 359.852 266.216C360.447 266.018 363.295 264.65 366.18 263.178C373.286 259.55 376.381 253.939 375.698 245.928C374.861 236.124 370.506 229.956 361.488 225.799C356.783 223.63 355.091 223.481 331.658 223.172C307.979 222.86 306.842 222.93 307.369 224.672ZM398.417 225.75C401.807 241.944 401.829 278.331 398.463 302.75L397.877 307H411.914H425.95L425.492 304.25C424.088 295.825 423.005 282.21 423.003 272.962C422.999 260.489 426.21 232.928 428.619 224.75C429.095 223.136 427.919 223 413.488 223H397.841L398.417 225.75ZM530.077 229.25C533.024 238.977 534.002 249.056 533.79 267.5C533.611 283.023 533.789 284.992 535.834 290.157C538.329 296.458 544.454 302.838 550.683 305.624C553.243 306.77 557.299 307.36 563 307.416C570.378 307.489 572.25 307.132 577.182 304.71C585.17 300.787 591.02 293.524 594.243 283.528C594.78 281.863 595.585 270.6 596.032 258.5C596.657 241.56 597.291 234.947 598.788 229.75L600.731 223H586.021H571.31L573.165 228.493C574.185 231.515 575.551 238.52 576.202 244.062C579.043 268.278 570.121 284.704 559.143 275.467C554.745 271.766 553.535 267.131 553.673 254.5C553.795 243.22 555.788 231.136 558.384 225.933L559.847 223H544.015H528.183L530.077 229.25ZM620.405 224.75C624.491 238.01 625.58 271.411 622.605 292.263C621.682 298.733 620.67 304.695 620.357 305.513C619.859 306.809 623.719 307 650.393 307C667.227 307 681 306.662 681 306.25C681 305.837 680.333 302.349 679.517 298.5C678.702 294.65 678.027 289.389 678.017 286.809C677.997 281.284 676.972 280.256 674.384 283.162C670.137 287.928 662.163 289.25 654.982 286.376C647.591 283.419 645.664 275.183 651.092 269.754L654.184 266.662L656.121 269.722C660.859 277.205 671.636 275.486 673.512 266.947C675.655 257.188 661.073 251.398 649.649 257.472C644.207 260.365 643.969 259.83 647.043 251.615C649.603 244.772 655.169 239.485 660.817 238.531C666.103 237.638 672.816 240.529 676.071 245.1L678.459 248.453L679.686 237.976C680.362 232.214 681.167 226.488 681.476 225.25L682.038 223H650.952C621.807 223 619.899 223.109 620.405 224.75ZM699 236.174V249.349L701.25 247.241C705.818 242.962 713.647 241.732 718.928 244.463C722.377 246.246 723 247.729 723 254.155C723 265.26 713.179 286.788 700.574 303.314L697.763 307H730.881H764L763.99 289.25L763.98 271.5L761.632 276.5C757.669 284.937 751.818 288.204 745.441 285.54C740.966 283.67 740.117 279.196 742.398 269.517C744.193 261.906 752.903 243.051 759.961 231.5C762.313 227.65 764.436 224.162 764.678 223.75C764.92 223.338 750.241 223 732.059 223H699V236.174ZM332 246.346C332 255.487 332.322 256 338.06 256C344.242 256 347.563 254.468 349.023 250.944C351.45 245.084 347.872 241.786 337.75 240.555L332 239.856V246.346ZM79.0002 246.809C79.0002 254.889 80.3692 256.495 86.5362 255.65C89.1952 255.286 92.4052 254.31 93.6692 253.481C96.1462 251.858 97.5812 247.958 96.6222 245.457C95.7312 243.134 89.7022 241 84.0322 241H79.0002V246.809ZM166.21 244.477C158.608 250.873 155.942 268.32 161.01 278.5C164.33 285.166 169.182 287.787 174.271 285.66C185.804 280.841 186.559 252.878 175.393 244.095C171.921 241.364 169.805 241.452 166.21 244.477ZM248.691 248.643C247.245 257.961 246.797 268.469 247.466 277.385C248.285 288.31 248.715 288.675 256.571 285.107C271.052 278.53 273.45 256.036 260.48 248.435C258.099 247.04 254.608 245.648 252.721 245.342C249.382 244.8 249.274 244.889 248.691 248.643Z" fill="white"/>
</svg>
