<svg width="602" height="618" viewBox="0 0 602 618" fill="none" xmlns="http://www.w3.org/2000/svg">
<path d="M263.185 351.018C269.715 349.567 271.348 333.684 271.348 325.924L288.582 326.831C290.295 330.963 293.903 344.065 294.628 363.415C295.535 387.602 268.022 384.881 255.626 378.834C243.23 372.787 255.021 352.833 263.185 351.018Z" fill="#A5BDFD"/>
<path d="M342.118 351.322C335.587 349.871 333.955 333.988 333.955 326.228L316.721 327.135C315.008 331.267 311.4 344.368 310.674 363.718C309.767 387.906 337.281 385.185 349.677 379.138C362.073 373.091 350.281 353.136 342.118 351.322Z" fill="#A5BDFD"/>
<path d="M217.228 255.385C216.744 267.721 221.461 279.875 223.88 284.41V297.411C172.783 259.013 189.412 228.476 203.32 227.267C217.228 226.058 217.833 239.966 217.228 255.385Z" fill="#A5BDFD"/>
<path d="M217.228 255.385C216.744 267.721 221.461 279.875 223.88 284.41V297.411C172.783 259.013 189.412 228.476 203.32 227.267C217.228 226.058 217.833 239.966 217.228 255.385Z" fill="#A5BDFD"/>
<path d="M217.228 255.385C216.744 267.721 221.461 279.875 223.88 284.41V297.411C172.783 259.013 189.412 228.476 203.32 227.267C217.228 226.058 217.833 239.966 217.228 255.385Z" fill="#A5BDFD"/>
<path d="M217.228 255.385C216.744 267.721 221.461 279.875 223.88 284.41V297.411C172.783 259.013 189.412 228.476 203.32 227.267C217.228 226.058 217.833 239.966 217.228 255.385Z" fill="#A5BDFD"/>
<path d="M386.173 248.075C386.657 260.41 381.941 272.565 379.522 277.1V290.101C430.618 251.703 413.989 221.166 400.081 219.956C386.173 218.747 385.569 232.655 386.173 248.075Z" fill="#A5BDFD"/>
<path d="M386.173 248.075C386.657 260.41 381.941 272.565 379.522 277.1V290.101C430.618 251.703 413.989 221.166 400.081 219.956C386.173 218.747 385.569 232.655 386.173 248.075Z" fill="#A5BDFD"/>
<path d="M386.173 248.075C386.657 260.41 381.941 272.565 379.522 277.1V290.101C430.618 251.703 413.989 221.166 400.081 219.956C386.173 218.747 385.569 232.655 386.173 248.075Z" fill="#A5BDFD"/>
<path d="M386.173 248.075C386.657 260.41 381.941 272.565 379.522 277.1V290.101C430.618 251.703 413.989 221.166 400.081 219.956C386.173 218.747 385.569 232.655 386.173 248.075Z" fill="#A5BDFD"/>
<path d="M342.701 195.614L337.561 205.289L347.236 213.755L354.492 198.638L342.701 195.614Z" fill="#A5BDFD"/>
<path d="M271.65 212.545L261.975 195.312L250.788 199.242L260.161 217.987L271.65 212.545Z" fill="#A5BDFD"/>
<path d="M224.181 280.271C237.727 207.708 284.65 192.389 306.419 193.8C354.492 198.638 381.703 250.641 381.703 296.598C381.703 342.554 282.534 328.344 250.486 324.111C224.847 320.725 220.856 292.566 224.181 280.271Z" fill="#A5BDFD"/>
<circle cx="251.998" cy="183.52" r="16.3266" fill="#A5BDFD"/>
<circle cx="251.998" cy="183.52" r="16.3266" fill="#A5BDFD"/>
<circle cx="352.981" cy="183.52" r="16.3266" fill="#A5BDFD"/>
<circle cx="352.981" cy="183.52" r="16.3266" fill="#A5BDFD"/>
<ellipse cx="263.493" cy="251.902" rx="13.8747" ry="17.7288" transform="rotate(10.7486 263.493 251.902)" fill="#030603"/>
<ellipse cx="13.8747" cy="17.7288" rx="13.8747" ry="17.7288" transform="matrix(-0.982455 0.186501 0.186501 0.982455 350.871 232.915)" fill="#030603"/>
<circle cx="338.726" cy="246.824" r="6.6516" fill="white"/>
<circle cx="338.726" cy="246.824" r="6.6516" fill="white"/>
<circle cx="263.744" cy="245.011" r="6.6516" fill="white"/>
<circle cx="263.744" cy="245.011" r="6.6516" fill="white"/>
<path d="M495.59 433.713C466.383 397.919 436.253 375.001 424.839 368.016C340.917 379.112 225.001 373.031 177.534 368.603C132.093 398.23 110.666 428.075 105.632 439.295C134.238 469.987 179.912 501.19 197.598 501.148C285.374 536.804 364.516 515.35 410.132 505.644C477.496 472.793 500.165 436.346 495.59 433.713Z" fill="url(#paint0_linear_306_139)"/>
<path d="M172.464 346.764C176.843 333.995 359.283 341.953 422.422 346.171C439.96 346.129 432.516 376.666 422.489 374.448C296.043 377.334 206.27 370.134 183.726 372.429C165.691 374.265 166.877 352.467 172.464 346.764Z" fill="#B380C8"/>
<ellipse cx="305.426" cy="434.036" rx="27.5602" ry="21.8975" transform="rotate(-0.136037 305.426 434.036)" fill="white"/>
<ellipse cx="411.25" cy="428.907" rx="27.5602" ry="21.8975" transform="rotate(-0.136037 411.25 428.907)" fill="white"/>
<ellipse cx="199.968" cy="429.952" rx="27.5602" ry="21.8975" transform="rotate(-0.136037 199.968 429.952)" fill="white"/>
<path d="M303.928 99.8401C142.556 108.034 156.832 274.515 188.99 340.844L419.874 344.591C502.213 175.364 373.8 93.521 303.928 99.8401Z" stroke="white" stroke-width="9"/>
<path d="M158.057 483.19C217.252 491.51 358.424 503.02 449.555 482.498" stroke="#A5BDFD" stroke-width="4.67145" stroke-linecap="round"/>
<path d="M188.928 499.935C236.361 506.872 349.481 516.474 422.5 499.38" stroke="#A5BDFD" stroke-width="4.67145" stroke-linecap="round"/>
<defs>
<linearGradient id="paint0_linear_306_139" x1="300.731" y1="368.311" x2="301.093" y2="520.955" gradientUnits="userSpaceOnUse">
<stop stop-color="#A5BDFD"/>
<stop offset="1" stop-color="#587DFF"/>
</linearGradient>
</defs>
</svg>
