<svg width="103" height="103" viewBox="0 0 103 103" fill="none" xmlns="http://www.w3.org/2000/svg">
<g clip-path="url(#clip0_350_168)" filter="url(#filter0_d_350_168)">
<path d="M64.8226 80.1398C71.4253 76.8646 78.8738 73.6633 82.1989 63.7931C85.5239 53.923 86.446 47.873 87.1048 42.2874C88.8959 27.0995 67.2638 21.1402 61.0616 20.1846C55.0912 19.2647 46.5773 17.833 39.8477 21.171C33.1181 24.509 22.8269 29.2848 20.9649 34.8121C19.1028 40.3394 16.1768 49.0252 14.5143 53.9602C12.8518 58.8951 15.1932 68.2565 23.4759 73.6843C31.7585 79.1121 48.0646 88.4521 64.8226 80.1398Z" fill="#D8D9DD"/>
<path d="M61.0611 20.1852C55.0908 19.2653 46.5769 17.8335 39.8473 21.1715C39.0367 21.5736 38.174 21.9968 37.281 22.4395L65.6896 79.7125C72.0663 76.574 79.0185 73.2342 82.1986 63.794C85.5236 53.9238 86.4457 47.8736 87.1045 42.2882C88.8956 27.1002 67.2635 21.141 61.0611 20.1852Z" fill="#B7B9C0"/>
<path d="M48.0251 39.1246C50.419 37.9372 51.3971 35.0339 50.2096 32.64C49.0222 30.246 46.1189 29.268 43.725 30.4554C41.331 31.6429 40.353 34.5461 41.5404 36.9401C42.7279 39.334 45.6311 40.3121 48.0251 39.1246Z" fill="#B7B9C0"/>
<path d="M26.315 53.4562C20.3894 56.3954 17.3218 62.7963 18.342 68.9998C19.7012 70.7204 21.4021 72.3256 23.4755 73.6845C26.8129 75.8715 31.4539 78.6934 36.9013 80.7402C37.7381 80.4988 38.5656 80.1837 39.3734 79.783C46.6433 76.177 49.6135 67.3601 46.0075 60.0902C42.4015 52.8203 33.5849 49.8502 26.315 53.4562Z" fill="#B7B9C0"/>
<path d="M86.5624 46.3875C82.3198 41.2126 74.9292 39.4485 68.6788 42.5488C61.4089 46.1548 58.4386 54.9715 62.0446 62.2414C65.2299 68.663 72.4801 71.7263 79.1393 69.8692C80.3528 68.1689 81.3963 66.1757 82.199 63.793C84.7351 56.2649 85.8727 50.9598 86.5624 46.3875Z" fill="#9B9DA6"/>
<path d="M43.7254 30.4553C43.0116 30.8093 42.425 31.3166 41.9828 31.9167L45.8069 39.6263C46.5523 39.6375 47.3111 39.4773 48.0249 39.1232C50.4186 37.9359 51.3963 35.033 50.2091 32.6396C49.0219 30.2462 46.1191 29.2679 43.7254 30.4553Z" fill="#9B9DA6"/>
</g>
<defs>
<filter id="filter0_d_350_168" x="-3.59106" y="0" width="110.155" height="110.154" filterUnits="userSpaceOnUse" color-interpolation-filters="sRGB">
<feFlood flood-opacity="0" result="BackgroundImageFix"/>
<feColorMatrix in="SourceAlpha" type="matrix" values="0 0 0 0 0 0 0 0 0 0 0 0 0 0 0 0 0 0 127 0" result="hardAlpha"/>
<feOffset dy="4"/>
<feGaussianBlur stdDeviation="2"/>
<feComposite in2="hardAlpha" operator="out"/>
<feColorMatrix type="matrix" values="0 0 0 0 0 0 0 0 0 0 0 0 0 0 0 0 0 0 0.25 0"/>
<feBlend mode="normal" in2="BackgroundImageFix" result="effect1_dropShadow_350_168"/>
<feBlend mode="normal" in="SourceGraphic" in2="effect1_dropShadow_350_168" result="shape"/>
</filter>
<clipPath id="clip0_350_168">
<rect width="76.2232" height="76.2232" fill="white" transform="translate(0.408936 33.8701) rotate(-26.3824)"/>
</clipPath>
</defs>
</svg>
