<svg width="96" height="96" viewBox="0 0 96 96" fill="none" xmlns="http://www.w3.org/2000/svg">
<g clip-path="url(#clip0_350_159)">
<path d="M37.306 77.9107C44.3488 80.084 51.9539 82.8932 61.1626 78.0275C70.3713 73.1618 75.2068 69.4107 79.5315 65.8149C91.2907 56.0374 79.7121 36.8177 75.8736 31.8531C72.1787 27.0741 66.9923 20.1721 59.8143 17.9571C52.6362 15.7421 41.8859 12.1164 36.7289 14.8412C31.572 17.566 23.4682 21.8478 18.864 24.2806C14.2597 26.7134 9.50961 35.1131 11.7761 44.7529C14.0426 54.3927 19.4314 72.395 37.306 77.9107Z" fill="#D8D9DD"/>
<path d="M75.8735 31.8527C72.1786 27.0736 66.9922 20.1717 59.8141 17.9567C58.9495 17.6899 58.0326 17.4026 57.0803 17.1084L38.2295 78.1976C45.0142 80.3142 52.3547 82.6812 61.1624 78.0274C70.3711 73.1617 75.2066 69.4104 79.5313 65.8147C91.2905 56.0371 79.7118 36.8176 75.8735 31.8527Z" fill="#B7B9C0"/>
<path d="M53.3775 36.6052C55.9309 37.3931 58.6396 35.9619 59.4276 33.4084C60.2155 30.855 58.7843 28.1463 56.2308 27.3583C53.6774 26.5704 50.9687 28.0016 50.1807 30.5551C49.3928 33.1085 50.824 35.8172 53.3775 36.6052Z" fill="#B7B9C0"/>
<path d="M27.7669 32.043C21.4465 30.0927 14.8139 32.6204 11.2809 37.8207C11.0811 40.0043 11.2087 42.3395 11.776 44.7528C12.6893 48.637 14.1104 53.8793 16.65 59.1152C17.423 59.5165 18.2399 59.858 19.1016 60.1239C26.8559 62.5167 35.0819 58.1703 37.4747 50.416C39.8675 42.6617 35.5212 34.4358 27.7669 32.043Z" fill="#B7B9C0"/>
<path d="M76.314 68.4136C76.8024 61.7396 72.6593 55.3704 65.9924 53.3131C58.2381 50.9203 50.0121 55.2666 47.6193 63.0209C45.5057 69.8703 48.6523 77.0848 54.7592 80.325C56.8101 79.928 58.9395 79.2018 61.1625 78.0272C68.1862 74.316 72.6648 71.2534 76.314 68.4136Z" fill="#9B9DA6"/>
<path d="M56.2308 27.3588C55.4695 27.1239 54.6948 27.0877 53.9609 27.2182L51.4234 35.4415C51.9561 35.9629 52.6165 36.3694 53.3779 36.6044C55.931 37.3922 58.6393 35.961 59.427 33.4081C60.2148 30.8552 58.784 28.1467 56.2308 27.3588Z" fill="#9B9DA6"/>
</g>
<defs>
<clipPath id="clip0_350_159">
<rect width="76.2232" height="76.2232" fill="white" transform="translate(22.4751) rotate(17.1491)"/>
</clipPath>
</defs>
</svg>
