<svg width="108" height="108" viewBox="0 0 108 108" fill="none" xmlns="http://www.w3.org/2000/svg">
<g clip-path="url(#clip0_350_193)" filter="url(#filter0_d_350_193)">
<path d="M77.2773 32.0814C72.0856 26.8499 66.6969 20.7925 56.2819 20.7527C45.8668 20.7129 39.835 21.7475 34.327 22.8853C19.3502 25.9794 20.5231 48.3867 21.5739 54.5735C22.5854 60.5291 23.9141 69.0597 29.2055 74.3917C34.4969 79.7238 42.2767 87.9815 48.1092 88.0038C53.9417 88.0262 63.1071 88.0612 68.3145 88.0811C73.5219 88.101 81.6657 82.9246 84.2019 73.3521C86.738 63.7797 90.454 45.3592 77.2773 32.0814Z" fill="#D8D9DD"/>
<path d="M21.5741 54.5737C22.5856 60.5292 23.9142 69.0598 29.2057 74.3919C29.843 75.0341 30.5169 75.7191 31.2188 76.4268L76.5978 31.3935C71.607 26.3333 66.2437 20.7906 56.2823 20.7527C45.8672 20.7128 39.8352 21.7475 34.3274 22.8853C19.3504 25.9795 20.5235 48.3866 21.5741 54.5737Z" fill="#B7B9C0"/>
<path d="M43.6603 60.9659C41.778 59.0691 38.7144 59.0574 36.8176 60.9397C34.9208 62.822 34.9091 65.8856 36.7915 67.7824C38.6738 69.6792 41.7373 69.6909 43.6341 67.8085C45.5309 65.9262 45.5426 62.8626 43.6603 60.9659Z" fill="#B7B9C0"/>
<path d="M64.1116 77.0422C68.7708 81.7372 75.8127 82.6278 81.3771 79.7017C82.5809 77.8689 83.5671 75.7483 84.2021 73.352C85.224 69.4949 86.4369 64.2005 86.6596 58.3855C86.1665 57.6677 85.6063 56.9819 84.9711 56.3419C79.2549 50.5818 69.9512 50.5462 64.1911 56.2624C58.431 61.9787 58.3954 71.2821 64.1116 77.0422Z" fill="#B7B9C0"/>
<path d="M38.3892 22.106C34.8178 27.7651 35.4765 35.3347 40.3912 40.2871C46.1074 46.0472 55.411 46.0829 61.1711 40.3666C66.2591 35.3174 66.8774 27.4709 63.0135 21.7382C61.0171 21.1235 58.7964 20.7623 56.2822 20.7527C48.3384 20.7223 42.9455 21.3173 38.3892 22.106Z" fill="#9B9DA6"/>
<path d="M36.7916 67.7826C37.3528 68.3481 38.0194 68.7446 38.7283 68.9748L44.8368 62.9128C44.6122 62.202 44.2207 61.5325 43.6595 60.967C41.7773 59.0704 38.7142 59.0589 36.8178 60.9408C34.9215 62.8228 34.9094 65.886 36.7916 67.7826Z" fill="#9B9DA6"/>
</g>
<defs>
<filter id="filter0_d_350_193" x="-3.98828" y="0.0117188" width="115.795" height="115.795" filterUnits="userSpaceOnUse" color-interpolation-filters="sRGB">
<feFlood flood-opacity="0" result="BackgroundImageFix"/>
<feColorMatrix in="SourceAlpha" type="matrix" values="0 0 0 0 0 0 0 0 0 0 0 0 0 0 0 0 0 0 127 0" result="hardAlpha"/>
<feOffset dy="4"/>
<feGaussianBlur stdDeviation="2"/>
<feComposite in2="hardAlpha" operator="out"/>
<feColorMatrix type="matrix" values="0 0 0 0 0 0 0 0 0 0 0 0 0 0 0 0 0 0 0.25 0"/>
<feBlend mode="normal" in2="BackgroundImageFix" result="effect1_dropShadow_350_193"/>
<feBlend mode="normal" in="SourceGraphic" in2="effect1_dropShadow_350_193" result="shape"/>
</filter>
<clipPath id="clip0_350_193">
<rect width="76.2232" height="76.2232" fill="white" transform="translate(53.7031 107.807) rotate(-134.781)"/>
</clipPath>
</defs>
</svg>
