<svg width="106" height="106" viewBox="0 0 106 106" fill="none" xmlns="http://www.w3.org/2000/svg">
<g clip-path="url(#clip0_350_180)">
<path d="M26.9553 34.23C22.8328 40.3397 17.9387 46.8031 19.9244 57.0272C21.9101 67.2513 24.0976 72.9669 26.2845 78.1486C32.2312 92.2382 53.9829 86.7315 59.8475 84.4979C65.4927 82.3479 73.6023 79.3862 77.8039 73.1591C82.0055 66.932 88.5933 57.6953 87.4813 51.9697C86.3692 46.2442 84.6218 37.2469 83.629 32.135C82.6361 27.023 75.9752 20.0409 66.0924 19.4141C56.2095 18.7873 37.4181 18.7234 26.9553 34.23Z" fill="#D8D9DD"/>
<path d="M59.8476 84.4972C65.4928 82.3472 73.6024 79.3855 77.804 73.1584C78.3101 72.4083 78.851 71.6141 79.4087 70.7881L26.4125 35.0297C22.4192 40.909 18.0249 47.2475 19.9243 57.0263C21.91 67.2504 24.0976 72.9661 26.2844 78.1477C32.2312 92.2374 53.9828 86.7306 59.8476 84.4972Z" fill="#B7B9C0"/>
<path d="M61.8236 61.5895C60.329 63.8047 60.9131 66.8121 63.1283 68.3067C65.3434 69.8014 68.3508 69.2173 69.8455 67.0021C71.3401 64.787 70.756 61.7796 68.5409 60.2849C66.3257 58.7903 63.3183 59.3744 61.8236 61.5895Z" fill="#B7B9C0"/>
<path d="M73.6181 38.4032C77.3177 32.9201 76.8223 25.8394 72.8703 20.95C70.8385 20.1256 68.5666 19.5704 66.0925 19.4134C62.1103 19.1609 56.6812 19.0004 50.9339 19.9124C50.3256 20.5357 49.7618 21.2185 49.2575 21.966C44.7185 28.693 46.4923 37.826 53.2193 42.365C59.9463 46.9039 69.0792 45.1302 73.6181 38.4032Z" fill="#B7B9C0"/>
<path d="M24.7302 74.3165C30.9757 76.7195 38.2728 74.6018 42.1752 68.8181C46.7142 62.0911 44.9405 52.9582 38.2135 48.4192C32.2715 44.4099 24.4545 45.3288 19.5823 50.2335C19.3674 52.3113 19.4449 54.5598 19.9243 57.028C21.4388 64.8261 23.0709 70.0005 24.7302 74.3165Z" fill="#9B9DA6"/>
<path d="M69.8454 67.0033C70.2911 66.3428 70.5504 65.6119 70.6384 64.8717L63.5045 60.0582C62.8509 60.4168 62.2704 60.9309 61.8247 61.5914C60.3302 63.8064 60.9144 66.8133 63.1291 68.3076C65.3438 69.8019 68.3509 69.2182 69.8454 67.0033Z" fill="#9B9DA6"/>
</g>
<defs>
<clipPath id="clip0_350_180">
<rect width="76.2232" height="76.2232" fill="white" transform="translate(105.819 42.6328) rotate(124.009)"/>
</clipPath>
</defs>
</svg>
