<svg width="368" height="426" viewBox="0 0 368 426" fill="none" xmlns="http://www.w3.org/2000/svg">
<path d="M523.436 421.473C547.379 413.892 570.739 362.39 513.393 356.675C441.71 349.532 376.28 351.753 406.77 311.589C443.635 263.027 483.076 182.385 406.467 207.051C332.197 230.963 287.899 298.684 266.658 262.498C239.775 216.701 351.457 103.805 185.743 98.4408" stroke="white" stroke-opacity="0.5" stroke-width="5" stroke-linecap="round"/>
<path d="M42.4554 260.302L17.9206 247.709C8.23643 259.17 -7.82136 284.568 10.3209 296.629C12.1351 297.835 13.925 298.424 15.6774 298.499C27.9442 299.03 38.3743 274.415 42.4554 260.302Z" fill="#587DFF"/>
<path d="M100.423 268.939L73.4324 263.28C67.1223 276.893 58.3494 305.632 79.0343 312.468C81.1028 313.152 82.9847 313.246 84.6948 312.856C96.6655 310.125 100.218 283.629 100.423 268.939Z" fill="#587DFF"/>
<path d="M93.8024 58.1731C99.2832 47.2774 108.207 48.932 111.983 51.1213L190.419 87.43C200.705 92.8354 198.537 101.867 196.168 105.708C184.656 129.86 160.358 181.364 155.261 194.167C150.164 206.971 137.199 203.042 131.354 199.478C111.349 189.943 68.89 169.794 59.0898 165.482C49.2895 161.17 49.8838 153.58 51.4059 150.323C63.2544 124.147 88.3215 69.0689 93.8024 58.1731Z" fill="#A5BDFD"/>
<path d="M176.393 210.989C173.996 206.973 179.091 198.923 181.937 195.4L202.039 197.885C202.561 199.931 203.639 205.834 203.776 213.084C203.947 222.147 194.787 221.014 188.617 220.768C182.447 220.521 179.389 216.01 176.393 210.989Z" fill="#A5BDFD"/>
<path d="M74.1428 77.1835C71.3534 64.6449 65.9985 50.4286 63.6698 44.8877C58.3127 53.1121 48.2976 51.5118 43.9597 49.6837C51.7472 95.3392 54.0535 108.025 60.8004 111.959C67.5473 115.894 96.0838 100.306 93.0332 101.995C90.5927 103.347 78.2824 121.699 72.4323 130.706C68.642 134.199 56.2473 151.283 36.991 191.683C12.9206 242.182 14.22 263.01 27.9601 264.709C41.7002 266.408 47.164 261.917 63.5913 227.265C80.0185 192.612 90.5344 184.871 96.7903 178.153C101.795 172.778 103.965 176.543 104.424 179.097C104.236 205.682 87.5585 235.395 78.245 246.644C63.8632 279.379 83.3792 281.724 94.4418 278.614C117.344 263.879 146.046 191.391 157.534 156.989L164.817 133.606C180.385 151.445 180.667 183.703 178.862 197.602C191.287 205.752 200.47 201.825 203.509 198.842C210.139 133.527 185.657 101.566 172.588 93.7495L114.232 68.4492C103.185 64.1897 82.9031 72.4973 74.1428 77.1835Z" fill="white"/>
<path d="M112.938 51.7558L122.12 21.3741C114.996 20.493 110.667 17.8911 104.834 31.6367C100.168 42.6331 108.293 50.3202 112.938 51.7558Z" fill="#587DFF"/>
<path d="M202.498 48.8126L192.193 79.3823C199.283 80.512 204.307 81.7796 210.617 68.2465C215.666 57.42 207.09 50.4097 202.498 48.8126Z" fill="#587DFF"/>
<path d="M173.045 6.48817C152.683 -0.990045 134.591 8.96612 128.09 14.879L203.334 41.4927C201.722 32.9404 193.408 13.9664 173.045 6.48817Z" fill="#587DFF"/>
<path d="M142.373 93.6747C162.725 101.179 180.83 91.2466 187.339 85.3422L112.13 58.631C113.731 67.1853 122.02 86.1701 142.373 93.6747Z" fill="#587DFF"/>
<path d="M201.803 39.2371C185.349 15.8029 148.194 9.65779 131.105 13.6318C129.291 14.0537 127.66 15.0098 126.311 16.2945C112.487 29.4623 111.038 45.2624 111.854 55.0993C112.063 57.6117 113.105 59.9741 114.745 61.8887C137.787 88.7905 168.79 89.7323 184.314 86.2673C186.3 85.8239 188.13 84.8353 189.603 83.4308C203.761 69.934 205.023 52.6021 203.576 43.5144C203.33 41.9689 202.703 40.5179 201.803 39.2371Z" fill="#A5BDFD"/>
<line x1="76.7333" y1="124.168" x2="155.84" y2="161.554" stroke="#B380C8" stroke-width="10.7682" stroke-linecap="round"/>
<rect x="102.12" y="112.161" width="52.8624" height="40.186" rx="6.66601" transform="rotate(26.0536 102.12 112.161)" fill="#B380C8"/>
<path d="M61.0463 9.75238C56.6097 2.17692 55.9035 16.5221 56.105 24.6416C52.9572 25.0272 52.2036 8.14225 48.0696 8.14759C43.9355 8.15293 49.8833 33.1724 46.1816 23.4144C43.2202 15.608 40.8885 12.5985 40.0927 12.0696C38.6614 11.8065 36.571 13.3908 39.6604 21.833C42.7497 30.2752 41.8659 30.4587 41.0378 29.4952C38.7975 26.7208 34.1779 21.8784 33.622 24.703C32.927 28.2338 39.4878 35.7619 39.905 38.6552C40.3222 41.5485 43.1976 51.721 49.0526 54.5118C54.9076 57.3025 63.7764 54.5242 67.0104 47.174C70.2444 39.8238 70.7533 39.8868 72.4688 38.5489C73.8411 37.4786 77.1519 36.8891 78.6357 36.7281C79.8396 33.2603 76.7547 33.1371 71.6343 32.7622C66.5139 32.3874 65.3128 37.9223 64.1556 28.479C63.2298 20.9244 61.697 12.8468 61.0463 9.75238Z" fill="#A5BDFD"/>
<path d="M171.006 30.5738C148.165 20.9476 130.038 31.6064 123.829 38.1391C124.622 32.1554 132.399 24.7023 136.188 21.7237C154.71 20.4281 167.117 27.084 171.006 30.5738Z" fill="white"/>
</svg>
