<svg width="1440" height="351" viewBox="0 0 1440 351" fill="none" xmlns="http://www.w3.org/2000/svg">
<path d="M1312.34 83.8141C1336.62 163.17 1411.52 150.638 1445.93 134.452L1454.06 0.347525L-7.95143 9.61342L-8.00257 223.677C36.1153 267.816 67.0621 227.238 77.0208 201.431C83.0888 221.27 108.225 215.102 120.034 209.538C126.504 242.332 163.546 248.515 181.258 247.508C187.719 318.358 244.667 319.889 272.334 311.799C308.771 345.006 391.059 387.152 428.712 290.075C445.306 309.107 467.003 292.615 475.778 281.99C540.137 328.563 580.196 278.472 592.18 247.606C629.826 266.643 654.09 239.692 661.516 223.837C690.256 241.658 731.185 216.432 748.057 201.591C752.778 213.738 773.959 238.338 820.921 239.563C867.883 240.789 880.31 192.851 880.653 168.729C945.022 178.866 940.883 131.126 930.768 105.99C964.773 114.904 986.102 85.423 992.516 69.568C1022.87 92.2467 1041.94 79.0262 1047.68 69.5812C1080.46 98.3335 1109.58 76.1748 1120.05 61.5015C1180.76 129.531 1246.22 95.269 1271.36 69.6346C1276.61 85.8298 1300.87 85.8356 1312.34 83.8141Z" fill="#F8F8FF"/>
</svg>
