<svg width="625" height="786" viewBox="0 0 625 786" fill="none" xmlns="http://www.w3.org/2000/svg">
<path d="M52.7461 565.493L641.941 365V686.401L354.442 765.5C-87.0587 860 -19.5583 595 52.7461 565.493Z" fill="#152225"/>
<path d="M220.66 244.438C220.113 231.861 226.566 206.706 256.752 206.706C258.396 206.706 260.038 206.69 261.673 206.664V191.941H296.124V206.482C316.39 208.005 331.179 215.416 332.216 244.438H220.66Z" fill="white"/>
<ellipse cx="283" cy="480.673" rx="251" ry="244.438" fill="white"/>
<g filter="url(#filter0_i_184_1700)">
<ellipse cx="282.472" cy="480.673" rx="230.785" ry="224.752" fill="#507367"/>
</g>
<g filter="url(#filter1_i_184_1700)">
<path d="M453.5 332C305 332 133.5 383.5 112.5 630.5C62.6668 568.833 -2.89989 418.6 133.5 311C269.9 203.4 403.667 280.167 453.5 332Z" fill="#38605B"/>
</g>
<ellipse cx="279.719" cy="160.771" rx="41.0131" ry="39.3726" fill="white"/>
<path fill-rule="evenodd" clip-rule="evenodd" d="M283 187.02C334.644 187.02 376.51 145.154 376.51 93.5098C376.51 41.8658 334.644 0 283 0C231.356 0 189.49 41.8658 189.49 93.5098C189.49 145.154 231.356 187.02 283 187.02ZM283 173.895C327.396 173.895 363.386 137.906 363.386 93.5098C363.386 49.1141 327.396 13.1242 283 13.1242C238.604 13.1242 202.614 49.1141 202.614 93.5098C202.614 137.906 238.604 173.895 283 173.895Z" fill="white"/>
<path d="M281.359 324.823V633.242" stroke="white" stroke-width="9.84314" stroke-linecap="round"/>
<path d="M140.274 479.033H448.693" stroke="white" stroke-width="9.84314" stroke-linecap="round"/>
<path d="M387.5 518.5C355.1 517.7 265 560.167 224 581.5L402 338.5L430.5 333C419.7 340.6 393.667 416.167 382 453L387.5 518.5Z" fill="#38605B"/>
<path d="M291.203 531.529C259.705 543.341 210.27 596.604 189.49 621.758C231.488 537.763 244.174 456.612 245.268 426.536C276.766 425.224 296.671 413.959 302.686 408.49L402.758 337.948C372.573 366.821 343.153 436.379 332.216 467.549V510.203L291.203 531.529Z" fill="white"/>
<circle cx="281.36" cy="479.033" r="26.2484" fill="#FFEABB"/>
<path d="M283.919 303.163L282.279 300.866C281.973 300.429 281.557 299.969 281.032 299.488C280.507 299.007 280.004 298.569 279.523 298.176C279.304 298.044 279.085 297.848 278.867 297.585C278.692 297.279 278.495 296.973 278.276 296.666C278.057 296.36 277.817 296.076 277.554 295.813C277.336 295.507 277.095 295.31 276.832 295.223C276.745 295.223 276.636 295.223 276.504 295.223C276.286 295.223 276.132 295.135 276.045 294.96C276.001 294.785 275.936 294.567 275.848 294.304C275.804 293.998 275.717 293.692 275.586 293.385C275.454 293.035 275.214 292.685 274.864 292.335L273.945 290.695H273.158C273.07 291.264 273.026 291.789 273.026 292.27C273.026 292.707 273.026 293.145 273.026 293.582V295.157C273.026 295.813 273.005 296.491 272.961 297.191C272.961 297.891 272.895 298.679 272.764 299.554C272.764 299.773 272.676 300.297 272.501 301.129C272.37 301.916 272.195 302.791 271.976 303.754C271.758 304.672 271.561 305.613 271.386 306.575C271.211 307.494 271.123 308.194 271.123 308.675L270.73 309.003H269.614L266.005 308.15C265.742 308.063 265.567 307.625 265.48 306.838C265.393 306.006 265.349 305.066 265.349 304.016C265.349 303.01 265.371 302.025 265.414 301.063C265.458 300.057 265.48 299.357 265.48 298.963L265.939 292.335L265.218 291.482V281.771L266.53 280.458L270.992 281.246L274.929 280.589L278.932 287.676L279.064 288.201L281.36 291.548L284.969 295.288L285.101 295.682H286.676V280.589L286.741 280.13H294.025L294.681 282.886L295.075 285.38C294.638 286.036 294.397 286.517 294.353 286.823C294.309 287.086 294.288 287.261 294.288 287.348L293.566 288.661C293.741 289.929 293.872 290.979 293.959 291.811C294.047 292.598 294.091 293.364 294.091 294.107C294.091 295.245 293.959 297.082 293.697 299.619C293.478 302.113 293.369 304.978 293.369 308.216L292.91 308.675H291.86L288.119 307.756C287.682 307.581 287.463 307.516 287.463 307.56V307.297C287.463 307.253 287.463 307.166 287.463 307.035C287.463 306.86 287.463 306.685 287.463 306.51C287.288 306.422 286.982 306.028 286.544 305.328C286.151 304.628 285.538 303.994 284.707 303.425H284.51C284.466 303.338 284.423 303.294 284.379 303.294C284.379 303.294 284.357 303.272 284.313 303.229C284.269 303.229 284.248 303.207 284.248 303.163H283.919Z" fill="white"/>
<path d="M94.679 474.761L92.9073 479.42L90.3481 485.72L89.8231 486.639L89.0356 489.526L88.445 489.854H84.5078H82.0142L81.4236 489.264L81.2924 488.279L77.3551 480.864L73.8772 467.674L74.0084 466.952L76.5677 466.559L77.0926 466.887L80.3737 475.352L83.3922 479.552L85.3609 480.47L87.067 476.336L87.4607 473.843L90.4793 466.887H95.5321L96.3196 467.018V468.79L99.9287 475.549L102.882 480.536L103.866 477.058L104.85 475.221L106.885 473.777L109.772 466.887H115.415L116.334 467.018V468.659L115.153 471.677L114.431 475.418L112.265 479.42L109.772 485.654L109.181 486.639L108.394 489.526L107.803 489.854H103.866H101.438L100.782 489.264L100.651 488.279L96.7789 480.864L95.9915 478.042L94.679 474.761Z" fill="white"/>
<path d="M500.436 489.854C500.48 490.117 500.524 490.357 500.567 490.576C500.611 490.751 500.655 490.904 500.699 491.035V491.495C500.699 491.538 500.611 491.67 500.436 491.888C500.305 492.063 500.152 492.326 499.977 492.676L497.155 492.873L491.184 494.054L488.624 494.841H475.566V490.707L475.172 489.789L475.763 487.098V476.271L475.435 475.352V463.409L476.353 462.359L476.747 462.49H482.587L483.506 463.212L490.134 462.293L495.383 461.506L498.008 462.359V465.574L496.827 466.231L482.784 467.281L482.325 467.674L483.309 474.368L483.9 476.139H485.606L490.855 475.549L492.168 475.68H496.499L496.893 477.583L496.105 478.567L493.546 479.027H491.512L484.293 480.47V482.701L485.081 489.395L485.737 489.46H499.189L500.436 489.854Z" fill="white"/>
<path d="M295.52 678.515C295.52 679.302 295.564 680.024 295.651 680.68C295.739 681.293 295.783 681.861 295.783 682.386C295.783 683.261 295.564 684.005 295.127 684.617C294.733 685.186 294.208 685.689 293.552 686.127C292.939 686.564 292.283 686.936 291.583 687.242C290.883 687.592 290.249 687.92 289.68 688.227C289.242 688.445 288.893 688.62 288.63 688.751C288.368 688.926 288.171 689.036 288.039 689.08C287.908 689.123 287.799 689.145 287.711 689.145C287.668 689.189 287.624 689.211 287.58 689.211C287.536 689.211 287.405 689.233 287.186 689.276C286.968 689.364 286.683 689.451 286.333 689.539C286.027 689.67 285.699 689.758 285.349 689.801C284.999 689.845 284.649 689.867 284.299 689.867C283.599 689.867 282.877 689.758 282.134 689.539C281.39 689.364 280.537 689.276 279.574 689.276C279.181 689.233 278.787 689.255 278.393 689.342C278.043 689.43 277.649 689.517 277.212 689.605C276.643 689.736 276.14 689.823 275.703 689.867C275.309 689.911 274.915 689.955 274.522 689.998C274.172 690.086 273.8 690.13 273.406 690.13C273.056 690.173 272.619 690.217 272.094 690.261C272.094 690.261 272.006 690.217 271.831 690.13C271.656 690.042 271.481 689.955 271.306 689.867C271.131 689.78 270.978 689.67 270.847 689.539C270.716 689.408 270.65 689.298 270.65 689.211C270.65 689.167 270.672 689.123 270.716 689.08C270.672 689.08 270.65 689.014 270.65 688.883C270.65 688.795 270.672 688.686 270.716 688.555C270.803 688.423 270.891 688.336 270.978 688.292H270.847C270.759 688.292 270.672 688.161 270.584 687.898C270.541 687.68 270.475 687.395 270.387 687.045C270.344 686.695 270.278 686.323 270.191 685.93C270.147 685.536 270.081 685.164 269.994 684.814C270.037 684.77 270.256 684.814 270.65 684.945C271.087 685.077 271.459 685.142 271.765 685.142C272.072 685.142 272.29 685.077 272.422 684.945C273.165 685.033 273.822 685.12 274.39 685.208C274.959 685.252 275.462 685.274 275.9 685.274C276.818 685.274 277.649 685.164 278.393 684.945C279.181 684.727 280.231 684.464 281.543 684.158C281.587 684.158 281.827 684.136 282.265 684.092C282.702 684.049 283.183 683.939 283.708 683.764C284.233 683.546 284.715 683.239 285.152 682.846C285.59 682.408 285.808 681.796 285.808 681.008C285.808 680.702 285.721 680.418 285.546 680.155C285.371 679.893 285.196 679.652 285.021 679.433C284.846 679.171 284.671 678.952 284.496 678.777C284.365 678.558 284.299 678.318 284.299 678.055L282.462 677.268L278.262 675.365C277.737 675.277 277.256 675.102 276.818 674.84C276.425 674.534 276.053 674.205 275.703 673.856C275.353 673.462 274.959 673.112 274.522 672.806C274.128 672.499 273.625 672.237 273.012 672.018L272.225 671.362C271.787 671.012 271.437 670.574 271.175 670.05C270.956 669.525 270.803 668.89 270.716 668.147C270.803 668.059 270.869 667.884 270.912 667.622C271 667.315 271.044 667.031 271.044 666.768C271.044 666.506 271.022 666.353 270.978 666.309C270.934 666.265 270.912 666.178 270.912 666.047C270.912 665.609 271.044 665.194 271.306 664.8C271.612 664.362 271.765 663.859 271.765 663.291C272.159 662.984 272.444 662.7 272.619 662.437C272.837 662.175 273.034 661.934 273.209 661.716C273.647 661.016 274.368 660.403 275.375 659.878C276.381 659.353 277.278 658.894 278.065 658.5L281.412 656.794C282.199 656.575 282.877 656.4 283.446 656.269C284.015 656.138 284.758 655.919 285.677 655.613C285.94 655.7 286.136 655.766 286.268 655.81C286.443 655.81 286.683 655.81 286.99 655.81C287.689 655.81 288.28 655.788 288.761 655.744C289.242 655.7 289.833 655.635 290.533 655.547C290.971 655.81 291.277 655.985 291.452 656.072C291.67 656.16 292.02 656.313 292.502 656.532C292.502 656.925 292.502 657.232 292.502 657.45C292.502 657.625 292.502 657.8 292.502 657.975C292.545 658.107 292.567 658.26 292.567 658.435C292.567 658.61 292.589 658.872 292.633 659.222C292.327 659.66 291.867 659.878 291.255 659.878C290.686 659.878 290.271 659.878 290.008 659.878L288.761 660.469C288.236 660.6 287.602 660.775 286.858 660.994C286.158 661.213 285.59 661.409 285.152 661.584C284.846 661.759 284.408 661.978 283.84 662.241C283.271 662.459 282.768 662.569 282.33 662.569H282.002C280.996 663.181 280.362 663.728 280.099 664.209C279.881 664.647 279.771 665.325 279.771 666.243C279.771 667.206 279.881 667.84 280.099 668.147C280.318 668.409 280.515 668.54 280.69 668.54L283.708 670.246C284.54 670.728 285.48 671.274 286.53 671.887C287.624 672.456 288.696 672.959 289.746 673.396C289.789 673.527 289.921 673.637 290.139 673.724L292.174 674.84C292.436 675.015 292.699 675.19 292.961 675.365C293.223 675.496 293.595 675.649 294.077 675.824C294.077 676.087 294.142 676.327 294.273 676.546C294.405 676.721 294.558 676.918 294.733 677.137C294.908 677.355 295.061 677.574 295.192 677.793C295.367 678.012 295.476 678.252 295.52 678.515Z" fill="white"/>
<defs>
<filter id="filter0_i_184_1700" x="51.6865" y="255.922" width="461.57" height="453.503" filterUnits="userSpaceOnUse" color-interpolation-filters="sRGB">
<feFlood flood-opacity="0" result="BackgroundImageFix"/>
<feBlend mode="normal" in="SourceGraphic" in2="BackgroundImageFix" result="shape"/>
<feColorMatrix in="SourceAlpha" type="matrix" values="0 0 0 0 0 0 0 0 0 0 0 0 0 0 0 0 0 0 127 0" result="hardAlpha"/>
<feOffset dy="4"/>
<feGaussianBlur stdDeviation="2"/>
<feComposite in2="hardAlpha" operator="arithmetic" k2="-1" k3="1"/>
<feColorMatrix type="matrix" values="0 0 0 0 0 0 0 0 0 0 0 0 0 0 0 0 0 0 0.25 0"/>
<feBlend mode="normal" in2="shape" result="effect1_innerShadow_184_1700"/>
</filter>
<filter id="filter1_i_184_1700" x="52.2051" y="256.682" width="401.295" height="377.818" filterUnits="userSpaceOnUse" color-interpolation-filters="sRGB">
<feFlood flood-opacity="0" result="BackgroundImageFix"/>
<feBlend mode="normal" in="SourceGraphic" in2="BackgroundImageFix" result="shape"/>
<feColorMatrix in="SourceAlpha" type="matrix" values="0 0 0 0 0 0 0 0 0 0 0 0 0 0 0 0 0 0 127 0" result="hardAlpha"/>
<feOffset dy="4"/>
<feGaussianBlur stdDeviation="2"/>
<feComposite in2="hardAlpha" operator="arithmetic" k2="-1" k3="1"/>
<feColorMatrix type="matrix" values="0 0 0 0 0 0 0 0 0 0 0 0 0 0 0 0 0 0 0.25 0"/>
<feBlend mode="normal" in2="shape" result="effect1_innerShadow_184_1700"/>
</filter>
</defs>
</svg>
