<svg width="64" height="64" viewBox="0 0 64 64" fill="none" xmlns="http://www.w3.org/2000/svg">
<path d="M31.6952 24.0762H49.981V40.2286H31.6952V24.0762Z" fill="#B380C8"/>
<path d="M17.703 37.3565C17.1081 37.3565 16.5425 37.2541 16.0061 37.0493C15.4795 36.8445 15.0114 36.5373 14.6018 36.1277C14.1922 35.7083 13.8703 35.1963 13.6363 34.5917C13.4022 33.9773 13.2852 33.2702 13.2852 32.4706C13.2852 31.4173 13.4851 30.5201 13.885 29.7789C14.2946 29.028 14.8407 28.4574 15.5234 28.0674C16.2158 27.6675 16.9862 27.4676 17.8347 27.4676C18.4393 27.4676 18.9854 27.5944 19.4731 27.8479C19.9607 28.0917 20.3654 28.3697 20.6872 28.6818L19.5023 30.013C19.278 29.7984 19.0293 29.6326 18.7563 29.5156C18.493 29.3888 18.1858 29.3254 17.8347 29.3254C17.3861 29.3254 16.9862 29.4522 16.6351 29.7058C16.284 29.9496 16.0061 30.3006 15.8013 30.759C15.5965 31.2174 15.4941 31.7635 15.4941 32.3974C15.4941 33.0508 15.5965 33.6116 15.8013 34.0797C16.0061 34.5381 16.2889 34.8891 16.6498 35.133C17.0203 35.3768 17.4446 35.4987 17.9224 35.4987C18.2735 35.4987 18.5905 35.4206 18.8733 35.2646C19.1561 35.1086 19.4146 34.9038 19.6486 34.6502L20.8335 35.9522C20.4434 36.4105 19.9851 36.7616 19.4584 37.0054C18.9318 37.2395 18.3467 37.3565 17.703 37.3565Z" fill="#B380C8"/>
<path d="M25.1871 37.3565C24.5435 37.3565 23.9047 37.2395 23.2708 37.0054C22.6466 36.7714 22.0761 36.43 21.5592 35.9814L22.8027 34.5039C23.1635 34.7965 23.5585 35.0354 23.9876 35.2207C24.4264 35.406 24.875 35.4987 25.3334 35.4987C25.7918 35.4987 26.1282 35.4206 26.3428 35.2646C26.5671 35.1086 26.6792 34.9086 26.6792 34.6648C26.6792 34.4405 26.6207 34.265 26.5037 34.1382C26.3867 34.0017 26.216 33.8846 25.9917 33.7871C25.7674 33.6798 25.5041 33.5628 25.2018 33.436L23.973 32.9094C23.6219 32.7729 23.2903 32.5925 22.9782 32.3682C22.6661 32.1341 22.4126 31.8513 22.2175 31.5197C22.0322 31.1784 21.9396 30.7736 21.9396 30.3055C21.9396 29.7789 22.0859 29.3059 22.3784 28.8866C22.6808 28.4574 23.0904 28.1161 23.6072 27.8626C24.1339 27.5992 24.7434 27.4676 25.4358 27.4676C26.0112 27.4676 26.5768 27.5749 27.1327 27.7894C27.6886 28.004 28.1811 28.316 28.6102 28.7256L27.5131 30.0861C27.1815 29.8423 26.8499 29.657 26.5183 29.5302C26.1867 29.3937 25.7869 29.3254 25.3188 29.3254C24.9677 29.3254 24.68 29.3986 24.4557 29.5448C24.2314 29.6911 24.1192 29.9057 24.1192 30.1885C24.1192 30.3738 24.1875 30.5298 24.324 30.6566C24.4606 30.7834 24.6459 30.8955 24.8799 30.9931C25.114 31.0906 25.3822 31.1979 25.6845 31.3149L26.8402 31.8123C27.2693 31.9683 27.635 32.1634 27.9373 32.3974C28.2396 32.6217 28.4737 32.8997 28.6395 33.2312C28.8053 33.5628 28.8882 33.9529 28.8882 34.4015C28.8882 34.9282 28.7419 35.4158 28.4493 35.8644C28.1665 36.313 27.7471 36.6738 27.1912 36.9469C26.6451 37.22 25.9771 37.3565 25.1871 37.3565Z" fill="#B380C8"/>
<path d="M35.469 37.181V29.6034C35.469 29.0377 35.5763 28.5355 35.7909 28.0966C36.0054 27.648 36.337 27.3018 36.7856 27.058C37.2342 26.8044 37.8096 26.6776 38.5118 26.6776C38.9019 26.6776 39.2725 26.7166 39.6235 26.7947C39.9844 26.8629 40.3257 26.9556 40.6475 27.0726L40.2965 28.316C40.0331 28.2088 39.7747 28.1307 39.5211 28.082C39.2773 28.0332 39.0091 28.0088 38.7166 28.0088C38.1704 28.0088 37.7706 28.1454 37.517 28.4184C37.2635 28.6818 37.1367 29.067 37.1367 29.5741V37.181H35.469ZM33.4795 31.3295V30.0715L35.5129 29.9983H39.8722V31.3295H33.4795Z" fill="white"/>
<path d="M45.2937 37.3565C44.5623 37.3565 43.8991 37.2102 43.3042 36.9176C42.7093 36.6153 42.2363 36.1862 41.8853 35.6303C41.5342 35.0647 41.3586 34.382 41.3586 33.5823C41.3586 32.8021 41.5342 32.1341 41.8853 31.5782C42.2363 31.0126 42.6947 30.5786 43.2603 30.2763C43.826 29.9739 44.4306 29.8228 45.0743 29.8228C45.7862 29.8228 46.386 29.9691 46.8736 30.2616C47.371 30.5542 47.7464 30.9589 48 31.4758C48.2633 31.9829 48.395 32.5681 48.395 33.2312C48.395 33.397 48.3852 33.5579 48.3657 33.714C48.356 33.8603 48.3413 33.9822 48.3218 34.0797H42.5728V32.8802H47.2393L46.9175 33.2605C46.9175 32.5486 46.7566 32.0171 46.4347 31.666C46.1227 31.3051 45.6838 31.1247 45.1182 31.1247C44.7183 31.1247 44.3575 31.2174 44.0357 31.4027C43.7236 31.588 43.4749 31.8659 43.2896 32.2365C43.1043 32.5973 43.0117 33.0459 43.0117 33.5823C43.0117 34.1382 43.1141 34.5966 43.3189 34.9574C43.5334 35.3183 43.826 35.5913 44.1966 35.7766C44.5769 35.9619 45.0158 36.0546 45.5131 36.0546C45.8935 36.0546 46.2446 36.0009 46.5664 35.8936C46.8882 35.7864 47.2101 35.6401 47.5319 35.4548L48.1024 36.508C47.7221 36.7518 47.293 36.9566 46.8151 37.1224C46.3372 37.2785 45.8301 37.3565 45.2937 37.3565Z" fill="white"/>
<path d="M64 32C64 49.6731 49.6731 64 32 64C14.3269 64 0 49.6731 0 32C0 14.3269 14.3269 0 32 0C49.6731 0 64 14.3269 64 32Z" fill="#B380C8"/>
<path d="M31.6952 25.6C31.6952 24.7584 32.3775 24.0762 33.219 24.0762H48.4571C49.2987 24.0762 49.981 24.7584 49.981 25.6V38.7048C49.981 39.5463 49.2987 40.2286 48.4571 40.2286H33.219C32.3775 40.2286 31.6952 39.5463 31.6952 38.7048V25.6Z" fill="white"/>
<path d="M17.703 37.3565C17.1081 37.3565 16.5425 37.2541 16.0061 37.0493C15.4795 36.8445 15.0114 36.5373 14.6018 36.1277C14.1922 35.7083 13.8703 35.1963 13.6363 34.5917C13.4022 33.9773 13.2852 33.2702 13.2852 32.4706C13.2852 31.4173 13.4851 30.5201 13.885 29.7789C14.2946 29.028 14.8407 28.4574 15.5234 28.0674C16.2158 27.6675 16.9862 27.4676 17.8347 27.4676C18.4393 27.4676 18.9854 27.5944 19.4731 27.8479C19.9607 28.0917 20.3654 28.3697 20.6872 28.6818L19.5023 30.013C19.278 29.7984 19.0293 29.6326 18.7563 29.5156C18.493 29.3888 18.1858 29.3254 17.8347 29.3254C17.3861 29.3254 16.9862 29.4522 16.6351 29.7058C16.284 29.9496 16.0061 30.3006 15.8013 30.759C15.5965 31.2174 15.4941 31.7635 15.4941 32.3974C15.4941 33.0508 15.5965 33.6116 15.8013 34.0797C16.0061 34.5381 16.2889 34.8891 16.6498 35.133C17.0203 35.3768 17.4446 35.4987 17.9224 35.4987C18.2735 35.4987 18.5905 35.4206 18.8733 35.2646C19.1561 35.1086 19.4146 34.9038 19.6486 34.6502L20.8335 35.9522C20.4434 36.4105 19.9851 36.7616 19.4584 37.0054C18.9318 37.2395 18.3467 37.3565 17.703 37.3565Z" fill="white"/>
<path d="M25.1871 37.3565C24.5435 37.3565 23.9047 37.2395 23.2708 37.0054C22.6466 36.7714 22.0761 36.43 21.5592 35.9814L22.8027 34.5039C23.1635 34.7965 23.5585 35.0354 23.9876 35.2207C24.4264 35.406 24.875 35.4987 25.3334 35.4987C25.7918 35.4987 26.1282 35.4206 26.3428 35.2646C26.5671 35.1086 26.6792 34.9086 26.6792 34.6648C26.6792 34.4405 26.6207 34.265 26.5037 34.1382C26.3867 34.0017 26.216 33.8846 25.9917 33.7871C25.7674 33.6798 25.5041 33.5628 25.2018 33.436L23.973 32.9094C23.6219 32.7729 23.2903 32.5925 22.9782 32.3682C22.6661 32.1341 22.4126 31.8513 22.2175 31.5197C22.0322 31.1784 21.9396 30.7736 21.9396 30.3055C21.9396 29.7789 22.0859 29.3059 22.3784 28.8866C22.6808 28.4574 23.0904 28.1161 23.6072 27.8626C24.1339 27.5992 24.7434 27.4676 25.4358 27.4676C26.0112 27.4676 26.5768 27.5749 27.1327 27.7894C27.6886 28.004 28.1811 28.316 28.6102 28.7256L27.5131 30.0861C27.1815 29.8423 26.8499 29.657 26.5183 29.5302C26.1867 29.3937 25.7869 29.3254 25.3188 29.3254C24.9677 29.3254 24.68 29.3986 24.4557 29.5448C24.2314 29.6911 24.1192 29.9057 24.1192 30.1885C24.1192 30.3738 24.1875 30.5298 24.324 30.6566C24.4606 30.7834 24.6459 30.8955 24.8799 30.9931C25.114 31.0906 25.3822 31.1979 25.6845 31.3149L26.8402 31.8123C27.2693 31.9683 27.635 32.1634 27.9373 32.3974C28.2396 32.6217 28.4737 32.8997 28.6395 33.2312C28.8053 33.5628 28.8882 33.9529 28.8882 34.4015C28.8882 34.9282 28.7419 35.4158 28.4493 35.8644C28.1665 36.313 27.7471 36.6738 27.1912 36.9469C26.6451 37.22 25.9771 37.3565 25.1871 37.3565Z" fill="white"/>
<path d="M35.469 37.181V31.3295H33.4795V30.0715L35.469 29.9983V29.6034C35.469 29.184 35.5275 28.7939 35.6446 28.4331C35.7616 28.0722 35.942 27.765 36.1858 27.5115C36.4394 27.2482 36.7563 27.0434 37.1367 26.8971C37.5268 26.7508 37.9851 26.6776 38.5118 26.6776C38.9019 26.6776 39.2725 26.7118 39.6235 26.78C39.9844 26.8483 40.3257 26.9458 40.6475 27.0726L40.2965 28.316C40.0331 28.2088 39.7747 28.1307 39.5211 28.082C39.2773 28.0332 39.0091 28.0088 38.7166 28.0088C38.1607 28.0088 37.756 28.1454 37.5024 28.4184C37.2586 28.6818 37.1367 29.067 37.1367 29.5741V29.9983H39.8722V31.3295H37.1367V37.181H35.469Z" fill="#B380C8"/>
<path d="M45.2937 37.3565C44.7476 37.3565 44.2356 37.2736 43.7577 37.1078C43.2799 36.9323 42.8605 36.6836 42.4997 36.3618C42.1486 36.0399 41.8706 35.645 41.6658 35.1768C41.461 34.7087 41.3586 34.1772 41.3586 33.5823C41.3586 32.9972 41.461 32.4754 41.6658 32.0171C41.8706 31.549 42.1437 31.154 42.485 30.8322C42.8361 30.5006 43.2311 30.2519 43.6699 30.0861C44.1185 29.9106 44.5867 29.8228 45.0743 29.8228C45.6107 29.8228 46.0837 29.9106 46.4933 30.0861C46.9029 30.2519 47.2491 30.4859 47.5319 30.7883C47.8147 31.0808 48.0293 31.4368 48.1755 31.8562C48.3218 32.2755 48.395 32.7339 48.395 33.2312C48.395 33.397 48.3852 33.5579 48.3657 33.714C48.356 33.8603 48.3413 33.9822 48.3218 34.0797H43.0409C43.1384 34.7526 43.4066 35.25 43.8455 35.5718C44.2843 35.8936 44.8402 36.0546 45.5131 36.0546C45.8935 36.0546 46.2446 36.0009 46.5664 35.8936C46.8882 35.7864 47.2101 35.6401 47.5319 35.4548L48.1024 36.508C47.7221 36.7616 47.2881 36.9664 46.8005 37.1224C46.3226 37.2785 45.8203 37.3565 45.2937 37.3565ZM45.1182 31.1247C44.6208 31.1247 44.1819 31.271 43.8016 31.5636C43.431 31.8562 43.1921 32.295 43.0848 32.8802H46.9029C46.8443 32.295 46.659 31.8562 46.347 31.5636C46.0447 31.271 45.6351 31.1247 45.1182 31.1247Z" fill="#B380C8"/>
</svg>
