<svg width="64" height="64" viewBox="0 0 64 64" fill="none" xmlns="http://www.w3.org/2000/svg">
<path d="M51.3867 14.2128C47.84 12.5595 44 11.3595 40 10.6661C39.9649 10.665 39.93 10.6716 39.8978 10.6854C39.8655 10.6992 39.8367 10.72 39.8133 10.7461C39.3333 11.6261 38.7733 12.7728 38.4 13.6528C34.1573 13.0128 29.8427 13.0128 25.6 13.6528C25.2267 12.7461 24.6667 11.6261 24.16 10.7461C24.1333 10.6928 24.0533 10.6661 23.9733 10.6661C19.9733 11.3595 16.16 12.5595 12.5867 14.2128C12.56 14.2128 12.5333 14.2395 12.5067 14.2661C5.25332 25.1195 3.25332 35.6795 4.23999 46.1328C4.23999 46.1861 4.26665 46.2395 4.31999 46.2661C9.11999 49.7861 13.7333 51.9195 18.2933 53.3328C18.3733 53.3595 18.4533 53.3328 18.48 53.2795C19.5467 51.8128 20.5067 50.2661 21.3333 48.6395C21.3867 48.5328 21.3333 48.4261 21.2267 48.3995C19.7067 47.8128 18.2667 47.1195 16.8533 46.3195C16.7467 46.2661 16.7467 46.1061 16.8267 46.0261C17.12 45.8128 17.4133 45.5728 17.7067 45.3595C17.76 45.3061 17.84 45.3061 17.8933 45.3328C27.0667 49.5195 36.96 49.5195 46.0267 45.3328C46.08 45.3061 46.16 45.3061 46.2133 45.3595C46.5067 45.5995 46.8 45.8128 47.0933 46.0528C47.2 46.1328 47.2 46.2928 47.0667 46.3461C45.68 47.1728 44.2133 47.8395 42.6933 48.4261C42.5867 48.4528 42.56 48.5861 42.5867 48.6661C43.44 50.2928 44.4 51.8395 45.44 53.3061C45.52 53.3328 45.6 53.3595 45.68 53.3328C50.2667 51.9195 54.88 49.7861 59.68 46.2661C59.7333 46.2395 59.76 46.1861 59.76 46.1328C60.9333 34.0528 57.8133 23.5728 51.4933 14.2661C51.4667 14.2395 51.44 14.2128 51.3867 14.2128V14.2128ZM22.72 39.7595C19.9733 39.7595 17.68 37.2261 17.68 34.1061C17.68 30.9861 19.92 28.4528 22.72 28.4528C25.5467 28.4528 27.7867 31.0128 27.76 34.1061C27.76 37.2261 25.52 39.7595 22.72 39.7595ZM41.3067 39.7595C38.56 39.7595 36.2667 37.2261 36.2667 34.1061C36.2667 30.9861 38.5067 28.4528 41.3067 28.4528C44.1333 28.4528 46.3733 31.0128 46.3467 34.1061C46.3467 37.2261 44.1333 39.7595 41.3067 39.7595Z" fill="#FFECA9"/>
</svg>
