<svg width="64" height="64" viewBox="0 0 64 64" fill="none" xmlns="http://www.w3.org/2000/svg">
<g clip-path="url(#clip0_183_1251)">
<path d="M51.3876 14.2133C47.841 12.56 44.001 11.36 40.001 10.6666C39.9659 10.6655 39.931 10.6721 39.8988 10.6859C39.8665 10.6997 39.8377 10.7205 39.8143 10.7466C39.3343 11.6266 38.7743 12.7733 38.401 13.6533C34.1583 13.0133 29.8436 13.0133 25.601 13.6533C25.2276 12.7466 24.6676 11.6266 24.161 10.7466C24.1343 10.6933 24.0543 10.6666 23.9743 10.6666C19.9743 11.36 16.161 12.56 12.5876 14.2133C12.561 14.2133 12.5343 14.24 12.5076 14.2666C5.2543 25.12 3.2543 35.68 4.24096 46.1333C4.24096 46.1866 4.26763 46.24 4.32096 46.2666C9.12096 49.7866 13.7343 51.92 18.2943 53.3333C18.3743 53.36 18.4543 53.3333 18.481 53.28C19.5476 51.8133 20.5076 50.2666 21.3343 48.64C21.3876 48.5333 21.3343 48.4266 21.2276 48.4C19.7076 47.8133 18.2676 47.12 16.8543 46.32C16.7476 46.2666 16.7476 46.1066 16.8276 46.0266C17.121 45.8133 17.4143 45.5733 17.7076 45.36C17.761 45.3066 17.841 45.3066 17.8943 45.3333C27.0676 49.52 36.961 49.52 46.0276 45.3333C46.081 45.3066 46.161 45.3066 46.2143 45.36C46.5076 45.6 46.801 45.8133 47.0943 46.0533C47.201 46.1333 47.201 46.2933 47.0676 46.3466C45.681 47.1733 44.2143 47.84 42.6943 48.4266C42.5876 48.4533 42.561 48.5866 42.5876 48.6666C43.441 50.2933 44.401 51.84 45.441 53.3066C45.521 53.3333 45.601 53.36 45.681 53.3333C50.2676 51.92 54.881 49.7866 59.681 46.2666C59.7343 46.24 59.761 46.1866 59.761 46.1333C60.9343 34.0533 57.8143 23.5733 51.4943 14.2666C51.4676 14.24 51.441 14.2133 51.3876 14.2133V14.2133ZM22.721 39.76C19.9743 39.76 17.681 37.2266 17.681 34.1066C17.681 30.9866 19.921 28.4533 22.721 28.4533C25.5476 28.4533 27.7876 31.0133 27.761 34.1066C27.761 37.2266 25.521 39.76 22.721 39.76ZM41.3076 39.76C38.561 39.76 36.2676 37.2266 36.2676 34.1066C36.2676 30.9866 38.5076 28.4533 41.3076 28.4533C44.1343 28.4533 46.3743 31.0133 46.3476 34.1066C46.3476 37.2266 44.1343 39.76 41.3076 39.76Z" fill="#839D80"/>
</g>
<defs>
<clipPath id="clip0_183_1251">
<rect width="64" height="64" fill="white"/>
</clipPath>
</defs>
</svg>
