<svg width="20" height="15" viewBox="0 0 20 15" fill="none" xmlns="http://www.w3.org/2000/svg">
<path d="M16.2726 1.35664C15.0492 0.784231 13.741 0.368225 12.3734 0.131348C12.2054 0.435016 12.0092 0.843457 11.8739 1.16837C10.4201 0.949732 8.97962 0.949732 7.55252 1.16837C7.41726 0.843457 7.21657 0.435016 7.04711 0.131348C5.678 0.368225 4.36834 0.785759 3.14491 1.35967C0.677243 5.08865 0.00829845 8.725 0.342772 12.3097C1.97946 13.532 3.56561 14.2744 5.12499 14.7603C5.51001 14.2304 5.85339 13.6671 6.14921 13.0734C5.58582 12.8594 5.0462 12.5952 4.53633 12.2885C4.6716 12.1883 4.80391 12.0835 4.93174 11.9757C8.04159 13.4302 11.4205 13.4302 14.4932 11.9757C14.6225 12.0835 14.7548 12.1883 14.8886 12.2885C14.3773 12.5967 13.8362 12.8609 13.2728 13.075C13.5686 13.6671 13.9105 14.2319 14.297 14.7618C15.8579 14.2759 17.4455 13.5335 19.0822 12.3097C19.4746 8.15412 18.4118 4.55116 16.2726 1.35664ZM6.57289 10.1052C5.63934 10.1052 4.87376 9.23363 4.87376 8.17233C4.87376 7.11103 5.62299 6.23801 6.57289 6.23801C7.52281 6.23801 8.28836 7.1095 8.27202 8.17233C8.27349 9.23363 7.52281 10.1052 6.57289 10.1052ZM12.8521 10.1052C11.9185 10.1052 11.1529 9.23363 11.1529 8.17233C11.1529 7.11103 11.9022 6.23801 12.8521 6.23801C13.802 6.23801 14.5675 7.1095 14.5512 8.17233C14.5512 9.23363 13.802 10.1052 12.8521 10.1052Z" fill="#0B0B0C"/>
</svg>
