<svg width="64" height="64" viewBox="0 0 64 64" fill="none" xmlns="http://www.w3.org/2000/svg">
<g clip-path="url(#clip0_188_291)">
<path d="M51.3867 14.2148C47.84 12.5614 44 11.3614 40 10.6681C39.9649 10.667 39.93 10.6736 39.8978 10.6874C39.8655 10.7012 39.8367 10.7219 39.8133 10.7481C39.3333 11.6281 38.7733 12.7748 38.4 13.6548C34.1573 13.0148 29.8427 13.0148 25.6 13.6548C25.2267 12.7481 24.6667 11.6281 24.16 10.7481C24.1333 10.6948 24.0533 10.6681 23.9733 10.6681C19.9733 11.3614 16.16 12.5614 12.5867 14.2148C12.56 14.2148 12.5333 14.2414 12.5067 14.2681C5.25332 25.1214 3.25332 35.6814 4.23999 46.1348C4.23999 46.1881 4.26665 46.2414 4.31999 46.2681C9.11999 49.7881 13.7333 51.9214 18.2933 53.3348C18.3733 53.3614 18.4533 53.3348 18.48 53.2814C19.5467 51.8148 20.5067 50.2681 21.3333 48.6414C21.3867 48.5348 21.3333 48.4281 21.2267 48.4014C19.7067 47.8148 18.2667 47.1214 16.8533 46.3214C16.7467 46.2681 16.7467 46.1081 16.8267 46.0281C17.12 45.8148 17.4133 45.5748 17.7067 45.3614C17.76 45.3081 17.84 45.3081 17.8933 45.3348C27.0667 49.5214 36.96 49.5214 46.0267 45.3348C46.08 45.3081 46.16 45.3081 46.2133 45.3614C46.5067 45.6014 46.8 45.8148 47.0933 46.0548C47.2 46.1348 47.2 46.2948 47.0667 46.3481C45.68 47.1748 44.2133 47.8414 42.6933 48.4281C42.5867 48.4548 42.56 48.5881 42.5867 48.6681C43.44 50.2948 44.4 51.8414 45.44 53.3081C45.52 53.3348 45.6 53.3614 45.68 53.3348C50.2667 51.9214 54.88 49.7881 59.68 46.2681C59.7333 46.2414 59.76 46.1881 59.76 46.1348C60.9333 34.0548 57.8133 23.5748 51.4933 14.2681C51.4667 14.2414 51.44 14.2148 51.3867 14.2148ZM22.72 39.7614C19.9733 39.7614 17.68 37.2281 17.68 34.1081C17.68 30.9881 19.92 28.4548 22.72 28.4548C25.5467 28.4548 27.7867 31.0148 27.76 34.1081C27.76 37.2281 25.52 39.7614 22.72 39.7614ZM41.3067 39.7614C38.56 39.7614 36.2667 37.2281 36.2667 34.1081C36.2667 30.9881 38.5067 28.4548 41.3067 28.4548C44.1333 28.4548 46.3733 31.0148 46.3467 34.1081C46.3467 37.2281 44.1333 39.7614 41.3067 39.7614Z" fill="#B380C8"/>
</g>
<defs>
<clipPath id="clip0_188_291">
<rect width="64" height="64" fill="white"/>
</clipPath>
</defs>
</svg>
