<svg width="64" height="64" viewBox="0 0 64 64" fill="none" xmlns="http://www.w3.org/2000/svg">
<g clip-path="url(#clip0_188_290)">
<path d="M20.8 5.33301H43.2C51.7334 5.33301 58.6667 12.2663 58.6667 20.7997V43.1997C58.6667 47.3017 57.0372 51.2357 54.1366 54.1363C51.2361 57.0368 47.3021 58.6663 43.2 58.6663H20.8C12.2667 58.6663 5.33337 51.733 5.33337 43.1997V20.7997C5.33337 16.6977 6.96289 12.7637 9.86346 9.86309C12.764 6.96253 16.698 5.33301 20.8 5.33301M20.2667 10.6663C17.7206 10.6663 15.2788 11.6778 13.4785 13.4781C11.6781 15.2785 10.6667 17.7203 10.6667 20.2663V43.733C10.6667 49.0397 14.96 53.333 20.2667 53.333H43.7334C46.2795 53.333 48.7213 52.3216 50.5216 50.5212C52.322 48.7209 53.3334 46.2791 53.3334 43.733V20.2663C53.3334 14.9597 49.04 10.6663 43.7334 10.6663H20.2667ZM46 14.6663C46.8841 14.6663 47.7319 15.0175 48.3571 15.6427C48.9822 16.2678 49.3334 17.1156 49.3334 17.9997C49.3334 18.8837 48.9822 19.7316 48.3571 20.3567C47.7319 20.9818 46.8841 21.333 46 21.333C45.116 21.333 44.2681 20.9818 43.643 20.3567C43.0179 19.7316 42.6667 18.8837 42.6667 17.9997C42.6667 17.1156 43.0179 16.2678 43.643 15.6427C44.2681 15.0175 45.116 14.6663 46 14.6663ZM32 18.6663C35.5363 18.6663 38.9276 20.0711 41.4281 22.5716C43.9286 25.0721 45.3334 28.4635 45.3334 31.9997C45.3334 35.5359 43.9286 38.9273 41.4281 41.4278C38.9276 43.9283 35.5363 45.333 32 45.333C28.4638 45.333 25.0724 43.9283 22.572 41.4278C20.0715 38.9273 18.6667 35.5359 18.6667 31.9997C18.6667 28.4635 20.0715 25.0721 22.572 22.5716C25.0724 20.0711 28.4638 18.6663 32 18.6663M32 23.9997C29.8783 23.9997 27.8435 24.8425 26.3432 26.3428C24.8429 27.8431 24 29.8779 24 31.9997C24 34.1214 24.8429 36.1562 26.3432 37.6565C27.8435 39.1568 29.8783 39.9997 32 39.9997C34.1218 39.9997 36.1566 39.1568 37.6569 37.6565C39.1572 36.1562 40 34.1214 40 31.9997C40 29.8779 39.1572 27.8431 37.6569 26.3428C36.1566 24.8425 34.1218 23.9997 32 23.9997Z" fill="#B380C8"/>
</g>
<defs>
<clipPath id="clip0_188_290">
<rect width="64" height="64" fill="white"/>
</clipPath>
</defs>
</svg>
