<svg width="20" height="20" viewBox="0 0 20 20" fill="none" xmlns="http://www.w3.org/2000/svg">
<path d="M13.3177 9.6126C13.3177 10.2107 13.1404 10.7953 12.8081 11.2926C12.4758 11.7899 12.0035 12.1775 11.451 12.4064C10.8984 12.6353 10.2904 12.6952 9.7038 12.5785C9.1172 12.4618 8.57837 12.1738 8.15546 11.7509C7.73254 11.328 7.44454 10.7891 7.32785 10.2026C7.21117 9.61595 7.27106 9.00793 7.49994 8.45536C7.72882 7.9028 8.11641 7.43051 8.61371 7.09823C9.111 6.76595 9.69566 6.5886 10.2937 6.5886C11.0955 6.58951 11.8641 6.90841 12.431 7.47532C12.9979 8.04223 13.3168 8.81086 13.3177 9.6126ZM19.7437 5.4546V13.7706C19.7422 15.1736 19.1841 16.5188 18.192 17.5109C17.1999 18.5029 15.8548 19.061 14.4517 19.0626H6.13575C4.73271 19.061 3.38759 18.5029 2.3955 17.5109C1.4034 16.5188 0.845339 15.1736 0.84375 13.7706V5.4546C0.845339 4.05156 1.4034 2.70644 2.3955 1.71434C3.38759 0.722245 4.73271 0.164187 6.13575 0.162598H14.4517C15.8548 0.164187 17.1999 0.722245 18.192 1.71434C19.1841 2.70644 19.7422 4.05156 19.7437 5.4546ZM14.8297 9.6126C14.8297 8.71546 14.5637 7.83847 14.0653 7.09253C13.5669 6.34659 12.8584 5.7652 12.0296 5.42188C11.2008 5.07856 10.2887 4.98873 9.40882 5.16376C8.52892 5.33878 7.72068 5.77079 7.08631 6.40516C6.45194 7.03953 6.01993 7.84777 5.84491 8.72767C5.66989 9.60757 5.75971 10.5196 6.10303 11.3484C6.44635 12.1773 7.02774 12.8857 7.77368 13.3841C8.51962 13.8826 9.39661 14.1486 10.2937 14.1486C11.4964 14.1472 12.6493 13.6689 13.4997 12.8185C14.3501 11.9682 14.8284 10.8152 14.8297 9.6126ZM16.3417 4.6986C16.3417 4.47431 16.2752 4.25507 16.1506 4.06858C16.026 3.8821 15.8489 3.73675 15.6417 3.65092C15.4345 3.56509 15.2065 3.54263 14.9865 3.58639C14.7665 3.63014 14.5645 3.73815 14.4059 3.89674C14.2473 4.05533 14.1393 4.25739 14.0955 4.47736C14.0518 4.69734 14.0742 4.92535 14.1601 5.13256C14.2459 5.33977 14.3912 5.51688 14.5777 5.64148C14.7642 5.76609 14.9835 5.8326 15.2077 5.8326C15.5085 5.8326 15.7969 5.71312 16.0096 5.50046C16.2223 5.28779 16.3417 4.99935 16.3417 4.6986Z" fill="#0B0B0C"/>
</svg>
