<svg width="64" height="64" viewBox="0 0 64 64" fill="none" xmlns="http://www.w3.org/2000/svg">
<g clip-path="url(#clip0_183_1250)">
<path d="M20.7997 5.33325H43.1997C51.733 5.33325 58.6663 12.2666 58.6663 20.7999V43.1999C58.6663 47.3019 57.0368 51.2359 54.1363 54.1365C51.2357 57.0371 47.3017 58.6666 43.1997 58.6666H20.7997C12.2663 58.6666 5.33301 51.7333 5.33301 43.1999V20.7999C5.33301 16.6979 6.96253 12.7639 9.86309 9.86333C12.7637 6.96277 16.6977 5.33325 20.7997 5.33325M20.2663 10.6666C17.7203 10.6666 15.2785 11.678 13.4781 13.4784C11.6778 15.2787 10.6663 17.7205 10.6663 20.2666V43.7333C10.6663 49.0399 14.9597 53.3333 20.2663 53.3333H43.733C46.2791 53.3333 48.7209 52.3218 50.5212 50.5215C52.3216 48.7211 53.333 46.2793 53.333 43.7333V20.2666C53.333 14.9599 49.0397 10.6666 43.733 10.6666H20.2663ZM45.9997 14.6666C46.8837 14.6666 47.7316 15.0178 48.3567 15.6429C48.9818 16.268 49.333 17.1159 49.333 17.9999C49.333 18.884 48.9818 19.7318 48.3567 20.3569C47.7316 20.9821 46.8837 21.3333 45.9997 21.3333C45.1156 21.3333 44.2678 20.9821 43.6427 20.3569C43.0175 19.7318 42.6663 18.884 42.6663 17.9999C42.6663 17.1159 43.0175 16.268 43.6427 15.6429C44.2678 15.0178 45.1156 14.6666 45.9997 14.6666ZM31.9997 18.6666C35.5359 18.6666 38.9273 20.0713 41.4278 22.5718C43.9283 25.0723 45.333 28.4637 45.333 31.9999C45.333 35.5361 43.9283 38.9275 41.4278 41.428C38.9273 43.9285 35.5359 45.3333 31.9997 45.3333C28.4635 45.3333 25.0721 43.9285 22.5716 41.428C20.0711 38.9275 18.6663 35.5361 18.6663 31.9999C18.6663 28.4637 20.0711 25.0723 22.5716 22.5718C25.0721 20.0713 28.4635 18.6666 31.9997 18.6666M31.9997 23.9999C29.8779 23.9999 27.8431 24.8428 26.3428 26.3431C24.8425 27.8434 23.9997 29.8782 23.9997 31.9999C23.9997 34.1217 24.8425 36.1565 26.3428 37.6568C27.8431 39.1571 29.8779 39.9999 31.9997 39.9999C34.1214 39.9999 36.1562 39.1571 37.6565 37.6568C39.1568 36.1565 39.9997 34.1217 39.9997 31.9999C39.9997 29.8782 39.1568 27.8434 37.6565 26.3431C36.1562 24.8428 34.1214 23.9999 31.9997 23.9999Z" fill="#839D80"/>
</g>
<defs>
<clipPath id="clip0_183_1250">
<rect width="64" height="64" fill="white"/>
</clipPath>
</defs>
</svg>
