<svg width="64" height="64" viewBox="0 0 64 64" fill="none" xmlns="http://www.w3.org/2000/svg">
<path d="M20.7999 5.33301H43.1999C51.7333 5.33301 58.6666 12.2663 58.6666 20.7997V43.1997C58.6666 47.3017 57.0371 51.2357 54.1365 54.1363C51.2359 57.0368 47.3019 58.6663 43.1999 58.6663H20.7999C12.2666 58.6663 5.33325 51.733 5.33325 43.1997V20.7997C5.33325 16.6977 6.96277 12.7637 9.86333 9.86309C12.7639 6.96253 16.6979 5.33301 20.7999 5.33301M20.2666 10.6663C17.7205 10.6663 15.2787 11.6778 13.4784 13.4781C11.678 15.2785 10.6666 17.7203 10.6666 20.2663V43.733C10.6666 49.0397 14.9599 53.333 20.2666 53.333H43.7333C46.2793 53.333 48.7211 52.3216 50.5215 50.5212C52.3218 48.7209 53.3333 46.2791 53.3333 43.733V20.2663C53.3333 14.9597 49.0399 10.6663 43.7333 10.6663H20.2666ZM45.9999 14.6663C46.884 14.6663 47.7318 15.0175 48.3569 15.6427C48.9821 16.2678 49.3333 17.1156 49.3333 17.9997C49.3333 18.8837 48.9821 19.7316 48.3569 20.3567C47.7318 20.9818 46.884 21.333 45.9999 21.333C45.1159 21.333 44.268 20.9818 43.6429 20.3567C43.0178 19.7316 42.6666 18.8837 42.6666 17.9997C42.6666 17.1156 43.0178 16.2678 43.6429 15.6427C44.268 15.0175 45.1159 14.6663 45.9999 14.6663ZM31.9999 18.6663C35.5361 18.6663 38.9275 20.0711 41.428 22.5716C43.9285 25.0721 45.3333 28.4635 45.3333 31.9997C45.3333 35.5359 43.9285 38.9273 41.428 41.4278C38.9275 43.9283 35.5361 45.333 31.9999 45.333C28.4637 45.333 25.0723 43.9283 22.5718 41.4278C20.0713 38.9273 18.6666 35.5359 18.6666 31.9997C18.6666 28.4635 20.0713 25.0721 22.5718 22.5716C25.0723 20.0711 28.4637 18.6663 31.9999 18.6663M31.9999 23.9997C29.8782 23.9997 27.8434 24.8425 26.3431 26.3428C24.8428 27.8431 23.9999 29.8779 23.9999 31.9997C23.9999 34.1214 24.8428 36.1562 26.3431 37.6565C27.8434 39.1568 29.8782 39.9997 31.9999 39.9997C34.1217 39.9997 36.1565 39.1568 37.6568 37.6565C39.1571 36.1562 39.9999 34.1214 39.9999 31.9997C39.9999 29.8779 39.1571 27.8431 37.6568 26.3428C36.1565 24.8425 34.1217 23.9997 31.9999 23.9997Z" fill="#FFECA9"/>
</svg>
