<svg width="20" height="20" viewBox="0 0 20 20" fill="none" xmlns="http://www.w3.org/2000/svg">
<g clip-path="url(#clip0_484_20)">
<path d="M17.6671 0.162598H1.72028C0.904475 0.162598 0.243713 0.823359 0.243713 1.63916V17.586C0.243713 18.4018 0.904475 19.0626 1.72028 19.0626H17.6671C18.4829 19.0626 19.1437 18.4018 19.1437 17.586V1.63916C19.1437 0.823359 18.4829 0.162598 17.6671 0.162598ZM7.05067 13.5661H5.20865V7.67092H7.05067V13.5661ZM6.07983 6.93264H6.06506C5.39692 6.93264 4.96502 6.48229 4.96502 5.91012C4.96502 5.32688 5.41168 4.8876 6.0909 4.8876C6.77012 4.8876 7.18725 5.32688 7.20201 5.91012C7.2057 6.47859 6.77381 6.93264 6.07983 6.93264ZM14.4187 13.5661H12.3294V10.517C12.3294 9.71965 12.0045 9.17332 11.2847 9.17332C10.7347 9.17332 10.4283 9.54246 10.288 9.89684C10.2363 10.0223 10.2437 10.1995 10.2437 10.3804V13.5661H8.17285C8.17285 13.5661 8.19869 8.16187 8.17285 7.67092H10.2437V8.59746C10.3655 8.19141 11.0263 7.61555 12.0821 7.61555C13.3925 7.61555 14.4187 8.46457 14.4187 10.2881V13.5661Z" fill="#0B0B0C"/>
</g>
<defs>
<clipPath id="clip0_484_20">
<rect width="18.9" height="18.9" fill="white" transform="translate(0.243713 0.162598)"/>
</clipPath>
</defs>
</svg>
