<svg width="87" height="84" viewBox="0 0 87 84" fill="none" xmlns="http://www.w3.org/2000/svg">
<path d="M86.5 42C86.5 64.9034 67.2649 83.5 43.5 83.5C19.7351 83.5 0.5 64.9034 0.5 42C0.5 19.0966 19.7351 0.5 43.5 0.5C67.2649 0.5 86.5 19.0966 86.5 42Z" fill="url(#paint0_linear_24_34870)" stroke="white"/>
<mask id="path-2-inside-1_24_34870" fill="white">
<path d="M42.1925 21.4381C42.1997 21.379 42.2085 21.3209 42.2188 21.2641C42.252 21.0819 42.3008 20.9163 42.3622 20.7768C42.4236 20.6373 42.4965 20.5267 42.5767 20.4512C42.6569 20.3758 42.7429 20.3369 42.8298 20.3369C42.9166 20.3369 43.0026 20.3758 43.0828 20.4512C43.1631 20.5267 43.236 20.6374 43.2974 20.7768C43.3588 20.9163 43.4075 21.0819 43.4407 21.2641C43.4515 21.3232 43.4606 21.3838 43.4679 21.4453L45.1063 47.433C46.646 47.5269 48.1678 47.7109 49.6538 47.9818L56.8525 29.3629C56.8527 29.3624 56.8533 29.3621 56.8539 29.3623C56.8545 29.3624 56.8551 29.3621 56.8552 29.3616C56.8952 29.2544 56.9427 29.1512 56.9964 29.0549C57.0747 28.9143 57.1649 28.791 57.2616 28.6921C57.3584 28.5932 57.4599 28.5207 57.5604 28.4786C57.6609 28.4365 57.7583 28.4256 57.8472 28.4467C57.936 28.4678 58.0146 28.5204 58.0783 28.6015C58.142 28.6825 58.1897 28.7905 58.2185 28.9192C58.2474 29.0479 58.257 29.1949 58.2466 29.3516C58.2447 29.3805 58.2421 29.4095 58.2389 29.4388L53.6826 50.4109C53.6354 50.6279 53.5231 50.8185 53.3669 50.9711C53.3301 51.031 53.2889 51.09 53.2432 51.1476C52.698 51.8351 51.6804 52.0975 50.7638 51.8442C48.9726 51.3493 47.0857 51.022 45.1583 50.8714V64.5975H40.5135V50.8517C38.5629 50.9874 36.6502 51.3039 34.8328 51.7921C33.9133 52.0391 32.8976 51.7677 32.3612 51.0744C32.1615 50.8163 32.0507 50.5325 32.0206 50.2495L27.483 29.3639C27.4809 29.3427 27.4792 29.3215 27.4778 29.3005C27.4675 29.1438 27.477 28.9968 27.5059 28.8681C27.5348 28.7394 27.5824 28.6315 27.6461 28.5504C27.7099 28.4693 27.7884 28.4167 27.8773 28.3957C27.9661 28.3746 28.0636 28.3854 28.164 28.4275C28.2645 28.4696 28.366 28.5421 28.4628 28.641C28.5596 28.7399 28.6497 28.8632 28.7281 29.0038C28.7814 29.0995 28.8286 29.2021 28.8685 29.3086C28.8689 29.3097 28.8702 29.3103 28.8714 29.31C28.8727 29.3097 28.874 29.3103 28.8744 29.3114L36.0711 47.925C37.5382 47.6706 39.0384 47.5008 40.5546 47.4182L42.1925 21.4381Z"/>
</mask>
<path d="M42.1925 21.4381C42.1997 21.379 42.2085 21.3209 42.2188 21.2641C42.252 21.0819 42.3008 20.9163 42.3622 20.7768C42.4236 20.6373 42.4965 20.5267 42.5767 20.4512C42.6569 20.3758 42.7429 20.3369 42.8298 20.3369C42.9166 20.3369 43.0026 20.3758 43.0828 20.4512C43.1631 20.5267 43.236 20.6374 43.2974 20.7768C43.3588 20.9163 43.4075 21.0819 43.4407 21.2641C43.4515 21.3232 43.4606 21.3838 43.4679 21.4453L45.1063 47.433C46.646 47.5269 48.1678 47.7109 49.6538 47.9818L56.8525 29.3629C56.8527 29.3624 56.8533 29.3621 56.8539 29.3623C56.8545 29.3624 56.8551 29.3621 56.8552 29.3616C56.8952 29.2544 56.9427 29.1512 56.9964 29.0549C57.0747 28.9143 57.1649 28.791 57.2616 28.6921C57.3584 28.5932 57.4599 28.5207 57.5604 28.4786C57.6609 28.4365 57.7583 28.4256 57.8472 28.4467C57.936 28.4678 58.0146 28.5204 58.0783 28.6015C58.142 28.6825 58.1897 28.7905 58.2185 28.9192C58.2474 29.0479 58.257 29.1949 58.2466 29.3516C58.2447 29.3805 58.2421 29.4095 58.2389 29.4388L53.6826 50.4109C53.6354 50.6279 53.5231 50.8185 53.3669 50.9711C53.3301 51.031 53.2889 51.09 53.2432 51.1476C52.698 51.8351 51.6804 52.0975 50.7638 51.8442C48.9726 51.3493 47.0857 51.022 45.1583 50.8714V64.5975H40.5135V50.8517C38.5629 50.9874 36.6502 51.3039 34.8328 51.7921C33.9133 52.0391 32.8976 51.7677 32.3612 51.0744C32.1615 50.8163 32.0507 50.5325 32.0206 50.2495L27.483 29.3639C27.4809 29.3427 27.4792 29.3215 27.4778 29.3005C27.4675 29.1438 27.477 28.9968 27.5059 28.8681C27.5348 28.7394 27.5824 28.6315 27.6461 28.5504C27.7099 28.4693 27.7884 28.4167 27.8773 28.3957C27.9661 28.3746 28.0636 28.3854 28.164 28.4275C28.2645 28.4696 28.366 28.5421 28.4628 28.641C28.5596 28.7399 28.6497 28.8632 28.7281 29.0038C28.7814 29.0995 28.8286 29.2021 28.8685 29.3086C28.8689 29.3097 28.8702 29.3103 28.8714 29.31C28.8727 29.3097 28.874 29.3103 28.8744 29.3114L36.0711 47.925C37.5382 47.6706 39.0384 47.5008 40.5546 47.4182L42.1925 21.4381Z" fill="white"/>
<path d="M42.2188 21.2641L43.2026 21.4435L43.2026 21.4435L42.2188 21.2641ZM42.1925 21.4381L41.1998 21.317L41.1963 21.346L41.1944 21.3751L42.1925 21.4381ZM42.3622 20.7768L43.2774 21.1798L43.2774 21.1798L42.3622 20.7768ZM42.5767 20.4512L43.2619 21.1796L43.2619 21.1796L42.5767 20.4512ZM43.0828 20.4512L43.768 19.7229L43.768 19.7229L43.0828 20.4512ZM43.2974 20.7768L44.2126 20.3739L44.2126 20.3738L43.2974 20.7768ZM43.4407 21.2641L42.4569 21.4435L42.4569 21.4435L43.4407 21.2641ZM43.4679 21.4453L44.466 21.3824L44.4642 21.3544L44.4609 21.3266L43.4679 21.4453ZM45.1063 47.433L44.1082 47.4959L44.1638 48.3773L45.0454 48.4311L45.1063 47.433ZM49.6538 47.9818L49.4744 48.9656L50.2882 49.114L50.5865 48.3425L49.6538 47.9818ZM56.8525 29.3629L55.9207 29.0001L55.9198 29.0023L56.8525 29.3629ZM56.8539 29.3623L57.0854 28.3894L57.0841 28.3891L56.8539 29.3623ZM56.8552 29.3616L55.9183 29.0121L55.9179 29.0133L56.8552 29.3616ZM56.9964 29.0549L57.8699 29.5417L57.8699 29.5417L56.9964 29.0549ZM57.2616 28.6921L57.9763 29.3916L57.9763 29.3916L57.2616 28.6921ZM57.5604 28.4786L57.9469 29.4009L57.9469 29.4009L57.5604 28.4786ZM57.8472 28.4467L57.6162 29.4197L57.6162 29.4197L57.8472 28.4467ZM58.0783 28.6015L58.8645 27.9835L58.8645 27.9835L58.0783 28.6015ZM58.2185 28.9192L59.1943 28.7003L59.1943 28.7002L58.2185 28.9192ZM58.2466 29.3516L57.2488 29.2857V29.2857L58.2466 29.3516ZM58.2389 29.4388L59.2161 29.6511L59.2272 29.6002L59.2329 29.5485L58.2389 29.4388ZM53.6826 50.4109L54.6598 50.6232V50.6232L53.6826 50.4109ZM53.3669 50.9711L52.668 50.2558L52.5795 50.3424L52.5147 50.4478L53.3669 50.9711ZM53.2432 51.1476L54.0267 51.7689L54.0268 51.7689L53.2432 51.1476ZM50.7638 51.8442L50.4974 52.8081L50.7638 51.8442ZM45.1583 50.8714L45.2362 49.8744L44.1583 49.7902V50.8714H45.1583ZM45.1583 64.5975V65.5975H46.1583V64.5975H45.1583ZM40.5135 64.5975H39.5135V65.5975H40.5135V64.5975ZM40.5135 50.8517H41.5135V49.7798L40.4441 49.8541L40.5135 50.8517ZM34.8328 51.7921L35.0922 52.7579L34.8328 51.7921ZM32.3612 51.0744L33.1521 50.4625L32.3612 51.0744ZM32.0206 50.2495L33.015 50.1437L33.0093 50.09L32.9978 50.0372L32.0206 50.2495ZM27.483 29.3639L26.4878 29.4619L26.4935 29.5196L26.5058 29.5762L27.483 29.3639ZM27.4778 29.3005L28.4756 29.2346L28.4756 29.2346L27.4778 29.3005ZM27.5059 28.8681L28.4816 29.0871L28.4816 29.0871L27.5059 28.8681ZM27.6461 28.5504L28.4323 29.1684L28.4324 29.1684L27.6461 28.5504ZM27.8773 28.3957L27.6463 27.4227H27.6463L27.8773 28.3957ZM28.4628 28.641L29.1774 27.9416L29.1774 27.9416L28.4628 28.641ZM28.7281 29.0038L29.6016 28.517L28.7281 29.0038ZM28.8685 29.3086L27.9318 29.6589L27.9319 29.659L28.8685 29.3086ZM28.8714 29.31L28.6403 28.337L28.64 28.3371L28.8714 29.31ZM28.8744 29.3114L29.8071 28.9507L29.807 28.9505L28.8744 29.3114ZM36.0711 47.925L35.1384 48.2856L35.4341 49.0504L36.2419 48.9103L36.0711 47.925ZM40.5546 47.4182L40.609 48.4167L41.4967 48.3684L41.5526 47.4811L40.5546 47.4182ZM41.235 21.0846C41.221 21.1615 41.2093 21.2391 41.1998 21.317L43.1851 21.5591C43.19 21.5189 43.1959 21.4803 43.2026 21.4435L41.235 21.0846ZM41.4469 20.3738C41.3481 20.5983 41.2794 20.8414 41.235 21.0847L43.2026 21.4435C43.2247 21.3223 43.2534 21.2343 43.2774 21.1798L41.4469 20.3738ZM41.8915 19.7229C41.6838 19.9183 41.5431 20.1556 41.4469 20.3739L43.2774 21.1798C43.283 21.167 43.2878 21.1573 43.2915 21.1506C43.2951 21.1438 43.2972 21.1405 43.2974 21.1403C43.2976 21.14 43.2953 21.1435 43.2899 21.15C43.2846 21.1565 43.2754 21.1668 43.2619 21.1796L41.8915 19.7229ZM42.8298 19.3369C42.425 19.3369 42.1053 19.5217 41.8915 19.7229L43.2619 21.1796C43.2085 21.2298 43.0608 21.3369 42.8298 21.3369V19.3369ZM43.768 19.7229C43.5542 19.5217 43.2345 19.3369 42.8298 19.3369V21.3369C42.5987 21.3369 42.451 21.2298 42.3976 21.1796L43.768 19.7229ZM44.2126 20.3738C44.1165 20.1556 43.9758 19.9183 43.768 19.7229L42.3976 21.1796C42.3841 21.1668 42.3749 21.1565 42.3696 21.15C42.3643 21.1435 42.3619 21.14 42.3621 21.1403C42.3623 21.1405 42.3644 21.1438 42.3681 21.1506C42.3717 21.1573 42.3765 21.167 42.3822 21.1798L44.2126 20.3738ZM44.4245 21.0847C44.3801 20.8414 44.3114 20.5983 44.2126 20.3739L42.3821 21.1798C42.4061 21.2343 42.4348 21.3223 42.4569 21.4435L44.4245 21.0847ZM44.4609 21.3266C44.4512 21.2455 44.4391 21.1647 44.4245 21.0847L42.4569 21.4435C42.4639 21.4818 42.47 21.522 42.475 21.564L44.4609 21.3266ZM46.1043 47.3701L44.466 21.3824L42.4699 21.5082L44.1082 47.4959L46.1043 47.3701ZM45.0454 48.4311C46.546 48.5227 48.0282 48.7019 49.4744 48.9656L49.8332 46.9981C48.3073 46.7198 46.7459 46.5312 45.1672 46.4348L45.0454 48.4311ZM55.9198 29.0023L48.7211 47.6212L50.5865 48.3425L57.7853 29.7235L55.9198 29.0023ZM57.0841 28.3891C56.6884 28.2955 56.1335 28.4533 55.9207 29.0001L57.7844 29.7257C57.5719 30.2715 57.0182 30.4287 56.6237 30.3354L57.0841 28.3891ZM55.9179 29.0133C56.1253 28.4553 56.6881 28.2949 57.0854 28.3894L56.6224 30.3351C57.0208 30.4299 57.5849 30.269 57.7926 29.71L55.9179 29.0133ZM56.1229 28.5681C56.0435 28.7104 55.9752 28.8597 55.9183 29.0121L57.7922 29.7112C57.8153 29.6492 57.8418 29.592 57.8699 29.5417L56.1229 28.5681ZM56.547 27.9926C56.3789 28.1644 56.2376 28.3622 56.1228 28.5681L57.8699 29.5417C57.9119 29.4663 57.9509 29.4176 57.9763 29.3916L56.547 27.9926ZM57.1739 27.5563C56.9219 27.6619 56.7129 27.8231 56.547 27.9927L57.9763 29.3916C57.9884 29.3792 57.9939 29.3756 57.9911 29.3776C57.9886 29.3794 57.9742 29.3894 57.9469 29.4009L57.1739 27.5563ZM58.0781 27.4738C57.7459 27.3949 57.431 27.4485 57.1739 27.5563L57.9469 29.4009C57.8908 29.4244 57.7707 29.4564 57.6162 29.4197L58.0781 27.4738ZM58.8645 27.9835C58.6801 27.749 58.415 27.5537 58.0781 27.4738L57.6162 29.4197C57.457 29.3819 57.349 29.2918 57.2921 29.2194L58.8645 27.9835ZM59.1943 28.7002C59.1416 28.4654 59.0423 28.2098 58.8645 27.9835L57.2921 29.2194C57.2658 29.186 57.2524 29.1594 57.2466 29.1463C57.2408 29.1332 57.2409 29.1295 57.2428 29.1382L59.1943 28.7002ZM59.2444 29.4175C59.2599 29.1829 59.2477 28.9382 59.1943 28.7003L57.2428 29.1382C57.2472 29.1577 57.254 29.2068 57.2488 29.2857L59.2444 29.4175ZM59.2329 29.5485C59.2377 29.505 59.2415 29.4613 59.2444 29.4175L57.2488 29.2857C57.2479 29.2996 57.2466 29.3141 57.2449 29.3291L59.2329 29.5485ZM54.6598 50.6232L59.2161 29.6511L57.2617 29.2265L52.7053 50.1985L54.6598 50.6232ZM54.0658 51.6863C54.3491 51.4095 54.5674 51.0483 54.6598 50.6232L52.7053 50.1985C52.704 50.2046 52.7017 50.2114 52.6968 50.2199C52.6918 50.2288 52.683 50.2412 52.668 50.2558L54.0658 51.6863ZM52.5147 50.4478C52.4991 50.4733 52.4809 50.4995 52.4596 50.5263L54.0268 51.7689C54.0969 51.6805 54.1611 51.5888 54.2191 51.4943L52.5147 50.4478ZM52.4597 50.5263C52.2096 50.8415 51.6359 51.0477 51.0301 50.8804L50.4974 52.8081C51.7248 53.1473 53.1864 52.8286 54.0267 51.7689L52.4597 50.5263ZM51.0301 50.8804C49.1748 50.3677 47.2246 50.0298 45.2362 49.8744L45.0804 51.8684C46.9467 52.0142 48.7704 52.3309 50.4974 52.8081L51.0301 50.8804ZM44.1583 50.8714V64.5975H46.1583V50.8714H44.1583ZM45.1583 63.5975H40.5135V65.5975H45.1583V63.5975ZM41.5135 64.5975V50.8517H39.5135V64.5975H41.5135ZM40.4441 49.8541C38.4319 49.9941 36.4554 50.3207 34.5733 50.8264L35.0922 52.7579C36.845 52.287 38.6939 51.9807 40.5829 51.8493L40.4441 49.8541ZM34.5733 50.8264C33.9655 50.9897 33.396 50.7776 33.1521 50.4625L31.5703 51.6864C32.3993 52.7577 33.8611 53.0886 35.0922 52.7579L34.5733 50.8264ZM33.1521 50.4625C33.062 50.346 33.0248 50.2363 33.015 50.1437L31.0262 50.3553C31.0765 50.8286 31.2609 51.2865 31.5703 51.6864L33.1521 50.4625ZM32.9978 50.0372L28.4602 29.1516L26.5058 29.5762L31.0434 50.4618L32.9978 50.0372ZM28.4782 29.2659C28.4772 29.2552 28.4763 29.2447 28.4756 29.2346L26.48 29.3664C26.4821 29.3983 26.4847 29.4302 26.4878 29.4619L28.4782 29.2659ZM28.4756 29.2346C28.4704 29.1558 28.4772 29.1066 28.4816 29.0871L26.5301 28.6492C26.4768 28.8871 26.4645 29.1318 26.48 29.3664L28.4756 29.2346ZM28.4816 29.0871C28.4836 29.0784 28.4836 29.0821 28.4778 29.0952C28.472 29.1083 28.4586 29.135 28.4323 29.1684L26.8599 27.9324C26.6821 28.1587 26.5829 28.4143 26.5301 28.6492L28.4816 29.0871ZM28.4324 29.1684C28.3754 29.2408 28.2674 29.3308 28.1082 29.3686L27.6463 27.4227C27.3094 27.5027 27.0443 27.6979 26.8599 27.9324L28.4324 29.1684ZM28.1082 29.3686C27.9537 29.4053 27.8337 29.3733 27.7775 29.3498L28.5505 27.5052C28.2934 27.3975 27.9785 27.3438 27.6463 27.4227L28.1082 29.3686ZM27.7775 29.3498C27.7502 29.3383 27.7358 29.3283 27.7333 29.3265C27.7305 29.3245 27.736 29.3281 27.7481 29.3405L29.1774 27.9416C29.0115 27.772 28.8026 27.6108 28.5505 27.5052L27.7775 29.3498ZM27.7481 29.3405C27.7736 29.3665 27.8126 29.4153 27.8545 29.4906L29.6016 28.517C29.4868 28.3111 29.3455 28.1133 29.1774 27.9416L27.7481 29.3405ZM27.8545 29.4906C27.8824 29.5406 27.9088 29.5974 27.9318 29.6589L29.8051 28.9582C29.7484 28.8068 29.6804 28.6584 29.6016 28.517L27.8545 29.4906ZM27.9319 29.659C28.1403 30.216 28.7031 30.3779 29.1028 30.2828L28.64 28.3371C29.0372 28.2426 29.5975 28.4033 29.805 28.9582L27.9319 29.659ZM29.1025 30.2829C28.7077 30.3767 28.1534 30.219 27.9418 29.6722L29.807 28.9505C29.5946 28.4016 29.0377 28.2427 28.6403 28.337L29.1025 30.2829ZM27.9417 29.672L35.1384 48.2856L37.0038 47.5644L29.8071 28.9507L27.9417 29.672ZM36.2419 48.9103C37.6699 48.6627 39.1312 48.4972 40.609 48.4167L40.5002 46.4197C38.9456 46.5044 37.4065 46.6786 35.9003 46.9397L36.2419 48.9103ZM41.1944 21.3751L39.5566 47.3553L41.5526 47.4811L43.1905 21.501L41.1944 21.3751Z" fill="white" mask="url(#path-2-inside-1_24_34870)"/>
<defs>
<linearGradient id="paint0_linear_24_34870" x1="43.5" y1="0" x2="43.5" y2="99.1699" gradientUnits="userSpaceOnUse">
<stop offset="0.208333" stop-color="#9DB8A0"/>
<stop offset="0.453025" stop-color="#E5DDB3"/>
<stop offset="0.927083" stop-color="#EAE0B4"/>
<stop offset="1" stop-color="#39625C"/>
</linearGradient>
</defs>
</svg>
