<svg width="95" height="95" viewBox="0 0 95 95" fill="none" xmlns="http://www.w3.org/2000/svg">
<circle cx="47.5" cy="47.5" r="47.5" fill="url(#paint0_linear_268_472)"/>
<path d="M46.0721 24.2453C46.08 24.1786 46.0896 24.1128 46.1009 24.0486C46.1372 23.8425 46.1904 23.6552 46.2575 23.4975C46.3245 23.3398 46.4041 23.2147 46.4917 23.1293C46.5793 23.0439 46.6732 23 46.7681 23C46.8629 23 46.9568 23.0439 47.0444 23.1293C47.132 23.2147 47.2116 23.3398 47.2787 23.4975C47.3457 23.6552 47.3989 23.8425 47.4352 24.0486C47.447 24.1155 47.4569 24.1839 47.4649 24.2535L49.2539 53.6444C50.9352 53.7506 52.5969 53.9586 54.2196 54.2651L62.0803 33.208C62.0805 33.2074 62.0811 33.2071 62.0818 33.2072C62.0824 33.2074 62.083 33.2071 62.0832 33.2065C62.1269 33.0853 62.1787 32.9686 62.2373 32.8596C62.3229 32.7006 62.4213 32.5612 62.527 32.4493C62.6327 32.3375 62.7435 32.2554 62.8532 32.2078C62.9629 32.1602 63.0693 32.148 63.1664 32.1718C63.2634 32.1957 63.3491 32.2551 63.4187 32.3468C63.4883 32.4385 63.5403 32.5606 63.5719 32.7062C63.6034 32.8517 63.6138 33.0179 63.6025 33.1952C63.6005 33.2278 63.5977 33.2607 63.5941 33.2938L58.6188 57.0122C58.5673 57.2576 58.4446 57.4732 58.2741 57.6458C58.2339 57.7136 58.1889 57.7803 58.139 57.8454C57.5438 58.6229 56.4325 58.9197 55.4316 58.6333C53.4758 58.0735 51.4153 57.7034 49.3107 57.5331V73.0566H44.2388V57.5108C42.1088 57.6643 40.0202 58.0221 38.0357 58.5743C37.0317 58.8537 35.9226 58.5467 35.3369 57.7627C35.1188 57.4707 34.9978 57.1497 34.9649 56.8297L30.0101 33.2091C30.0078 33.1851 30.0059 33.1612 30.0044 33.1374C29.9931 32.9601 30.0035 32.794 30.0351 32.6484C30.0666 32.5028 30.1187 32.3807 30.1882 32.2891C30.2578 32.1974 30.3436 32.1379 30.4406 32.1141C30.5376 32.0902 30.644 32.1024 30.7537 32.15C30.8634 32.1977 30.9743 32.2797 31.08 32.3916C31.1856 32.5034 31.2841 32.6428 31.3696 32.8018C31.4279 32.9101 31.4794 33.0261 31.5229 33.1465C31.5234 33.1478 31.5248 33.1484 31.5262 33.1481C31.5276 33.1478 31.529 33.1484 31.5295 33.1497L39.3879 54.2008C40.9899 53.9131 42.6281 53.7211 44.2837 53.6277L46.0721 24.2453Z" fill="white"/>
<defs>
<linearGradient id="paint0_linear_268_472" x1="47.5" y1="0" x2="47.5" y2="112.156" gradientUnits="userSpaceOnUse">
<stop offset="0.25" stop-color="#B380C8"/>
<stop offset="0.661458" stop-color="#587DFF"/>
<stop offset="0.838542" stop-color="#474799"/>
</linearGradient>
</defs>
</svg>
