<svg width="215" height="59" viewBox="0 0 215 59" fill="none" xmlns="http://www.w3.org/2000/svg">
<g clip-path="url(#clip0_460_236)" filter="url(#filter0_d_460_236)">
<rect x="53.9886" y="2.5" width="156.364" height="50.2309" rx="4.05088" fill="#4454E9"/>
<path d="M16.349 42.5855C14.7602 42.5855 13.2365 42.3251 11.778 41.8042C10.3455 41.2572 9.06924 40.4498 7.94928 39.3819C6.82931 38.288 5.94376 36.9336 5.29262 35.3188C4.64148 33.6779 4.31591 31.7766 4.31591 29.6148C4.31591 26.7758 4.87589 24.3666 5.99585 22.3871C7.11582 20.3816 8.61344 18.8579 10.4887 17.8161C12.364 16.7743 14.4477 16.2534 16.7397 16.2534C18.3806 16.2534 19.8652 16.592 21.1935 17.2692C22.5479 17.9203 23.6678 18.6756 24.5534 19.5351L20.8809 23.6764C20.3079 23.1555 19.6828 22.7518 19.0057 22.4653C18.3545 22.1788 17.5992 22.0355 16.7397 22.0355C15.6979 22.0355 14.7602 22.335 13.9268 22.9341C13.0933 23.5071 12.4291 24.3406 11.9343 25.4345C11.4394 26.5284 11.192 27.8437 11.192 29.3804C11.192 30.9692 11.4394 32.3235 11.9343 33.4435C12.4291 34.5374 13.1193 35.3709 14.0049 35.9439C14.8904 36.5169 15.9062 36.8034 17.0522 36.8034C17.8857 36.8034 18.641 36.608 19.3182 36.2174C20.0214 35.8267 20.6465 35.3448 21.1935 34.7718L24.8659 38.8349C23.8241 40.0851 22.5739 41.0228 21.1153 41.6479C19.6568 42.273 18.068 42.5855 16.349 42.5855ZM37.3526 42.5855C35.6856 42.5855 33.9797 42.286 32.2346 41.6869C30.5156 41.0879 28.9398 40.1763 27.5073 38.9522L31.336 34.3421C32.2997 35.0714 33.3285 35.6704 34.4224 36.1392C35.5424 36.582 36.6754 36.8034 37.8214 36.8034C38.8372 36.8034 39.5534 36.6601 39.9701 36.3736C40.4129 36.0871 40.6343 35.7355 40.6343 35.3188C40.6343 34.8239 40.4911 34.4332 40.2046 34.1467C39.9181 33.8602 39.5013 33.5998 38.9544 33.3654C38.4074 33.131 37.7432 32.8575 36.9619 32.5449L33.7973 31.2166C32.8336 30.852 31.9351 30.3571 31.1016 29.732C30.2942 29.0809 29.6431 28.2995 29.1482 27.3879C28.6794 26.4502 28.445 25.3694 28.445 24.1452C28.445 22.6867 28.8487 21.3713 29.6561 20.1993C30.4635 19.0012 31.5965 18.0505 33.055 17.3473C34.5136 16.618 36.2066 16.2534 38.1339 16.2534C39.6446 16.2534 41.1552 16.5399 42.6659 17.1129C44.2026 17.6598 45.583 18.5063 46.8071 19.6523L43.4472 23.8717C42.5356 23.2727 41.6631 22.8169 40.8297 22.5043C39.9962 22.1918 38.9674 22.0355 37.7432 22.0355C37.014 22.0355 36.4149 22.1788 35.9461 22.4653C35.4773 22.7257 35.2429 23.1555 35.2429 23.7545C35.2429 24.1452 35.3991 24.4708 35.7117 24.7312C36.0242 24.9917 36.48 25.2391 37.0791 25.4735C37.6781 25.7079 38.3944 25.9814 39.2278 26.294L42.158 27.5051C43.304 27.9218 44.2677 28.4558 45.049 29.1069C45.8565 29.732 46.4685 30.4873 46.8853 31.3729C47.302 32.2584 47.5104 33.2872 47.5104 34.4593C47.5104 35.8918 47.1197 37.2331 46.3383 38.4833C45.5569 39.7075 44.4109 40.6972 42.9003 41.4525C41.3896 42.2079 39.5404 42.5855 37.3526 42.5855Z" fill="#4454E9"/>
<path d="M66.2338 40.5V19.9109C66.2338 18.3742 66.5073 17.0329 67.0542 15.8869C67.6272 14.7148 68.4737 13.8162 69.5937 13.1911C70.7137 12.54 72.1462 12.2144 73.8912 12.2144C74.8289 12.2144 75.7405 12.3056 76.626 12.4879C77.5376 12.6442 78.4492 12.9177 79.3608 13.3084L78.6185 15.7306C77.8371 15.366 77.1079 15.1315 76.4307 15.0274C75.7795 14.8971 75.0372 14.832 74.2038 14.832C72.5108 14.832 71.2867 15.2748 70.5313 16.1604C69.776 17.0459 69.3983 18.257 69.3983 19.7937V40.5H66.2338ZM60.8033 24.1303V21.7081L66.351 21.5127H77.3683V24.1303H60.8033ZM89.1908 40.9688C87.5239 40.9688 85.9742 40.5781 84.5416 39.7968C83.1352 39.0154 81.9892 37.8824 81.1036 36.3978C80.2441 34.9132 79.8144 33.1291 79.8144 31.0454C79.8144 28.9097 80.2441 27.0995 81.1036 25.6149C81.9892 24.1303 83.1352 22.9973 84.5416 22.216C85.9742 21.4346 87.5239 21.0439 89.1908 21.0439C90.8577 21.0439 92.3944 21.4346 93.8009 22.216C95.2334 22.9973 96.3794 24.1303 97.2389 25.6149C98.1244 27.0995 98.5672 28.9097 98.5672 31.0454C98.5672 33.1291 98.1244 34.9132 97.2389 36.3978C96.3794 37.8824 95.2334 39.0154 93.8009 39.7968C92.3944 40.5781 90.8577 40.9688 89.1908 40.9688ZM89.1908 38.3122C90.4149 38.3122 91.4828 38.0126 92.3944 37.4136C93.306 36.7885 94.0092 35.929 94.5041 34.8351C94.999 33.7412 95.2464 32.4779 95.2464 31.0454C95.2464 29.5869 94.999 28.3106 94.5041 27.2167C94.0092 26.0968 93.306 25.2373 92.3944 24.6382C91.4828 24.0131 90.4149 23.7006 89.1908 23.7006C87.9666 23.7006 86.8988 24.0131 85.9872 24.6382C85.1016 25.2373 84.3984 26.0968 83.8775 27.2167C83.3826 28.3106 83.1352 29.5869 83.1352 31.0454C83.1352 32.4779 83.3826 33.7412 83.8775 34.8351C84.3984 35.929 85.1016 36.7885 85.9872 37.4136C86.8988 38.0126 87.9666 38.3122 89.1908 38.3122ZM103.865 40.5V21.5127H106.522L106.795 26.0056H106.913C107.902 24.4689 109.126 23.2578 110.585 22.3722C112.044 21.4867 113.645 21.0439 115.39 21.0439C116.094 21.0439 116.745 21.109 117.344 21.2393C117.969 21.3434 118.568 21.5388 119.141 21.8253L118.399 24.5991C117.748 24.3647 117.188 24.1954 116.719 24.0912C116.25 23.9871 115.638 23.935 114.883 23.935C113.45 23.935 112.07 24.3517 110.741 25.1852C109.439 25.9926 108.215 27.386 107.069 29.3655V40.5H103.865ZM131.745 40.9688C129.739 40.9688 127.916 40.5781 126.275 39.7968C124.66 38.9894 123.371 37.8303 122.408 36.3197C121.47 34.783 121.001 32.9468 121.001 30.811C121.001 28.7013 121.483 26.8912 122.447 25.3805C123.41 23.8438 124.66 22.6718 126.197 21.8643C127.734 21.0569 129.362 20.6532 131.081 20.6532C133.086 20.6532 134.766 21.07 136.121 21.9034C137.475 22.7108 138.491 23.8178 139.168 25.2242C139.871 26.6047 140.223 28.1804 140.223 29.9515C140.223 30.4724 140.184 30.9803 140.106 31.4752C140.053 31.944 140.001 32.2956 139.949 32.53H125.26V28.6623H136.081L135.183 29.7562C135.183 28.1934 134.844 27.0214 134.167 26.24C133.516 25.4326 132.552 25.0289 131.276 25.0289C130.338 25.0289 129.518 25.2373 128.815 25.654C128.112 26.0707 127.565 26.7088 127.174 27.5683C126.783 28.4278 126.588 29.5087 126.588 30.811C126.588 32.1394 126.822 33.2333 127.291 34.0928C127.76 34.9262 128.437 35.5513 129.323 35.9681C130.208 36.3848 131.276 36.5932 132.526 36.5932C133.412 36.5932 134.245 36.4759 135.027 36.2415C135.834 36.0071 136.668 35.6685 137.527 35.2258L139.441 38.7029C138.321 39.4061 137.084 39.9661 135.73 40.3828C134.375 40.7735 133.047 40.9688 131.745 40.9688ZM148.295 40.9688C146.992 40.9688 145.859 40.7084 144.896 40.1875C143.958 39.6665 143.229 38.9633 142.708 38.0778C142.187 37.1922 141.926 36.2025 141.926 35.1086C141.926 32.9468 142.903 31.2929 144.857 30.1469C146.836 29.0009 150.118 28.2976 154.702 28.0372C154.624 27.4381 154.428 26.9302 154.116 26.5135C153.803 26.0968 153.348 25.7842 152.748 25.5758C152.175 25.3414 151.446 25.2242 150.561 25.2242C149.936 25.2242 149.31 25.3024 148.685 25.4586C148.06 25.5889 147.409 25.7972 146.732 26.0837C146.081 26.3442 145.391 26.6567 144.661 27.0214L142.63 23.2708C143.515 22.7499 144.44 22.2941 145.404 21.9034C146.393 21.5127 147.409 21.2132 148.451 21.0048C149.519 20.7704 150.6 20.6532 151.694 20.6532C153.517 20.6532 155.08 20.9788 156.382 21.6299C157.684 22.255 158.687 23.2187 159.39 24.521C160.093 25.7972 160.445 27.4251 160.445 29.4046V40.5H155.757L155.327 38.3122H155.171C154.207 39.0414 153.139 39.6665 151.967 40.1875C150.795 40.7084 149.571 40.9688 148.295 40.9688ZM150.131 36.515C150.99 36.515 151.798 36.3457 152.553 36.0071C153.308 35.6425 154.025 35.1997 154.702 34.6788V31.4752C152.801 31.5794 151.316 31.7747 150.248 32.0612C149.206 32.3477 148.477 32.7124 148.06 33.1551C147.644 33.5979 147.435 34.1058 147.435 34.6788C147.435 35.0695 147.539 35.4081 147.748 35.6946C147.982 35.9811 148.295 36.1894 148.685 36.3197C149.102 36.4499 149.584 36.515 150.131 36.515ZM173.635 40.9688C171.603 40.9688 169.767 40.5781 168.126 39.7968C166.511 38.9894 165.222 37.8303 164.258 36.3197C163.321 34.783 162.852 32.9468 162.852 30.811C162.852 28.6753 163.373 26.8521 164.415 25.3414C165.456 23.8047 166.824 22.6457 168.517 21.8643C170.236 21.0569 172.085 20.6532 174.065 20.6532C175.601 20.6532 176.995 20.9007 178.245 21.3955C179.495 21.8643 180.524 22.4894 181.331 23.2708L178.675 26.826C177.919 26.3051 177.19 25.9275 176.487 25.6931C175.81 25.4326 175.106 25.3024 174.377 25.3024C173.283 25.3024 172.306 25.5238 171.447 25.9665C170.587 26.4093 169.923 27.0474 169.454 27.8809C168.986 28.7143 168.751 29.6911 168.751 30.811C168.751 31.931 168.973 32.9077 169.415 33.7412C169.884 34.5746 170.522 35.2127 171.33 35.6555C172.163 36.0983 173.114 36.3197 174.182 36.3197C175.198 36.3197 176.122 36.1374 176.956 35.7727C177.815 35.4081 178.597 34.9783 179.3 34.4835L181.605 38.1168C180.459 39.0805 179.17 39.7968 177.737 40.2656C176.331 40.7344 174.963 40.9688 173.635 40.9688ZM183.738 40.5V13.113H189.481V19.8328L189.169 23.5443H189.286C190.015 22.789 190.901 22.1248 191.943 21.5518C193.011 20.9527 194.274 20.6532 195.732 20.6532C197.92 20.6532 199.509 21.3565 200.499 22.7629C201.514 24.1694 202.022 26.0968 202.022 28.5451V40.5H196.279V29.2874C196.279 27.9851 196.058 27.0344 195.615 26.4354C195.198 25.8363 194.469 25.5368 193.427 25.5368C192.646 25.5368 191.956 25.7191 191.357 26.0837C190.784 26.4223 190.159 26.9172 189.481 27.5683V40.5H183.738Z" fill="white"/>
</g>
<defs>
<filter id="filter0_d_460_236" x="-1.63751" y="0.5" width="215.9" height="58.231" filterUnits="userSpaceOnUse" color-interpolation-filters="sRGB">
<feFlood flood-opacity="0" result="BackgroundImageFix"/>
<feColorMatrix in="SourceAlpha" type="matrix" values="0 0 0 0 0 0 0 0 0 0 0 0 0 0 0 0 0 0 127 0" result="hardAlpha"/>
<feOffset dy="2"/>
<feGaussianBlur stdDeviation="2"/>
<feComposite in2="hardAlpha" operator="out"/>
<feColorMatrix type="matrix" values="0 0 0 0 0 0 0 0 0 0 0 0 0 0 0 0 0 0 0.25 0"/>
<feBlend mode="normal" in2="BackgroundImageFix" result="effect1_dropShadow_460_236"/>
<feBlend mode="normal" in="SourceGraphic" in2="effect1_dropShadow_460_236" result="shape"/>
</filter>
<clipPath id="clip0_460_236">
<rect width="207.9" height="50.2309" fill="white" transform="translate(2.36249 2.5)"/>
</clipPath>
</defs>
</svg>
