<svg width="19" height="19" viewBox="0 0 19 19" fill="none" xmlns="http://www.w3.org/2000/svg">
<path d="M17.0787 0.556396H1.95873C0.919225 0.556396 0.0781756 1.5921 0.0781756 2.85797L0.0687256 16.6674C0.0687256 17.9333 0.919225 18.969 1.95873 18.969H17.0787C18.1182 18.969 18.9687 17.9333 18.9687 16.6674V2.85797C18.9687 1.5921 18.1182 0.556396 17.0787 0.556396ZM16.7007 5.44723L10.0196 10.5337C9.71717 10.7639 9.32027 10.7639 9.01787 10.5337L2.33673 5.44723C2.24197 5.38246 2.15899 5.29494 2.09281 5.18998C2.02663 5.08502 1.97863 4.9648 1.95171 4.83659C1.92479 4.70839 1.91951 4.57486 1.93619 4.4441C1.95288 4.31334 1.99117 4.18806 2.04877 4.07584C2.10636 3.96363 2.18205 3.86681 2.27126 3.79125C2.36047 3.71569 2.46134 3.66295 2.56777 3.63624C2.6742 3.60953 2.78398 3.60939 2.89045 3.63584C2.99693 3.66229 3.09789 3.71477 3.18723 3.7901L9.51872 8.61189L15.8502 3.7901C15.9396 3.71477 16.0405 3.66229 16.147 3.63584C16.2535 3.60939 16.3632 3.60953 16.4697 3.63624C16.5761 3.66295 16.677 3.71569 16.7662 3.79125C16.8554 3.86681 16.9311 3.96363 16.9887 4.07584C17.0463 4.18806 17.0846 4.31334 17.1013 4.4441C17.1179 4.57486 17.1127 4.70839 17.0857 4.83659C17.0588 4.9648 17.0108 5.08502 16.9446 5.18998C16.8785 5.29494 16.7955 5.38246 16.7007 5.44723Z" fill="#0B0B0C"/>
</svg>
