<svg width="64" height="65" viewBox="0 0 64 65" fill="none" xmlns="http://www.w3.org/2000/svg">
<path d="M10.6666 53.8337C9.19992 53.8337 7.94481 53.3119 6.90125 52.2683C5.85592 51.223 5.33325 49.967 5.33325 48.5003V16.5003C5.33325 15.0337 5.85592 13.7785 6.90125 12.735C7.94481 11.6897 9.19992 11.167 10.6666 11.167H53.3333C54.7999 11.167 56.0559 11.6897 57.1013 12.735C58.1448 13.7785 58.6666 15.0337 58.6666 16.5003V48.5003C58.6666 49.967 58.1448 51.223 57.1013 52.2683C56.0559 53.3119 54.7999 53.8337 53.3333 53.8337H10.6666ZM31.9999 35.167L10.6666 21.8337V48.5003H53.3333V21.8337L31.9999 35.167ZM31.9999 29.8337L53.3333 16.5003H10.6666L31.9999 29.8337ZM10.6666 21.8337V16.5003V48.5003V21.8337Z" fill="#B380C8"/>
</svg>
