<svg width="64" height="64" viewBox="0 0 64 64" fill="none" xmlns="http://www.w3.org/2000/svg">
<path d="M10.6663 53.3334C9.19967 53.3334 7.94456 52.8116 6.90101 51.7681C5.85567 50.7228 5.33301 49.4668 5.33301 48.0001V16.0001C5.33301 14.5334 5.85567 13.2783 6.90101 12.2347C7.94456 11.1894 9.19967 10.6667 10.6663 10.6667H53.333C54.7997 10.6667 56.0557 11.1894 57.101 12.2347C58.1446 13.2783 58.6663 14.5334 58.6663 16.0001V48.0001C58.6663 49.4668 58.1446 50.7228 57.101 51.7681C56.0557 52.8116 54.7997 53.3334 53.333 53.3334H10.6663ZM31.9997 34.6668L10.6663 21.3334V48.0001H53.333V21.3334L31.9997 34.6668ZM31.9997 29.3334L53.333 16.0001H10.6663L31.9997 29.3334ZM10.6663 21.3334V16.0001V48.0001V21.3334Z" fill="#839D80"/>
</svg>
