<svg width="65" height="64" viewBox="0 0 65 64" fill="none" xmlns="http://www.w3.org/2000/svg">
<path d="M11.1666 53.3337C9.69992 53.3337 8.44481 52.8119 7.40125 51.7683C6.35592 50.723 5.83325 49.467 5.83325 48.0003V16.0003C5.83325 14.5337 6.35592 13.2785 7.40125 12.235C8.44481 11.1897 9.69992 10.667 11.1666 10.667H53.8333C55.2999 10.667 56.5559 11.1897 57.6013 12.235C58.6448 13.2785 59.1666 14.5337 59.1666 16.0003V48.0003C59.1666 49.467 58.6448 50.723 57.6013 51.7683C56.5559 52.8119 55.2999 53.3337 53.8333 53.3337H11.1666ZM32.4999 34.667L11.1666 21.3337V48.0003H53.8333V21.3337L32.4999 34.667ZM32.4999 29.3337L53.8333 16.0003H11.1666L32.4999 29.3337ZM11.1666 21.3337V16.0003V48.0003V21.3337Z" fill="#FFECA9"/>
</svg>
