<svg width="1441" height="1097" viewBox="0 0 1441 1097" fill="none" xmlns="http://www.w3.org/2000/svg">
<path d="M352.5 318.847C361.7 318.447 375.333 317.347 377.5 318.847C400.223 322.847 424.301 312.847 433.5 307.347C450.3 309.347 455.833 306.514 456.5 304.847C493.3 262.847 527.833 241.014 540.5 235.347C540.5 227.347 538 226.347 540.5 223.347C542.5 220.947 551.333 222.347 555.5 223.347C559.333 219.847 570.2 211.347 583 205.347C595.8 199.347 639.333 164.5 646.5 173V1054.35H1V218.847H70.5C74.1 205.647 114 216.347 133.5 223.347C142.7 217.347 151.333 217.847 154.5 218.847C176.9 205.647 184.167 209.347 185 212.847C187.5 216.68 193.2 224.147 196 223.347C199.5 222.347 209.5 226.847 215 235.347C219.4 242.147 240.833 255.514 251 261.347C254.2 252.547 272.333 268.347 281 277.347C302.2 277.747 311.167 284.847 313 288.347C318.6 297.147 327 300.68 330.5 301.347C336.9 297.347 347.833 311.347 352.5 318.847Z" fill="url(#paint0_linear_245_459)"/>
<path d="M1180.32 116.671C1243.74 158.459 1391.37 208.885 1440.5 225V1013L145 996L84.5 434.526C183.16 433.971 251.383 433.193 272.995 434.526C294.606 435.86 330.938 417.67 346.403 408.409C354.233 399.888 373.064 382.847 385.749 382.847C398.434 382.847 419.615 365.435 428.62 356.73C428.228 354.877 427.915 350.617 429.794 348.394C431.673 346.171 439.582 338.207 443.301 334.502C443.771 327.389 479.124 314.868 496.742 309.496C506.138 300.605 528.807 281.6 544.31 276.71C559.814 271.82 570.346 260.966 573.674 256.15C587.768 223.697 625.353 183.354 642.383 167.239C659.414 167.239 695.824 128.896 700.522 126.674C704.281 124.895 709.919 125.933 712.268 126.674C714.147 120.005 749.461 95.3697 766.883 83.8853C770.015 83.8853 776.514 83.1074 777.454 79.9957C778.394 76.884 785.284 70.9195 788.612 68.3262C793.506 67.4 804.116 63.7694 807.404 56.6567C810.693 49.544 820.911 43.3202 825.609 41.0974C830.308 39.0598 840.174 34.2068 842.053 31.0949C843.932 27.9831 849.1 22.0186 851.449 19.4253C859.671 14.0537 877.523 4.19943 883.161 7.75585C888.799 11.3123 909.001 28.5016 918.397 36.6516C932.491 35.318 956.373 55.3599 966.553 65.5476C974.07 66.8812 981.821 73.142 984.758 76.1057C989.926 77.8839 1010.4 82.033 1019.99 83.8853C1056.17 105.224 1141.95 114.634 1180.32 116.671Z" fill="url(#paint1_linear_245_459)"/>
<path d="M879.079 0.384119C879.399 2.62412 880.719 4.91411 880.189 7.03411C878.979 11.9141 872.859 14.8041 869.399 18.3041C861.019 26.7641 857.769 40.7241 858.199 52.3541C858.212 52.8051 858.061 53.245 857.774 53.5912C857.486 53.9374 857.083 54.1661 856.639 54.2341C849.989 55.2441 847.579 42.8241 846.549 37.7641C846.528 37.6604 846.482 37.5634 846.415 37.4813C846.348 37.3992 846.263 37.3347 846.166 37.2933C846.07 37.2519 845.965 37.2348 845.861 37.2437C845.757 37.2526 845.657 37.287 845.569 37.3441C837.496 42.5374 830.193 48.5208 823.659 55.2941C819.409 59.6941 814.919 65.8741 810.409 71.0641C804.219 78.1741 801.149 76.8441 792.599 76.1841C783.779 77.3708 776.269 81.0508 770.069 87.2241L751.139 106.324C745.419 111.114 737.489 118.164 729.969 117.314C726.839 116.954 724.389 116.764 721.359 116.284C723.659 114.551 725.919 112.961 728.139 111.514C739.799 103.914 749.409 92.5841 759.829 84.4941C765.503 80.0941 771.379 75.9474 777.459 72.0541C782.766 68.1541 790.319 62.9841 800.119 56.5441C811.499 49.0641 820.939 38.2841 831.899 30.5641C837.453 26.6641 842.126 22.6908 845.919 18.6441C848.939 15.4541 851.769 12.1541 855.369 9.7441C860.309 6.4341 873.279 -1.87588 879.079 0.384119Z" fill="white"/>
<path d="M973.58 66.3841C972.14 70.7341 968.03 72.5941 967.45 77.3041C967.403 77.6774 967.476 78.0241 967.67 78.3441L971.01 83.7041C971.104 83.8555 971.167 84.0252 971.192 84.2025C971.218 84.3798 971.207 84.5608 971.16 84.7341C970.34 87.6608 969.66 90.6141 969.12 93.5941C969.089 93.7628 969.009 93.9186 968.89 94.0415C968.771 94.1645 968.617 94.2489 968.45 94.2841C966.77 94.6241 965.073 94.7074 963.36 94.5341C963.066 94.5052 962.769 94.5397 962.49 94.6353C962.211 94.7309 961.955 94.8854 961.741 95.0884C961.527 95.2913 961.359 95.5379 961.248 95.8115C961.137 96.0851 961.087 96.3792 961.1 96.6741C961.193 98.6474 961.666 100.497 962.52 102.224C962.596 102.378 962.619 102.553 962.585 102.722C962.55 102.89 962.461 103.043 962.33 103.154C957.683 107.174 954.803 109.914 953.69 111.374C951.77 113.884 954.99 116.144 956.79 117.384C961.66 120.754 968.2 124.004 971.34 129.064C976.76 137.824 979.84 147.027 980.58 156.674C980.632 157.356 980.906 158.002 981.359 158.514C981.812 159.025 982.42 159.373 983.09 159.504C988.79 160.624 997.73 165.854 997.88 172.724C997.95 175.754 995.17 178.194 995.36 181.304C995.53 184.174 995.52 188.354 994.23 189.124C994.073 189.219 993.897 189.274 993.714 189.285C993.532 189.297 993.349 189.264 993.181 189.189C993.014 189.115 992.866 189.001 992.751 188.857C992.636 188.714 992.556 188.545 992.52 188.364C992.02 185.897 991.5 183.387 990.96 180.834C989.52 173.914 982.79 168.294 977.6 163.324C976.646 162.417 975.876 161.264 975.29 159.864C973.823 156.364 971.78 153.324 969.16 150.744C966.406 147.337 963.86 143.747 961.52 139.974C960.54 138.374 959.07 137.744 957.4 137.224C952.113 135.584 948.103 132.361 945.37 127.554C945.287 127.408 945.178 127.281 945.047 127.18C944.917 127.078 944.768 127.005 944.61 126.964C936.89 124.944 931.736 123.381 929.15 122.274C918.49 117.714 915.01 114.594 912.91 103.834C911.67 97.4941 909.29 100.734 905.18 100.384C900.72 100.004 894.72 91.1241 891.75 87.6841C884.86 79.7241 886.16 70.6341 873.94 66.8041C872.52 66.3574 871.366 66.3441 870.48 66.7641C870.133 66.9308 869.953 67.2041 869.94 67.5841C869.74 73.0241 872.17 76.2741 873.85 80.7041C873.909 80.859 873.931 81.0258 873.914 81.1911C873.897 81.3563 873.841 81.5154 873.75 81.6555C873.66 81.7956 873.538 81.9128 873.393 81.9977C873.249 82.0826 873.087 82.1327 872.92 82.1441C870.58 82.3141 865.15 82.7141 864.66 85.5541C864.35 87.4141 866.17 90.0341 867.02 91.9241C867.166 92.2641 867.103 92.5574 866.83 92.8041C864.28 95.1241 861.72 96.8141 860.01 99.8641C852.34 113.564 844.89 127.314 842.8 143.144C842.49 145.504 841.83 146.674 839.24 145.444C831.1 141.584 837.19 134.314 836.89 128.564C836.716 125.111 835.516 120.727 833.29 115.414C832 112.344 834.7 108.764 835.37 105.774C836.02 102.924 834.94 99.8741 834.72 96.8341C834.692 96.4238 834.782 96.0143 834.979 95.6531C835.175 95.292 835.47 94.9941 835.83 94.7941C844.18 90.2141 841.01 78.6441 839.62 71.1341C838.35 64.2341 829.9 69.9241 827.24 72.2641C823.253 75.7841 818.75 78.1008 813.73 79.2141C808.37 83.1141 802.94 86.1141 797.44 88.2141C789.94 91.0841 779.04 107.934 777.97 116.364C773.39 117.944 768.516 118.824 763.35 119.004C757.95 119.184 757.23 121.234 754.36 124.964C747.34 134.054 741 143.594 731.45 150.304C731.339 150.383 731.206 150.424 731.071 150.42C730.935 150.416 730.805 150.368 730.7 150.283C730.594 150.197 730.519 150.08 730.487 149.949C730.454 149.817 730.466 149.678 730.52 149.554C731.56 147.114 732.7 144.694 734.36 142.464C739.173 135.997 743.643 129.301 747.77 122.374C750.43 117.924 751.45 114.144 753.08 109.024C753.566 107.491 752.92 106.591 751.14 106.324L770.07 87.2241L771.1 87.9941C771.373 88.2008 771.663 88.2408 771.97 88.1141C780 84.8441 787.68 81.8941 792.6 76.1841C801.15 76.8441 804.22 78.1741 810.41 71.0641C814.92 65.8741 819.41 59.6941 823.66 55.2941C830.193 48.5208 837.496 42.5374 845.57 37.3441C845.657 37.287 845.757 37.2526 845.861 37.2437C845.965 37.2348 846.07 37.2519 846.167 37.2933C846.263 37.3347 846.349 37.3992 846.415 37.4813C846.482 37.5633 846.528 37.6604 846.55 37.7641C847.58 42.8241 849.99 55.2441 856.64 54.2341C857.083 54.1661 857.486 53.9374 857.774 53.5912C858.061 53.245 858.212 52.805 858.2 52.3541C857.77 40.7241 861.02 26.7641 869.4 18.3041C872.86 14.8041 878.98 11.9141 880.19 7.0341C880.72 4.9141 879.4 2.62411 879.08 0.384108C882.18 -1.70589 903.34 18.7241 906.28 21.7341C909.22 24.7541 913.51 26.8141 917.38 28.1841C925.45 31.0341 936.71 35.2641 942.74 41.4741C947.886 46.7541 952.956 51.1808 957.95 54.7541C961.86 57.5441 965.51 56.9241 969.19 61.7641C970.603 63.6241 972.066 65.1641 973.58 66.3841Z" fill="#B0BC9C"/>
<path d="M813.73 79.2144C809.356 85.861 804.81 92.1377 800.09 98.0444C795.63 103.634 786.79 118.374 777.97 116.364C779.04 107.934 789.94 91.0844 797.44 88.2144C802.94 86.1144 808.37 83.1144 813.73 79.2144Z" fill="white"/>
<path d="M1020.22 139.264C1024.38 142.511 1027.73 146.581 1030.28 151.474C1030.34 151.575 1030.36 151.691 1030.34 151.805C1030.32 151.918 1030.27 152.024 1030.19 152.105C1030.11 152.186 1030 152.239 1029.89 152.255C1029.78 152.271 1029.66 152.25 1029.56 152.194C1028.63 151.714 1027.69 151.061 1026.74 150.234C1019.52 143.924 1011.97 137.794 1006.05 130.134C1001.41 124.124 997.05 118.234 991.93 112.604C989.1 109.494 988.99 107.644 991.54 104.394C992.57 103.084 991.46 101.834 990.99 100.754C989.277 96.821 987.593 92.8777 985.94 88.9243C985.807 88.6043 985.857 88.321 986.09 88.0744C988.9 85.1444 991.65 86.5143 993.67 89.4943C996.843 94.1677 1000.44 98.5044 1004.45 102.504C1006.53 104.578 1006.97 106.918 1005.78 109.524C1005.64 109.831 1005.61 110.148 1005.69 110.474C1007.21 116.661 1010.73 121.181 1016.24 124.034C1016.67 124.26 1017.03 124.614 1017.25 125.049C1017.48 125.484 1017.56 125.978 1017.5 126.464L1016.49 134.244C1016.44 134.579 1016.53 134.921 1016.72 135.204C1017.71 136.664 1018.76 138.124 1020.22 139.264Z" fill="#B0BC9C"/>
<path d="M894.999 170.314C885.969 166.394 883.639 145.034 883.089 136.634C883.009 135.344 882.959 134.514 882.129 133.394C877.359 126.964 873.179 120.334 871.919 112.074C871.149 107.084 876.589 108.744 877.169 111.564C878.199 116.584 879.999 123.304 884.789 125.344C889.069 127.171 893.156 129.341 897.049 131.854C897.336 132.041 897.443 132.304 897.369 132.644C896.679 135.954 894.839 139.674 895.349 142.924C895.929 146.664 897.719 150.764 896.879 155.194C895.993 159.861 895.776 164.601 896.229 169.414C896.246 169.568 896.222 169.723 896.159 169.864C896.097 170.006 895.999 170.128 895.874 170.219C895.749 170.311 895.603 170.367 895.449 170.384C895.296 170.401 895.14 170.377 894.999 170.314Z" fill="#B0BC9C"/>
<path d="M1147.9 192.804C1151.52 196.234 1175.94 219.524 1165.71 224.254C1165.41 224.388 1165.07 224.399 1164.76 224.284C1150.18 218.704 1140.6 207.004 1128.07 198.454C1121.15 193.724 1112.88 189.054 1107.09 181.924C1102.36 176.084 1098.28 167.364 1094.54 159.984C1089.8 154.184 1083.75 149.464 1078.11 144.584C1074.58 141.524 1068.04 135.354 1067.58 130.514C1067.55 130.148 1067.67 129.838 1067.95 129.584C1069.15 128.518 1070.6 128.231 1072.31 128.724C1072.62 128.811 1072.89 128.964 1073.12 129.184C1083.23 138.811 1091.93 145.908 1099.22 150.474C1104.74 153.934 1110.62 157.314 1112.98 163.074C1115.3 168.741 1117.11 172.388 1118.42 174.014C1122.5 179.094 1127.17 174.434 1132 176.864C1134.77 178.244 1136.63 179.661 1137.59 181.114C1140.5 185.521 1143.93 189.418 1147.9 192.804Z" fill="#B0BC9C"/>
<path d="M772.04 152.684C775.51 147.754 778.13 144.994 782.04 141.344C782.286 141.124 782.553 141.097 782.84 141.264C785.05 142.584 784.39 144.304 783.04 146.014C778.2 152.134 775.58 157.354 772.1 163.374C769.54 167.804 766.64 170.214 762.53 172.834C758.25 175.544 759.64 178.354 760.41 182.394C760.44 182.557 760.431 182.724 760.382 182.881C760.333 183.038 760.246 183.18 760.13 183.294C756.496 186.821 753.18 190.614 750.18 194.674C745.96 200.374 742.03 206.104 734.37 206.904C734.09 206.937 733.946 206.814 733.94 206.534C733.84 203.187 734.417 200.624 735.67 198.844C741.097 191.137 746.026 183.121 750.46 174.794C753.54 169.014 755.74 166.234 760.84 163.094C765.97 159.924 768.82 157.254 772.04 152.684Z" fill="#B0BC9C"/>
<path d="M623.5 186.5C618.82 192.87 608.8 203.291 605.05 209.771C602.29 214.551 600.61 220.331 597.24 224.621C590.047 233.788 583.447 243.355 577.44 253.321C572.59 261.371 568.51 266.391 561.54 271.341C561.26 271.535 560.954 271.608 560.62 271.561C558.514 271.255 556.704 271.605 555.19 272.611C549.317 276.518 543.867 279.948 538.84 282.901C528.54 288.961 519.97 295.271 511.71 301.891C508.19 304.721 505.44 309.771 500.91 311.301C489.417 315.181 477.557 320.081 465.33 326.001C460.897 328.141 457.18 330.918 454.18 334.331C449.54 339.601 438.68 341.57 435.45 347.72C427.737 362.393 415.834 372.753 399.74 378.8C400.74 376.333 402.634 374.45 405.42 373.15C411.39 370.35 420.16 365.42 422.96 359.33C425.14 354.59 428.154 349.98 432 345.5C439.107 338.387 443.467 333.82 445.08 331.8C448.88 327.04 455.08 324.44 460.5 322C466.3 319.387 472.347 316.7 478.5 315C481.72 314.113 487.2 313.007 497 308C500.97 305.97 503.23 302.79 506 299.5C513.41 288.78 522.73 285.131 534.64 280.511C541.65 277.791 548.15 273.771 555.31 271.001C563.65 267.781 566.74 262.221 570.39 254.851C572.34 250.911 577.06 247.231 578.17 243.781C581.124 234.608 585.82 226.351 592.26 219.011C596.334 212.958 600.544 207.475 604.89 202.561C607.67 199.415 611.94 197.533 613.5 195.5L617 191C617.247 190.74 620 189 620 189L623.5 186.5Z" fill="white"/>
<path d="M987.45 233.014C988.28 233.674 989.34 234.854 990.22 235.254C996.64 238.114 1002.88 241.341 1008.93 244.934C1012.01 246.754 1012.91 249.174 1012.56 252.534C1012.52 252.894 1012.37 253.201 1012.12 253.454L1008.39 257.204C1008.29 257.301 1008.22 257.419 1008.17 257.548C1008.12 257.677 1008.1 257.816 1008.11 257.954C1008.7 268.044 1012.5 276.724 1010.74 287.644C1009.59 294.758 1009.18 301.851 1009.52 308.924C1009.53 309.074 1009.5 309.223 1009.44 309.359C1009.37 309.495 1009.28 309.613 1009.16 309.704C1009.04 309.795 1008.9 309.855 1008.75 309.879C1008.6 309.904 1008.45 309.892 1008.31 309.844C993.45 304.994 989.84 271.984 989.14 259.484C988.7 251.674 982.24 242.134 977.47 236.334C973.39 228.704 969.48 219.844 969.55 211.324C969.58 207.484 973.05 205.794 976.06 208.174C976.313 208.374 976.493 208.628 976.6 208.934C979.4 217.314 981.82 226.114 987.45 233.014Z" fill="#B0BC9C"/>
<path d="M125.797 302.892C93.3333 307.842 28.4058 345.863 0 364.255V1097H1440V246.17C1416.81 258.546 1398.26 257.858 1391.88 255.967C1381.06 253.733 1350.96 248.645 1317.1 246.17C1283.25 243.695 1219.9 268.859 1192.46 281.75C1147.01 281.338 1117.1 290.86 1107.83 295.673C1098.94 298.423 1067.94 303.304 1015.07 300.829C948.985 297.735 954.783 300.829 918.261 318.361C889.043 332.387 873.237 333.487 868.985 332.284C843.478 322.796 825.507 324.205 819.71 326.096C771.014 327.334 736.425 321.455 725.217 318.361C713.816 313.205 685.217 302.479 662.029 300.829C638.841 299.179 621.063 313.549 615.072 320.94C605.797 321.971 585.739 325.684 579.71 332.284C572.174 340.534 544.348 344.66 530.435 354.457C519.304 362.295 504.541 367.349 498.551 368.895C492.947 370.271 476.174 375.908 453.913 387.459C431.652 399.01 421.063 398.46 418.551 396.741C395.826 382.715 357.681 372.333 341.449 368.895C291.362 369.308 251.014 346.035 237.101 334.347C219.478 333.934 194.976 332.8 184.928 332.284C174.261 321.971 141.063 308.392 125.797 302.892Z" fill="url(#paint2_linear_245_459)"/>
<path d="M363.997 376C345.562 374.413 327.742 370.2 309.994 365.958C303.785 364.469 294.489 365.321 289.799 364.998C269.99 363.675 256.04 351.547 243.838 340.927C240.969 338.428 237.388 336.518 234 334C242.601 334.157 249.991 336.165 256.173 340.025C257.29 340.718 260.513 343.212 265.842 347.51C273.197 353.437 277.694 358.943 288.762 360.158C302.025 361.608 315.54 362.794 328.622 365.184C334.747 366.301 340.679 367.134 346.539 369.113C349.058 369.975 364.25 374.286 363.997 376Z" fill="white"/>
<path d="M199 223.5C188 221 188 214 184 211.5C183.2 221.1 187.5 224.167 190 225C199.2 226.6 204.167 231.333 205.5 233.5C211.1 241.9 222.833 251 228 254.5C236.833 259 254.3 266.9 253.5 262.5C252.7 258.1 271.5 271.667 281 279C289.5 279.333 307.8 283.1 313 295.5C318.2 307.9 328.833 306.667 333.5 304.5C336.7 301.3 347.5 313.833 352.5 320.5C360.1 318.5 372 319.667 377 320.5C398.2 327.3 423.5 314.667 433.5 307.5C413.5 318.5 382 322 376.5 318C372.1 314.8 359.667 317.5 352.5 318.5C342 303 336 299.5 331 301C327.265 302.121 320 296 317.5 294C309.1 279.2 289.667 276.833 281 277.5C259 255.9 251.833 256.833 251 260.5C245.5 258.5 224.833 245.333 216 237.5C211.2 227.9 201.5 223.667 199 223.5Z" fill="white"/>
<defs>
<linearGradient id="paint0_linear_245_459" x1="0.250008" y1="204" x2="231" y2="687" gradientUnits="userSpaceOnUse">
<stop stop-color="#B6C8A2"/>
<stop offset="1" stop-color="#B6C8A2" stop-opacity="0"/>
</linearGradient>
<linearGradient id="paint1_linear_245_459" x1="896" y1="146" x2="471" y2="663.5" gradientUnits="userSpaceOnUse">
<stop offset="0.328125" stop-color="#9BB091"/>
<stop offset="1" stop-color="#9BB091" stop-opacity="0"/>
</linearGradient>
<linearGradient id="paint2_linear_245_459" x1="12.5" y1="227" x2="357" y2="1350" gradientUnits="userSpaceOnUse">
<stop stop-color="#6A8C73"/>
<stop offset="1" stop-color="#6A8C73" stop-opacity="0"/>
</linearGradient>
</defs>
</svg>
