<svg width="1440" height="1097" viewBox="0 0 1440 1097" fill="none" xmlns="http://www.w3.org/2000/svg">
<path d="M352.5 318.846C361.7 318.446 375.333 317.346 377.5 318.846C400.223 322.847 424.301 312.846 433.5 307.346C450.3 309.346 455.833 306.513 456.5 304.846C493.3 262.846 527.833 241.013 540.5 235.347C540.5 227.347 538 226.346 540.5 223.347C542.5 220.947 551.333 222.347 555.5 223.347C559.333 219.847 570.2 211.347 583 205.347C595.8 199.347 613.333 214.847 620.5 223.347V1054.35H-620V218.847H70.5C74.1 205.646 114 216.347 133.5 223.347C142.7 217.347 151.333 217.847 154.5 218.847C176.9 205.646 184.167 209.347 185 212.847C187.5 216.68 193.2 224.147 196 223.347C199.5 222.347 209.5 226.847 215 235.347C219.4 242.147 240.833 255.513 251 261.347C254.2 252.547 272.333 268.347 281 277.347C302.2 277.747 311.167 284.847 313 288.347C318.6 297.147 327 300.68 330.5 301.347C336.9 297.347 347.833 311.347 352.5 318.846Z" fill="url(#paint0_linear_183_1268)"/>
<path d="M1180.32 116.671C1243.74 158.459 1357.87 201.136 1407 217.251V1013H-50V434.526C48.6602 433.971 251.383 433.193 272.995 434.526C294.606 435.86 330.938 417.67 346.403 408.409C354.233 399.888 373.064 382.847 385.749 382.847C398.434 382.847 419.615 365.435 428.62 356.73C428.228 354.877 427.915 350.617 429.794 348.394C431.673 346.171 439.582 338.207 443.301 334.502C443.771 327.389 479.124 314.868 496.742 309.496C506.138 300.605 528.807 281.6 544.31 276.71C559.814 271.82 570.346 260.966 573.674 256.15C587.768 223.697 625.353 183.354 642.383 167.239C659.414 167.239 695.824 128.896 700.522 126.674C704.281 124.895 709.919 125.933 712.268 126.674C714.147 120.005 749.461 95.3697 766.883 83.8853C770.015 83.8853 776.514 83.1074 777.454 79.9957C778.394 76.884 785.284 70.9195 788.612 68.3262C793.506 67.4 804.116 63.7694 807.404 56.6567C810.693 49.544 820.911 43.3202 825.609 41.0974C830.308 39.0598 840.174 34.2068 842.053 31.0949C843.932 27.9831 849.1 22.0186 851.449 19.4253C859.671 14.0537 877.524 4.19943 883.161 7.75585C888.799 11.3123 909.001 28.5016 918.397 36.6516C932.491 35.318 956.373 55.3599 966.553 65.5476C974.07 66.8812 981.822 73.142 984.758 76.1057C989.926 77.8839 1010.4 82.033 1019.99 83.8853C1056.17 105.224 1141.95 114.634 1180.32 116.671Z" fill="url(#paint1_linear_183_1268)"/>
<path d="M879.079 0.384119C879.399 2.62412 880.719 4.91411 880.189 7.03411C878.979 11.9141 872.859 14.8041 869.399 18.3041C861.019 26.7641 857.769 40.7241 858.199 52.3541C858.212 52.8051 858.061 53.245 857.774 53.5912C857.486 53.9374 857.083 54.1661 856.639 54.2341C849.989 55.2441 847.579 42.8241 846.549 37.7641C846.528 37.6604 846.482 37.5634 846.415 37.4813C846.348 37.3992 846.263 37.3347 846.166 37.2933C846.07 37.2519 845.965 37.2348 845.861 37.2437C845.757 37.2526 845.657 37.287 845.569 37.3441C837.496 42.5374 830.193 48.5208 823.659 55.2941C819.409 59.6941 814.919 65.8741 810.409 71.0641C804.219 78.1741 801.149 76.8441 792.599 76.1841C783.779 77.3708 776.269 81.0508 770.069 87.2241L751.139 106.324C745.419 111.114 737.489 118.164 729.969 117.314C726.839 116.954 724.389 116.764 721.359 116.284C723.659 114.551 725.919 112.961 728.139 111.514C739.799 103.914 749.409 92.5841 759.829 84.4941C765.503 80.0941 771.379 75.9474 777.459 72.0541C782.766 68.1541 790.319 62.9841 800.119 56.5441C811.499 49.0641 820.939 38.2841 831.899 30.5641C837.453 26.6641 842.126 22.6908 845.919 18.6441C848.939 15.4541 851.769 12.1541 855.369 9.7441C860.309 6.4341 873.279 -1.87588 879.079 0.384119Z" fill="white"/>
<path d="M973.58 66.3841C972.14 70.7341 968.03 72.5941 967.45 77.3041C967.403 77.6774 967.476 78.0241 967.67 78.3441L971.01 83.7041C971.104 83.8555 971.167 84.0252 971.192 84.2025C971.218 84.3798 971.207 84.5608 971.16 84.7341C970.34 87.6608 969.66 90.6141 969.12 93.5941C969.089 93.7628 969.009 93.9186 968.89 94.0415C968.771 94.1645 968.617 94.2489 968.45 94.2841C966.77 94.6241 965.073 94.7074 963.36 94.5341C963.066 94.5052 962.769 94.5397 962.49 94.6353C962.211 94.7309 961.955 94.8854 961.741 95.0884C961.527 95.2913 961.359 95.5379 961.248 95.8115C961.137 96.0851 961.087 96.3792 961.1 96.6741C961.193 98.6474 961.666 100.497 962.52 102.224C962.596 102.378 962.619 102.553 962.585 102.722C962.55 102.89 962.461 103.043 962.33 103.154C957.683 107.174 954.803 109.914 953.69 111.374C951.77 113.884 954.99 116.144 956.79 117.384C961.66 120.754 968.2 124.004 971.34 129.064C976.76 137.824 979.84 147.027 980.58 156.674C980.632 157.356 980.906 158.002 981.359 158.514C981.812 159.025 982.42 159.373 983.09 159.504C988.79 160.624 997.73 165.854 997.88 172.724C997.95 175.754 995.17 178.194 995.36 181.304C995.53 184.174 995.52 188.354 994.23 189.124C994.073 189.219 993.897 189.274 993.714 189.285C993.532 189.297 993.349 189.264 993.181 189.189C993.014 189.115 992.866 189.001 992.751 188.857C992.636 188.714 992.556 188.545 992.52 188.364C992.02 185.897 991.5 183.387 990.96 180.834C989.52 173.914 982.79 168.294 977.6 163.324C976.646 162.417 975.876 161.264 975.29 159.864C973.823 156.364 971.78 153.324 969.16 150.744C966.406 147.337 963.86 143.747 961.52 139.974C960.54 138.374 959.07 137.744 957.4 137.224C952.113 135.584 948.103 132.361 945.37 127.554C945.287 127.408 945.178 127.281 945.047 127.18C944.917 127.078 944.768 127.005 944.61 126.964C936.89 124.944 931.736 123.381 929.15 122.274C918.49 117.714 915.01 114.594 912.91 103.834C911.67 97.4941 909.29 100.734 905.18 100.384C900.72 100.004 894.72 91.1241 891.75 87.6841C884.86 79.7241 886.16 70.6341 873.94 66.8041C872.52 66.3574 871.366 66.3441 870.48 66.7641C870.133 66.9308 869.953 67.2041 869.94 67.5841C869.74 73.0241 872.17 76.2741 873.85 80.7041C873.909 80.859 873.931 81.0258 873.914 81.1911C873.897 81.3563 873.841 81.5154 873.75 81.6555C873.66 81.7956 873.538 81.9128 873.393 81.9977C873.249 82.0826 873.087 82.1327 872.92 82.1441C870.58 82.3141 865.15 82.7141 864.66 85.5541C864.35 87.4141 866.17 90.0341 867.02 91.9241C867.166 92.2641 867.103 92.5574 866.83 92.8041C864.28 95.1241 861.72 96.8141 860.01 99.8641C852.34 113.564 844.89 127.314 842.8 143.144C842.49 145.504 841.83 146.674 839.24 145.444C831.1 141.584 837.19 134.314 836.89 128.564C836.716 125.111 835.516 120.727 833.29 115.414C832 112.344 834.7 108.764 835.37 105.774C836.02 102.924 834.94 99.8741 834.72 96.8341C834.692 96.4238 834.782 96.0143 834.979 95.6531C835.175 95.292 835.47 94.9941 835.83 94.7941C844.18 90.2141 841.01 78.6441 839.62 71.1341C838.35 64.2341 829.9 69.9241 827.24 72.2641C823.253 75.7841 818.75 78.1008 813.73 79.2141C808.37 83.1141 802.94 86.1141 797.44 88.2141C789.94 91.0841 779.04 107.934 777.97 116.364C773.39 117.944 768.516 118.824 763.35 119.004C757.95 119.184 757.23 121.234 754.36 124.964C747.34 134.054 741 143.594 731.45 150.304C731.339 150.383 731.206 150.424 731.071 150.42C730.935 150.416 730.805 150.368 730.7 150.283C730.594 150.197 730.519 150.08 730.487 149.949C730.454 149.817 730.466 149.678 730.52 149.554C731.56 147.114 732.7 144.694 734.36 142.464C739.173 135.997 743.643 129.301 747.77 122.374C750.43 117.924 751.45 114.144 753.08 109.024C753.566 107.491 752.92 106.591 751.14 106.324L770.07 87.2241L771.1 87.9941C771.373 88.2008 771.663 88.2408 771.97 88.1141C780 84.8441 787.68 81.8941 792.6 76.1841C801.15 76.8441 804.22 78.1741 810.41 71.0641C814.92 65.8741 819.41 59.6941 823.66 55.2941C830.193 48.5208 837.496 42.5374 845.57 37.3441C845.657 37.287 845.757 37.2526 845.861 37.2437C845.965 37.2348 846.07 37.2519 846.167 37.2933C846.263 37.3347 846.349 37.3992 846.415 37.4813C846.482 37.5633 846.528 37.6604 846.55 37.7641C847.58 42.8241 849.99 55.2441 856.64 54.2341C857.083 54.1661 857.486 53.9374 857.774 53.5912C858.061 53.245 858.212 52.805 858.2 52.3541C857.77 40.7241 861.02 26.7641 869.4 18.3041C872.86 14.8041 878.98 11.9141 880.19 7.0341C880.72 4.9141 879.4 2.62411 879.08 0.384108C882.18 -1.70589 903.34 18.7241 906.28 21.7341C909.22 24.7541 913.51 26.8141 917.38 28.1841C925.45 31.0341 936.71 35.2641 942.74 41.4741C947.886 46.7541 952.956 51.1808 957.95 54.7541C961.86 57.5441 965.51 56.9241 969.19 61.7641C970.603 63.6241 972.066 65.1641 973.58 66.3841Z" fill="#B0BC9C"/>
<path d="M813.73 79.2144C809.356 85.861 804.81 92.1377 800.09 98.0444C795.63 103.634 786.79 118.374 777.97 116.364C779.04 107.934 789.94 91.0844 797.44 88.2144C802.94 86.1144 808.37 83.1144 813.73 79.2144Z" fill="white"/>
<path d="M1020.22 139.264C1024.38 142.511 1027.73 146.581 1030.28 151.474C1030.34 151.575 1030.36 151.691 1030.34 151.805C1030.32 151.918 1030.27 152.024 1030.19 152.105C1030.11 152.186 1030 152.239 1029.89 152.255C1029.78 152.271 1029.66 152.25 1029.56 152.194C1028.63 151.714 1027.69 151.061 1026.74 150.234C1019.52 143.924 1011.97 137.794 1006.05 130.134C1001.41 124.124 997.05 118.234 991.93 112.604C989.1 109.494 988.99 107.644 991.54 104.394C992.57 103.084 991.46 101.834 990.99 100.754C989.277 96.821 987.593 92.8777 985.94 88.9243C985.807 88.6043 985.857 88.321 986.09 88.0744C988.9 85.1444 991.65 86.5143 993.67 89.4943C996.843 94.1677 1000.44 98.5044 1004.45 102.504C1006.53 104.578 1006.97 106.918 1005.78 109.524C1005.64 109.831 1005.61 110.148 1005.69 110.474C1007.21 116.661 1010.73 121.181 1016.24 124.034C1016.67 124.26 1017.03 124.614 1017.25 125.049C1017.48 125.484 1017.56 125.978 1017.5 126.464L1016.49 134.244C1016.44 134.579 1016.53 134.921 1016.72 135.204C1017.71 136.664 1018.76 138.124 1020.22 139.264Z" fill="#B0BC9C"/>
<path d="M894.999 170.314C885.969 166.394 883.639 145.034 883.089 136.634C883.009 135.344 882.959 134.514 882.129 133.394C877.359 126.964 873.179 120.334 871.919 112.074C871.149 107.084 876.589 108.744 877.169 111.564C878.199 116.584 879.999 123.304 884.789 125.344C889.069 127.171 893.156 129.341 897.049 131.854C897.336 132.041 897.443 132.304 897.369 132.644C896.679 135.954 894.839 139.674 895.349 142.924C895.929 146.664 897.719 150.764 896.879 155.194C895.993 159.861 895.776 164.601 896.229 169.414C896.246 169.568 896.222 169.723 896.159 169.864C896.097 170.006 895.999 170.128 895.874 170.219C895.749 170.311 895.603 170.367 895.449 170.384C895.296 170.401 895.14 170.377 894.999 170.314Z" fill="#B0BC9C"/>
<path d="M1147.9 192.804C1151.52 196.234 1175.94 219.524 1165.71 224.254C1165.41 224.388 1165.07 224.399 1164.76 224.284C1150.18 218.704 1140.6 207.004 1128.07 198.454C1121.15 193.724 1112.88 189.054 1107.09 181.924C1102.36 176.084 1098.28 167.364 1094.54 159.984C1089.8 154.184 1083.75 149.464 1078.11 144.584C1074.58 141.524 1068.04 135.354 1067.58 130.514C1067.55 130.148 1067.67 129.838 1067.95 129.584C1069.15 128.518 1070.6 128.231 1072.31 128.724C1072.62 128.811 1072.89 128.964 1073.12 129.184C1083.23 138.811 1091.93 145.908 1099.22 150.474C1104.74 153.934 1110.62 157.314 1112.98 163.074C1115.3 168.741 1117.11 172.388 1118.42 174.014C1122.5 179.094 1127.17 174.434 1132 176.864C1134.77 178.244 1136.63 179.661 1137.59 181.114C1140.5 185.521 1143.93 189.418 1147.9 192.804Z" fill="#B0BC9C"/>
<path d="M772.04 152.684C775.51 147.754 778.13 144.994 782.04 141.344C782.286 141.124 782.553 141.098 782.84 141.264C785.05 142.584 784.39 144.304 783.04 146.014C778.2 152.134 775.58 157.354 772.1 163.374C769.54 167.804 766.64 170.214 762.53 172.834C758.25 175.544 759.64 178.354 760.41 182.394C760.44 182.557 760.431 182.725 760.382 182.882C760.333 183.039 760.246 183.18 760.13 183.294C756.496 186.821 753.18 190.614 750.18 194.674C745.96 200.374 742.03 206.104 734.37 206.904C734.09 206.938 733.946 206.814 733.94 206.534C733.84 203.188 734.417 200.624 735.67 198.844C741.097 191.138 746.026 183.121 750.46 174.794C753.54 169.014 755.74 166.234 760.84 163.094C765.97 159.924 768.82 157.254 772.04 152.684Z" fill="#B0BC9C"/>
<path d="M623.5 186.5C618.82 192.87 608.8 203.291 605.05 209.771C602.29 214.551 600.61 220.331 597.24 224.621C590.047 233.788 583.447 243.355 577.44 253.321C572.59 261.371 568.51 266.391 561.54 271.341C561.26 271.535 560.954 271.608 560.62 271.561C558.514 271.255 556.704 271.605 555.19 272.611C549.317 276.518 543.867 279.948 538.84 282.901C528.54 288.961 519.97 295.271 511.71 301.891C508.19 304.721 505.44 309.771 500.91 311.301C489.417 315.181 477.557 320.081 465.33 326.001C460.897 328.141 457.18 330.918 454.18 334.331C449.54 339.601 438.68 341.57 435.45 347.72C427.737 362.393 415.834 372.753 399.74 378.8C400.74 376.333 402.634 374.45 405.42 373.15C411.39 370.35 420.16 365.42 422.96 359.33C425.14 354.59 428.154 349.98 432 345.5C439.107 338.387 443.467 333.82 445.08 331.8C448.88 327.04 455.08 324.44 460.5 322C466.3 319.387 472.347 316.7 478.5 315C481.72 314.113 487.2 313.007 497 308C500.97 305.97 503.23 302.79 506 299.5C513.41 288.78 522.73 285.131 534.64 280.511C541.65 277.791 548.15 273.771 555.31 271.001C563.65 267.781 566.74 262.221 570.39 254.851C572.34 250.911 577.06 247.231 578.17 243.781C581.124 234.608 585.82 226.351 592.26 219.011C596.334 212.958 600.544 207.475 604.89 202.561C607.67 199.415 611.94 197.533 613.5 195.5L617 191C617.247 190.74 620 189 620 189L623.5 186.5Z" fill="white"/>
<path d="M1276.83 212.044L1278.79 219.664C1278.87 220.001 1279.03 220.317 1279.25 220.594C1284.78 227.661 1289.37 235.301 1293.02 243.514C1293.08 243.651 1293.1 243.802 1293.09 243.951C1293.07 244.101 1293.01 244.243 1292.92 244.364C1292.83 244.485 1292.71 244.58 1292.57 244.64C1292.43 244.7 1292.28 244.722 1292.13 244.704C1276.8 242.854 1272.29 223.934 1259.55 218.604C1255.06 216.718 1250.99 214.211 1247.35 211.084L1242.34 205.534C1242.29 205.475 1242.25 205.405 1242.22 205.33C1242.2 205.255 1242.19 205.175 1242.2 205.097C1242.21 205.018 1242.24 204.943 1242.28 204.875C1242.32 204.808 1242.37 204.749 1242.44 204.704C1244.18 203.524 1246.02 203.854 1247.7 205.174C1254.23 210.294 1257.59 213.524 1265.31 212.154C1268.56 211.581 1271.83 211.204 1275.12 211.024C1275.45 211.005 1275.77 211.113 1276.01 211.324L1276.83 212.044Z" fill="#C2BFE1"/>
<path d="M987.45 233.014C988.28 233.674 989.34 234.854 990.22 235.254C996.64 238.114 1002.88 241.341 1008.93 244.934C1012.01 246.754 1012.91 249.174 1012.56 252.534C1012.52 252.894 1012.37 253.201 1012.12 253.454L1008.39 257.204C1008.29 257.301 1008.22 257.419 1008.17 257.548C1008.12 257.677 1008.1 257.816 1008.11 257.954C1008.7 268.044 1012.5 276.724 1010.74 287.644C1009.59 294.758 1009.18 301.851 1009.52 308.924C1009.53 309.074 1009.5 309.223 1009.44 309.359C1009.37 309.495 1009.28 309.613 1009.16 309.704C1009.04 309.795 1008.9 309.855 1008.75 309.879C1008.6 309.904 1008.45 309.892 1008.31 309.844C993.45 304.994 989.84 271.984 989.14 259.484C988.7 251.674 982.24 242.134 977.47 236.334C973.39 228.704 969.48 219.844 969.55 211.324C969.58 207.484 973.05 205.794 976.06 208.174C976.313 208.374 976.493 208.628 976.6 208.934C979.4 217.314 981.82 226.114 987.45 233.014Z" fill="#B0BC9C"/>
<path d="M125.797 302.892C93.3333 307.842 28.4058 345.863 0 364.255V1097H1440V246.17C1416.81 258.546 1398.26 257.858 1391.88 255.967C1381.06 253.733 1350.96 248.645 1317.1 246.17C1283.25 243.695 1219.9 268.859 1192.46 281.75C1147.01 281.338 1117.1 290.86 1107.83 295.673C1098.94 298.423 1067.94 303.304 1015.07 300.829C948.985 297.735 954.783 300.829 918.261 318.361C889.043 332.387 873.237 333.487 868.985 332.284C843.478 322.796 825.507 324.205 819.71 326.096C771.014 327.334 736.425 321.455 725.217 318.361C713.816 313.205 685.217 302.479 662.029 300.829C638.841 299.179 621.063 313.549 615.072 320.94C605.797 321.971 585.739 325.684 579.71 332.284C572.174 340.534 544.348 344.66 530.435 354.457C519.304 362.295 504.541 367.349 498.551 368.895C492.947 370.271 476.174 375.908 453.913 387.459C431.652 399.01 421.063 398.46 418.551 396.741C395.826 382.715 357.681 372.333 341.449 368.895C291.362 369.308 251.014 346.035 237.101 334.347C219.478 333.934 194.976 332.8 184.928 332.284C174.261 321.971 141.063 308.392 125.797 302.892Z" fill="url(#paint2_linear_183_1268)"/>
<path d="M1507.33 387.541C1511.42 383.222 1522.44 381.725 1527.44 381.516L1559.35 805.817L321.347 898.937L288.307 459.678C288.697 464.863 329.354 458.763 349.634 455.065C356.697 468.974 377.839 458.96 387.527 452.215C390.967 449.95 403.253 450.196 408.966 450.602C428.202 450.359 471.846 419.966 491.263 404.8C495.29 399.684 513.057 390.124 521.437 385.984C527.321 389.553 532.531 386.821 534.4 385.009C537.531 383.971 557.803 393.946 567.547 399.062C571.755 396.339 577.096 399.347 579.24 401.191C600.105 417.272 616.122 413.794 621.523 410.045C627.296 406.803 642.425 401.286 649.268 398.933C652.867 393.447 665.657 390.179 671.603 389.23C674.326 393.438 688.045 394.512 694.565 394.523C701.307 398.829 709.34 395.417 712.514 393.173C727.293 397.677 743.984 393.814 750.482 391.32C756.975 397.65 767.398 396.231 771.798 394.73C782.409 397.141 789.257 395.757 791.355 394.763C811.712 398.748 836.116 389.892 842.646 383.384C847.871 378.178 865.532 380.994 873.709 383.054C888.173 386.478 918.754 391.298 925.364 383.179C931.974 375.061 966.304 385.281 982.642 391.407C983.938 387.298 986.589 386.096 987.752 386.008C999.407 387.639 999.654 377.592 1001.35 373.453C1003.04 369.314 1007.33 373.003 1015.72 377.887C1022.43 381.795 1026.94 375.874 1028.35 372.425C1034.55 369.552 1046.38 381.097 1051.52 387.228C1064.51 383.845 1069.72 395.887 1070.71 402.332C1072.58 400.586 1081.97 389.785 1086.42 384.603C1087.43 378.009 1087.97 378.47 1089.28 375.864C1090.32 373.78 1096.44 371.147 1099.37 370.091C1121.28 341.367 1141.47 329.82 1146.12 324.958C1149.84 321.068 1160.57 330.389 1165.47 335.536C1170.1 333.182 1184.01 351.022 1190.39 360.236C1193.45 358.669 1200.31 356.081 1203.28 358.264C1206.99 360.993 1212.8 371.587 1220.47 373.518C1226.6 375.062 1236.4 369.812 1240.54 366.994L1242.98 372.827C1253.81 372.815 1265.27 369.145 1269.64 367.312C1278.18 379.506 1309.6 389.711 1324.25 393.29C1325.5 394.365 1330.9 397.803 1342.52 402.946C1354.14 408.089 1365.92 407.37 1370.36 406.368C1379.64 412.489 1402.38 418.834 1412.59 421.242C1411.8 419.63 1413.54 416.458 1426.79 416.664C1443.35 416.922 1474.67 400.026 1482.63 392.408C1488.99 386.313 1501.75 386.624 1507.33 387.541Z" fill="url(#paint3_linear_183_1268)"/>
<path d="M69.0133 453.517C56.9505 439.393 17.9783 421.251 0 413.946V1097H1440V182C1414.48 194.582 1356.6 228.024 1329.23 261.142C1301.86 294.259 1262.15 305.38 1245.72 306.8C1248.04 320.924 1242.82 341.095 1239.92 349.415C1216.72 346.006 1208.22 349.618 1206.86 351.85C1190.62 365.487 1160.27 364.432 1147.13 362.2C1070.58 435.253 991.124 457.17 960.967 458.996C952.151 483.834 940.669 482.738 936.029 479.086C932.356 476.448 920.37 468.736 901.812 458.996C883.254 449.255 844.978 451.285 828.159 453.517C789.651 433.062 752.573 422.672 738.848 420.034C681.434 457.17 523.689 496.74 491.792 511.351C459.895 525.962 403.061 503.437 387.982 491.87C372.904 480.303 388.562 480.303 350.866 479.086C320.709 478.112 265.228 439.312 241.257 420.034C157.165 454.126 84.0918 471.172 69.0133 453.517Z" fill="url(#paint4_linear_183_1268)"/>
<path d="M442.648 546.903C442.166 545.472 441.334 543.012 440.953 541.89C445.402 539.412 448.545 540.738 451.389 548.308C448.548 547.846 445.738 547.396 442.648 546.903ZM337.709 596.047C339.855 600.301 341.266 603.1 343.229 606.996C337.056 604.838 331.607 602.927 326.162 601.022C326.158 599.919 326.158 598.821 326.154 597.718C332.965 602.995 336.601 594.802 340.803 589.198C342.363 591.245 343.699 592.99 346.036 596.047C342.86 596.047 340.908 596.047 337.709 596.047ZM309.255 605.109C306.59 604.185 303.918 603.266 300.129 601.959C302.936 598.926 304.474 597.268 306.194 595.406C307.452 598.001 308.553 600.276 309.658 602.551C309.523 603.402 309.393 604.253 309.255 605.109ZM224.754 632.696C225.194 634.022 225.65 635.409 226.523 638.054C221.1 638.054 216.405 638.054 211.702 638.054C211.385 637.314 211.064 636.574 210.743 635.834C213.542 634.873 216.345 633.905 219.394 632.857C216.905 628.665 214.692 624.941 212.475 621.218C212.721 620.312 212.964 619.405 213.21 618.499C219.002 620.546 223.347 636.093 230.856 622.204C230.882 623.653 230.912 625.095 230.942 626.538C228.882 628.591 226.825 630.637 224.754 632.696ZM142.57 645.538C142.138 644.453 141.705 643.367 141.272 642.282C144.437 639.077 147.598 635.865 150.759 632.659C150.994 633.449 151.225 634.232 151.457 635.021C148.497 638.522 145.534 642.03 142.57 645.538ZM87.4196 636.149C91.4056 634.663 94.3988 633.547 98.4595 632.037C99.8292 633.146 102.475 635.292 105.099 637.412C103.498 641.549 96.3508 641.672 87.4196 636.149ZM98.1721 618.456C98.8215 619.806 99.7956 621.822 101.061 624.448C96.2948 624.448 92.0774 624.448 87.8563 624.448C87.8413 623.77 87.8227 623.104 87.8077 622.432C91.1145 621.162 94.4212 619.892 98.1721 618.456ZM507.275 776.229C508.801 773.461 510.41 771.309 511.38 768.548C512.183 766.254 512.227 763.234 512.604 760.54C511.261 760.219 509.917 759.714 508.566 759.627C506.248 759.48 503.923 759.59 501.602 759.59C501.441 758.468 501.277 757.346 501.113 756.231C505.364 752.889 509.618 749.542 515.172 745.177C509.816 743.007 505.815 741.392 501.437 739.623C504.587 733.027 512.552 737.663 513.481 726.141C510.089 724.896 506.845 723.7 503.244 722.38C505.998 719.193 508.312 716.518 511.354 712.998C508.364 712.258 506.129 711.697 503.43 711.031C504.513 707.653 505.491 704.614 506.965 700.027C503.878 700.755 501.87 701.235 499.818 701.722C500.262 698.282 500.639 695.379 500.792 694.189C502.296 687.501 503.431 682.446 504.576 677.341C502.553 676.922 500.669 677.076 499.09 675.997C498.288 675.442 497.429 672.44 497.646 670.967C498.526 664.907 499.814 659.007 500.758 654.045C498.418 651.517 496.175 649.107 494.305 647.091C495.167 641.913 496.037 636.704 497.082 630.446C494.126 631.871 492.159 632.82 489.483 634.108C490.405 628.72 491.114 624.577 491.887 620.04C489.494 619.418 487.285 618.844 484.736 618.178C487.688 610.639 490.319 603.907 493.368 596.115C489.849 594.13 488.326 586.042 483.041 590.16C481.687 591.214 479.111 588.002 476.902 585.105C484.631 584.889 488.961 578.996 489.942 564.811C487.337 563.75 483.709 562.721 480.291 560.717C477.544 559.108 475.047 556.322 472.442 554.06C472.602 553.295 472.767 552.531 472.927 551.766C475.495 552.278 478.066 552.796 480.824 553.344C483.053 548.308 485.523 542.729 488.289 536.496C485.326 535.578 483.026 531.139 479.518 535.83C478.749 536.86 475.275 532.378 471.886 529.426C476.032 528.371 478.921 528.797 480.94 526.812C483.221 524.574 484.721 520.166 487.472 514.982C482.474 513.089 478.249 511.499 474.024 509.902C473.909 510.71 473.789 511.517 473.674 512.325C472.554 509.754 471.434 507.183 470.08 504.07C473.868 503.404 477.742 502.72 481.888 501.986C478.686 492.776 476.133 485.428 473.58 478.098C480.679 471.385 475.193 461.719 476.652 453.914C476.148 453.526 475.648 453.131 475.144 452.743C473.08 458.581 471.016 464.413 468.154 472.501C467.9 465.202 467.721 460.165 467.549 455.11C469.128 454.814 470.378 454.586 471.091 454.457C471.569 451.362 472.114 448.945 472.285 446.455C472.476 443.674 472.326 440.833 472.326 438.015C471.498 436.85 470.669 435.685 469.837 434.52C468.941 437.498 468.045 440.475 466.418 445.875C467.844 438.398 468.855 433.102 469.628 429.052C468.37 425.963 467.351 423.461 466.336 420.97C465.541 426.333 464.686 432.128 463.697 438.805C463.115 438.928 461.801 439.199 461.003 439.365C461.357 447.805 461.708 456.06 462.141 466.299C459.626 463.408 458.226 461.799 456.576 459.894C457.099 467.008 457.595 473.746 458.155 481.378C460.141 483.431 462.958 486.347 465.773 489.263C461.268 492.974 457.431 488.658 453.255 486.353C452.187 487.863 450.896 489.688 449.201 492.092C454.236 496.617 455.998 510.968 464.645 502.677C462.201 516.313 454.345 506.339 450.187 514.495C451.672 518.126 453.389 522.324 454.725 525.591C453.639 528.242 452.564 530.88 451.097 534.462C447.111 536.25 444.245 532.631 443.812 524.568C443.64 521.338 444.954 517.959 445.29 514.569C445.551 511.918 445.339 509.144 444.253 505.248C442.021 509.403 439.785 513.551 436.99 518.742C436.725 514.365 436.523 511.005 436.269 506.795C442.379 507.43 440.565 499.545 441.692 492.813C439.602 494.675 438.094 496.007 436.926 497.049C436.926 492.746 436.926 487.654 436.926 482.562C436.232 482.475 435.542 482.389 434.851 482.309C434.388 487.395 433.926 492.487 433.493 497.27C432.851 496.759 431.462 495.674 429.779 494.355C430.219 501.247 430.589 507.109 431.048 514.353C428.76 512.762 427.39 511.813 425.573 510.555C426.051 515.579 426.484 520.135 427.013 525.72C428.909 527.274 431.705 529.555 434.87 532.144C429.551 537.218 423.722 524.79 418.504 533.611C423.233 537.477 426.107 547.537 432.783 541.638C432.78 542.809 432.78 543.98 432.776 545.146C430.682 545.435 428.562 545.454 426.506 546.07C424.121 546.779 421.792 548.006 418.642 549.35C420.725 552.987 422.374 555.872 424.17 559.01C421.426 561.519 418.702 564.009 415.806 566.666C419.183 571.438 422.733 576.45 426.554 581.856C420.18 587.01 417.478 586.085 415.403 578.959C412.301 579.588 412.559 579.495 411.79 573.7C411.607 572.338 409.084 571.82 407.292 570.698C407.535 569.853 408.196 567.585 408.864 565.286C407.949 564.114 406.945 562.826 406.285 561.975C404.56 565.44 402.814 568.935 400.739 573.102C400.877 575.766 401.097 580.068 401.366 585.314C399.384 584.242 397.992 583.484 396.23 582.528C396.641 586.572 396.965 589.79 397.335 593.415C399.335 594.716 401.959 596.423 404.587 598.131L404.467 599.475C402.023 599.08 399.582 598.643 397.137 598.291C394.79 597.958 392.438 597.712 390.087 597.428C389.945 598.532 389.8 599.629 389.65 600.726C393.778 603.297 397.906 605.868 403.59 609.406C400.201 609.406 398.145 609.209 396.107 609.462C394.099 609.708 392.11 610.405 389.12 611.157C391.274 614.159 392.606 616.027 394.349 618.462C391.763 620.54 389.337 622.488 386.754 624.565C389.927 628.018 393.073 631.445 396.219 634.872C396.044 635.52 395.868 636.173 395.693 636.827C391.147 636.827 386.597 636.827 381.802 636.827C382.701 633.676 383.5 630.884 384.537 627.247C382.477 626.938 380.551 626.643 378.663 626.353C378.401 626.976 378.14 627.598 377.883 628.215C377.144 627.444 376.408 626.674 375.669 625.903C376.662 626.057 377.659 626.205 378.663 626.353C380.98 620.829 383.391 615.096 386.683 607.261C380.391 604.918 375.158 602.976 369.929 601.028C369.922 600.233 369.914 599.438 369.907 598.643C376.349 599.426 380.853 595.431 382.996 584.316C377.334 581.622 371.53 578.86 365.727 576.098C365.772 574.983 365.816 573.873 365.861 572.763C373.624 578.342 376.64 568.67 380.566 561.784C376.457 555.145 369.59 566.5 366.802 557.037C371.06 553.825 375.393 550.552 379.723 547.291C379.543 546.113 379.368 544.942 379.189 543.771C374.919 542.612 370.646 541.453 365.902 540.17C365.171 535.812 365.178 536.219 368.832 536.071C370.635 535.997 372.411 534.098 373.8 533.266C371.65 527.397 369.661 522.046 367.738 516.634C367.473 515.894 367.306 514.193 367.485 514.014C372.602 508.94 368.13 502.042 369.175 496.241C368.75 495.846 368.321 495.458 367.895 495.063C365.745 499.798 363.592 504.532 360.774 510.734C360.509 505.229 360.33 501.53 360.151 497.838C360.677 498.177 361.2 498.516 361.726 498.855C363.155 494.034 364.589 489.207 366.022 484.386C365.656 483.831 365.29 483.271 364.924 482.716C363.387 484.208 361.857 485.693 360.315 487.191C358.938 482.241 365.671 475.922 359.453 472.094C358.068 476.274 356.4 481.292 354.735 486.316L353.814 485.046C354.131 491.328 354.444 497.616 354.829 505.297C352.552 503.515 351.19 502.449 349.443 501.08C349.865 506.752 350.261 512.041 350.69 517.799C352.847 519.525 355.68 521.788 358.512 524.056C358.505 524.734 358.498 525.406 358.49 526.084C354.355 524.975 350.216 523.865 345.17 522.509C344.95 522.768 343.729 524.198 342.08 526.121C347.099 530.455 349.895 541.853 357.161 534.271C357.229 535.387 357.296 536.49 357.363 537.6C355.142 538.37 352.925 539.135 350.708 539.906C348.241 540.769 345.778 541.644 342.345 542.846C344.498 546.995 346.163 550.194 347.991 553.714C345.293 556.328 342.524 559.016 339.523 561.92C342.845 566.932 346.461 572.381 350.078 577.837C349.969 578.651 349.861 579.452 349.757 580.26C341.882 579.027 335.38 593.625 326.934 584.883C331.14 582.195 335.347 579.507 339.553 576.82C339.456 575.907 339.359 574.995 339.265 574.083C333.921 572.437 328.584 570.79 323.243 569.144C323.351 568.325 323.46 567.505 323.568 566.691C327.046 566.37 330.525 566.056 334.414 565.699C333.387 558.615 327.203 559.497 328.379 551.624C328.543 550.502 328.733 549.337 328.718 548.197C328.655 543.814 328.517 539.437 328.405 535.054C323.456 535.683 324.527 530.806 325.326 526.041C325.441 525.332 325.076 524.407 324.792 522.792C323.202 524.204 321.761 525.486 320.907 526.244C320.907 522.274 320.907 517.509 320.907 512.75C320.276 512.67 319.649 512.602 319.018 512.522C318.496 517.102 317.977 521.67 317.503 525.832C316.928 525.511 315.469 524.703 313.987 523.883C314.308 529.956 314.592 535.208 314.931 541.638C312.748 540.152 311.479 539.289 309.695 538.081C310.128 542.803 310.501 546.902 310.953 551.816C313.08 553.363 315.82 555.36 318.559 557.351L318.391 558.794C313.315 557.949 308.24 557.105 303.16 556.26C302.996 557.567 302.832 558.868 302.664 560.169C306.918 563.294 311.166 566.42 315.551 569.644C312.132 570.532 307.848 571.635 302.358 573.053C304.698 576.635 306.206 578.947 308.131 581.887C305.907 583.675 303.78 585.943 301.447 587.078C299.67 587.941 299.558 587.306 299.711 582.725C299.816 579.594 294.117 572.159 292.352 572.905C291.829 573.127 291.139 572.276 290.519 571.919C292.281 566.241 289.922 564.589 287.507 562.012C286.276 560.699 286.081 556.723 285.391 553.856C283.126 558.64 281.379 562.32 279.128 567.073C279.24 569.305 279.449 573.639 279.699 578.7C277.859 577.689 276.404 576.881 274.743 575.969C275.064 583.613 275.624 590.407 280.849 592.638C276.635 592.157 272.425 591.683 268.212 591.202C268.115 591.966 268.014 592.731 267.913 593.495C270.22 596.127 272.526 598.747 275.501 602.138C272.884 603.488 270.936 604.505 268.38 605.831C269.458 607.964 270.387 609.801 271.757 612.513C269.678 614.541 267.633 616.527 265.222 618.875C268.249 622.136 271.436 625.576 275.112 629.54C270.014 632.24 265.95 634.392 261.572 636.71C262.804 632.296 263.688 629.121 264.696 625.515C261.266 624.787 258.273 624.146 255.757 623.616C259.333 617.155 262.576 611.293 266.401 604.376C262.561 601.596 260.673 595.166 255.824 598.476C254.317 599.506 251.835 596.645 249.733 594.161C256.38 592.811 261.561 589.433 262.621 576.049C257.306 573.263 251.316 570.112 245.326 566.975C245.467 565.97 245.609 564.971 245.751 563.973C248.233 564.256 250.719 564.533 253.436 564.836C255.679 560.335 258.183 555.317 260.684 550.299C260.576 549.529 260.464 548.758 260.348 547.987C257.635 548.456 254.869 549.677 252.223 549.165C250.002 548.733 247.923 546.28 246.416 545.189C250.946 541.292 255.216 537.625 259.482 533.957C259.363 532.65 259.247 531.337 259.127 530.03C254.794 528.624 250.461 527.225 245.176 525.511C245.303 524.395 245.643 521.411 245.733 520.61C248.998 519.833 251.301 519.284 254.111 518.619C251.088 510.592 248.554 503.854 246.001 497.073C252.801 491.038 247.587 482.05 249.092 474.973C248.621 474.609 248.147 474.239 247.677 473.875C245.527 479.368 243.378 484.855 240.716 491.636C240.257 485.767 239.921 481.446 239.556 476.767C241.287 476.243 242.68 475.824 243.59 475.546C244.124 470.158 244.594 465.424 245.262 458.667C242.922 461.756 241.291 463.907 239.093 466.798C240.112 461.515 240.97 457.064 241.732 453.113C240.623 450.419 239.586 447.885 238.283 444.723C237.831 451.886 237.41 458.581 237.036 464.468C236.45 463.963 234.894 462.613 233.297 461.232C233.73 469.794 234.107 477.328 234.577 486.649C232.095 483.955 230.796 482.543 228.975 480.558C229.539 487.327 230.042 493.375 230.606 500.063C232.666 502.085 235.447 504.81 238.638 507.929C233.148 514.143 227.071 498.294 222.007 510.186C226.803 514.353 229.259 527.397 237.178 518.921C234.756 532.52 226.963 522.583 222.634 530.239C224.168 533.506 225.84 537.076 227.74 541.132C225.176 544.282 222.455 547.624 219.559 551.181C222.746 556.674 226.448 563.041 231.233 571.277C226.366 572.751 222.951 573.787 218.685 575.075C220.999 580.389 223.003 584.994 225.291 590.253C222.828 590.253 220.66 590.253 218.491 590.253C218.219 591.146 217.95 592.034 217.681 592.922C220.391 595.751 223.115 598.544 225.803 601.441C226.336 602.015 227.183 603.211 227.086 603.698C226.78 605.239 226.303 607.187 225.53 607.89C222.328 610.818 218.991 613.339 215.453 616.218C215.11 613.167 214.83 610.633 214.337 606.219C211.642 609.776 209.37 612.778 206.589 616.452C206.205 613.641 205.884 611.299 205.787 610.596C207.675 607.366 208.996 605.381 210.075 603.075C210.377 602.428 209.967 600.868 209.885 599.728C208.53 600.036 207.175 600.35 205.544 600.72C206.268 598.347 206.973 596.029 207.634 593.859C206.731 592.737 205.846 591.633 205.022 590.598C203.417 593.748 201.566 597.391 199.58 601.294C199.767 604.364 200.017 608.481 200.319 613.401C198.386 612.735 197.109 612.304 195.135 611.619C195.631 614.745 195.967 616.847 196.52 620.324C193.194 620.059 189.943 619.898 186.719 619.362C186.435 619.313 186.308 616.742 186.196 615.953C188.816 615.552 191.22 615.189 195.094 614.603C192.317 611.397 190.694 610.097 189.574 608.05C188.615 606.299 187.562 603.506 187.749 601.484C188.118 597.545 189.328 593.822 190.511 588.594C184.442 591.085 181.288 591.639 180.979 591.929C182.557 588.286 183.819 585.364 185.077 582.454C183.606 581.955 182.136 581.449 180.493 580.894C180.882 579.692 181.531 577.683 181.923 576.462C181.18 574.835 180.538 573.3 179.777 571.956C179.699 571.814 178.941 572.991 178.444 573.183C174.813 574.644 171.051 578.521 168.095 572.523C172.103 569.705 176.269 566.79 180.43 563.868C180.352 562.838 180.269 561.815 180.187 560.785C176.037 559.707 171.883 558.628 167.733 557.549C167.655 558.141 167.573 558.732 167.49 559.324C166.375 557.296 165.262 555.268 164.038 553.043C167.826 552.716 171.409 552.401 175.003 552.087C172.645 546.187 170.737 541.502 168.909 536.737C168.659 536.09 168.64 534.98 168.771 534.197C169.218 531.491 170.125 528.852 170.193 526.146C170.256 523.772 169.427 521.337 168.991 518.927C167.815 520.431 166.498 521.714 165.497 523.489C164.452 525.357 163.71 527.693 161.993 531.879C161.538 526.362 161.284 523.267 161.239 522.718C163.538 517.922 165.083 515.037 166.319 511.832C166.557 511.215 165.449 508.145 165.184 508.225C163.87 508.62 162.635 509.692 160.814 510.894C161.597 507.467 162.377 504.07 163.008 501.321C161.993 499.385 161.056 497.597 159.989 495.563C159.373 500.544 158.768 505.414 158.212 509.896C157.507 509.403 156.156 508.453 154.674 507.417C155.085 513.884 155.443 519.568 155.891 526.676C153.495 524.975 152.11 523.988 150.393 522.768C150.908 527.705 151.39 532.298 151.935 537.507C154.084 539.086 156.779 541.065 159.477 543.05C159.496 543.611 159.515 544.178 159.537 544.739C154.286 543.857 149.035 542.969 143.783 542.082C143.694 543.099 143.601 544.116 143.511 545.133C147.982 548.881 151.046 558.776 157.831 552.401C157.858 553.511 157.88 554.633 157.906 555.743C155.741 556.223 153.554 556.569 151.408 557.222C149.05 557.943 146.728 558.954 143.265 560.261C145.549 563.825 147.157 566.34 148.997 569.213C146.314 571.715 143.664 574.175 140.76 576.881C144.026 581.388 147.448 586.116 152.17 592.638C147.254 593.754 143.955 594.506 139.678 595.48C142.055 599.635 143.821 602.73 145.911 606.398C143.869 606.799 141.97 607.181 139.122 607.748C142.082 612.328 143.336 618.894 148.135 614.455C148.019 623.511 143.873 622.512 139.697 623.807C140.462 621.723 140.91 620.515 141.887 617.852C135.998 615.651 130.385 613.555 124.768 611.459C124.824 610.725 124.884 609.998 124.939 609.264C127.657 609.061 130.65 609.961 133.016 608.352C135.438 606.712 137.248 602.619 140.372 598.075C134.356 597.625 130.03 597.305 125.697 596.984L125.817 595.56C129.814 592.774 133.811 589.987 137.808 587.201C137.711 586.282 137.61 585.364 137.506 584.451C132.206 583.003 126.903 581.554 121.599 580.099C121.666 579.292 121.734 578.478 121.801 577.664C125.376 577.208 128.955 576.746 133.979 576.104C131.251 572.418 129.683 570.643 128.377 568.454C126.686 565.619 124.884 563.319 127.406 558.313C128.56 556.026 127.242 550.342 127.048 546.193C125.54 548.012 123.98 549.726 122.543 551.686C121.73 552.79 121.121 554.294 119.614 557.142C119.162 552.679 118.867 549.738 118.569 546.797C119.009 547.143 119.449 547.494 119.886 547.84C121.454 543.894 123.021 539.949 124.585 536.003C124.148 535.356 123.708 534.702 123.267 534.055C121.842 535.294 120.409 536.533 118.289 538.37C119.184 534.838 119.942 531.861 120.603 529.271C119.662 527.582 118.785 526.004 117.647 523.951C116.956 528.285 116.255 532.668 115.587 536.823C115.139 536.546 113.803 535.732 112.343 534.832C112.698 540.781 113.026 546.286 113.452 553.431C110.94 551.353 109.708 550.336 107.846 548.789C108.458 553.856 108.969 558.116 109.548 562.881C111.649 564.361 114.306 566.229 116.964 568.097C116.919 568.695 116.878 569.292 116.833 569.89C114.243 569.292 111.66 568.584 109.063 568.134C106.682 567.727 104.282 567.591 101.673 568.651C105.689 574.372 109.048 582.553 115.609 576.684C115.605 577.806 115.601 578.922 115.598 580.044C111.056 581.203 106.514 582.362 100.878 583.798C103.181 587.269 104.797 589.71 106.622 592.466C103.83 594.74 101.132 596.947 98.2952 599.265C101.531 603.538 104.883 607.964 108.234 612.39C107.958 613.586 107.682 614.782 107.402 615.978C99.6948 614.122 91.9878 612.273 84.2808 610.417C84.3443 609.721 84.4077 609.024 84.4712 608.327C87.7033 607.883 90.9316 607.434 95.5371 606.805C92.794 603.488 91.122 601.935 89.8269 599.758C88.6774 597.829 86.2925 596.091 89.1998 592.213C90.1665 590.925 89.2932 585.869 89.2633 582.534C87.7368 583.588 86.0685 584.304 84.7287 585.808C83.7658 586.899 83.2358 589.05 81.8138 592.348C81.1495 587.454 80.8136 584.988 80.8061 584.938C83.1089 580.74 84.6652 577.911 86.2178 575.081C85.8371 574.2 85.4527 573.324 85.072 572.443C83.6127 573.213 82.1534 573.978 80.7203 574.736C79.7723 571.204 86.0499 566.531 79.5483 564.281C79.0072 566.734 78.2458 570.18 77.533 573.423C76.7417 573.281 75.4914 573.059 74.3755 572.862C74.689 577.806 74.9652 582.171 75.3011 587.528C73.1364 586.295 71.8077 585.543 69.9864 584.507C70.5164 588.65 70.3037 593.353 71.6211 595.61C73.17 598.254 76.0513 598.766 78.2197 601.528C73.3529 600.776 68.4935 600.024 63.6267 599.271C63.5633 600.073 63.4999 600.868 63.4364 601.657C65.9519 604.185 68.4674 606.706 72.1884 610.442C66.2915 611.841 61.5031 612.982 56.2071 614.239C57.3865 608.981 58.3009 604.9 59.1817 600.985C55.8078 600.264 52.8556 599.635 50.6312 599.161C53.9753 591.991 57.0319 585.758 59.7527 579.144C60.0625 578.392 58.5547 574.009 57.7485 573.891C55.1248 573.515 53.3147 566.771 49.8512 571.487C49.1234 572.48 46.2943 569.249 44.2678 566.543C51.8889 565.89 55.9347 559.349 57.5582 547.617C53.2176 538.987 43.8124 545.848 39.9086 532.835C43.0212 533.488 45.7009 534.049 48.1007 534.548C50.564 528.963 52.975 523.489 55.6734 517.38C52.6317 517.213 50.3587 512.941 46.9027 516.831C45.8428 518.027 42.3643 513.348 40.1213 509.976C47.5894 513.403 50.5155 504.754 54.6545 496.105C49.8512 494.336 45.5591 492.752 41.2708 491.173C41.1738 491.913 41.0767 492.653 40.9797 493.393C39.8302 490.859 38.6806 488.326 37.2661 485.206C41.2073 484.639 45.0179 484.097 49.3286 483.474C46.1376 474.4 43.5997 467.187 40.9872 459.752C47.4738 452.977 42.7301 443.582 43.0548 434.791C41.7672 437.343 40.3004 439.711 39.2442 442.509C38.1357 445.444 37.4192 448.785 35.1649 451.732C35.0343 446.899 34.9074 442.078 34.7618 436.733C36.2099 436.394 37.5013 436.092 38.5202 435.852C39.0539 429.946 39.539 424.57 40.2071 417.185C37.9864 420.28 36.4301 422.45 34.3252 425.39C35.2657 419.817 36.1054 414.867 36.8071 410.706C35.7695 408.055 34.829 405.663 33.784 403C33.6123 404.837 33.6086 407.112 33.1458 409.097C32.8211 410.49 31.8768 411.483 31.0632 412.913C31.6342 416.562 32.3023 420.828 33.0077 425.335C31.317 423.159 29.8913 421.322 28.2678 419.232C28.6932 428.953 29.0553 437.331 29.5181 447.904C27.0324 444.951 25.8082 443.49 24.069 441.425C24.5169 448.465 24.9237 454.796 25.4238 462.637C27.3123 464.61 30.3317 467.754 33.2839 470.842C30.328 474.708 25.2559 473.376 20.781 467.248C19.5232 469.135 18.2655 471.034 16.6905 473.407C21.77 477.297 23.0315 493.769 32.209 485.107C30.9699 487.654 29.7271 490.206 29.4434 490.779C24.711 491.876 21.2587 492.684 16.6121 493.763C18.9783 499.514 20.7101 503.725 22.4567 507.966C19.9599 511.32 17.2242 515 14.3317 518.89C17.6832 525.27 21.3595 532.274 25.9949 541.101C21.2176 542.723 17.7392 543.9 13.2419 545.423C15.7313 551.366 17.7989 556.316 20.0084 561.587C17.825 561.753 15.6343 561.926 12.4805 562.166C15.1006 568.275 15.8806 575.507 21.6468 574.452C22.3634 587.62 12.2566 582.319 10.8831 592.503C15.3319 603.987 15.3319 603.987 25.8456 601.417C23.7854 603.852 21.7215 606.281 19.5157 608.882C19.9524 610.288 20.4189 611.78 21.0385 613.771C16.2799 615.022 11.6818 616.237 7.14719 617.433C7.65851 634.762 18.1535 631.587 23.0576 640.143C18.4334 647.849 12.8202 645.877 6.78518 644.798C8.08026 649.082 8.86028 653.687 10.5995 656.868C12.4955 660.333 15.2834 662.466 17.6832 665.184C17.6981 666.109 17.7131 667.027 17.7317 667.958C12.2155 670.171 6.69933 672.385 0.761386 674.764C3.23211 681.934 5.34455 688.074 7.9571 695.656C7.58761 696.045 6.08351 697.648 4.02333 699.842C6.44181 704.318 8.78938 708.652 11.2228 713.158C7.96456 715.513 1.98557 710.667 1.89973 723.157C4.77726 726.246 8.55423 730.302 12.5477 734.586C12.3088 734.741 11.137 736.276 10.1591 735.992C5.69539 734.679 2.8589 736.682 2.13112 744.709C2.04901 745.609 0.738978 746.219 0 746.959C0 747.557 0 748.155 0 748.759C3.52321 751.786 7.6361 753.019 9.22975 760.762C11.3534 771.088 20.4525 774.318 25.5134 766.846C28.1521 762.956 30.4287 758.388 33.8213 752.47C33.3249 761.606 32.9106 769.294 32.4665 777.419C35.0343 777.419 37.2997 777.419 39.9571 777.419C39.6809 772.327 39.4383 767.74 39.1546 762.451C46.9288 774.269 49.7952 771.698 52.8556 766.359C62.9736 770.003 71.0352 763.259 79.6081 754.203C79.149 759.492 78.8056 763.456 78.425 767.851C80.8024 767.851 82.9297 767.851 85.3706 767.851C85.3706 765.317 85.3706 762.87 85.3706 760.373C96.0895 765.977 106.562 766.261 117.367 756.57C116.971 761.169 116.71 764.233 116.382 768.036C118.912 768.036 121.274 768.036 123.846 768.036C123.633 764.941 123.432 762.063 123.148 757.957C127.701 764.004 131.952 762.149 136.718 761.976C142.671 761.767 149.93 757.353 155.756 767.574C160.015 775.033 166.304 772.66 171.891 769.466C173.742 768.406 175.657 767.629 177.541 766.729C177.717 767.648 177.888 768.579 178.064 769.503C176.478 771.174 174.891 772.838 173.339 774.466C174.332 779.952 183.602 789.767 187.234 790.266C193.556 791.129 198.983 788.028 204.719 779.293C204.212 785.612 203.898 789.471 203.547 793.866C205.936 793.866 208.037 793.866 210.504 793.866C210.433 791.45 210.37 789.28 210.306 786.949C222.32 793.848 233.767 786.099 245.677 785.827C245.434 780.865 245.221 776.537 244.982 771.71C251.842 780.927 254.764 781.45 258.769 774.589C263.916 778.208 268.592 776.586 273.082 771.445C274.019 770.379 275.433 770.428 276.635 769.99C281.924 768.055 287.216 766.119 292.867 764.047C292.762 765.829 292.534 769.664 292.281 773.893C294.43 773.893 296.554 773.893 299.043 773.893C299.167 771.624 299.29 769.392 299.316 768.844C304.836 768.844 310.068 769.281 315.264 768.714C320.242 768.172 325.18 766.587 330.133 765.465C330.129 764.467 330.125 763.468 330.118 762.463C328.647 761.65 327.173 760.83 325.621 759.96C328.058 753.679 331.562 752.926 336.44 757.174C344.823 764.479 350.544 762.488 356.796 750.109C357.128 749.45 357.438 748.759 359.102 748.352C358.695 754.209 358.289 760.065 357.833 766.575C360.285 766.575 362.696 766.575 365.238 766.575C365.029 762.642 364.85 759.147 364.596 754.338C369.015 760.651 373.061 765.373 378.028 758.049C378.442 757.433 379.726 758.031 380.495 758.53C389.262 764.294 397.432 763.462 405.714 750.836C405.355 756.681 405.117 760.509 404.811 765.496C406.874 765.687 408.916 765.878 411.387 766.106C411.529 763.264 411.648 760.842 411.767 758.432C412.171 758.351 412.506 758.179 412.824 758.246C416.403 758.98 419.975 760.182 423.565 760.386C426.86 760.564 430.182 759.405 433.478 759.603C433.847 759.621 434.116 764.553 434.112 767.142C435.784 773.806 442.689 772.302 442.734 783.343C442.741 785.279 447.488 788.201 450.194 788.768C452.971 789.347 456.024 788.114 458.79 786.746C464.037 784.157 465.75 786.98 464.742 797.3C467.284 797.3 469.822 797.3 472.364 797.3C472.364 792.584 472.364 787.868 472.364 782.862C474.301 785.587 475.984 789.717 478.107 790.476C480.384 791.295 483.079 788.947 485.542 788.534C494.682 786.401 503.822 784.268 512.963 782.135C512.944 781.05 512.925 779.959 512.907 778.88C511.164 778.06 509.421 777.24 507.275 776.229Z" fill="url(#paint5_linear_183_1268)"/>
<path d="M929.044 624.605C928.562 623.175 927.726 620.715 927.349 619.593C931.794 617.115 934.94 618.44 937.781 626.01C934.944 625.554 932.134 625.098 929.044 624.605ZM824.102 673.75C826.252 678.01 827.662 680.803 829.626 684.699C823.453 682.542 818.004 680.631 812.558 678.726C812.555 677.628 812.555 676.525 812.551 675.421C819.362 680.698 822.997 672.512 827.2 666.908C828.76 668.948 830.096 670.693 832.432 673.75C829.256 673.75 827.304 673.75 824.102 673.75ZM795.652 682.807C792.983 681.894 790.315 680.97 786.526 679.663C789.333 676.636 790.871 674.971 792.591 673.116C793.849 675.711 794.95 677.98 796.055 680.255C795.92 681.105 795.79 681.956 795.652 682.807ZM711.151 710.407C711.588 711.732 712.047 713.113 712.917 715.757C707.497 715.757 702.799 715.757 698.1 715.757C697.779 715.024 697.461 714.278 697.141 713.538C699.94 712.576 702.743 711.609 705.792 710.561C703.302 706.375 701.089 702.645 698.872 698.921C699.119 698.015 699.361 697.109 699.604 696.209C705.4 698.249 709.744 713.803 717.253 699.908C717.279 701.357 717.309 702.799 717.339 704.242C715.279 706.295 713.223 708.341 711.151 710.407ZM628.969 723.248C628.536 722.156 628.103 721.071 627.67 719.986C630.831 716.781 633.996 713.575 637.157 710.37C637.392 711.152 637.623 711.935 637.855 712.724C634.892 716.226 631.932 719.734 628.969 723.248ZM573.814 713.853C577.804 712.367 580.797 711.251 584.854 709.741C586.228 710.85 588.874 712.996 591.497 715.116C589.896 719.253 582.749 719.382 573.814 713.853ZM584.571 696.166C585.22 697.51 586.194 699.532 587.459 702.152C582.693 702.152 578.476 702.152 574.255 702.152C574.24 701.48 574.221 700.802 574.206 700.136C577.513 698.866 580.816 697.596 584.571 696.166ZM993.67 853.935C995.196 851.167 996.805 849.015 997.772 846.247C998.574 843.96 998.623 840.946 999 838.246C997.652 837.931 996.312 837.426 994.958 837.333C992.64 837.185 990.319 837.29 987.997 837.29C987.833 836.174 987.669 835.058 987.508 833.936C991.759 830.595 996.014 827.248 1001.57 822.877C996.212 820.719 992.211 819.104 987.829 817.335C990.983 810.732 998.951 815.362 999.88 803.84C996.48 802.595 993.241 801.411 989.635 800.086C992.394 796.898 994.708 794.223 997.749 790.703C994.76 789.957 992.524 789.408 989.822 788.736C990.908 785.358 991.882 782.319 993.36 777.726C990.274 778.459 988.266 778.934 986.213 779.427C986.657 775.988 987.034 773.084 987.187 771.9C988.691 765.212 989.826 760.15 990.972 755.046C988.949 754.633 987.06 754.781 985.482 753.702C984.679 753.153 983.824 750.151 984.037 748.671C984.922 742.611 986.209 736.712 987.15 731.743C984.814 729.221 982.571 726.811 980.697 724.795C981.559 719.617 982.432 714.407 983.474 708.15C980.522 709.574 978.555 710.524 975.879 711.812C976.801 706.424 977.506 702.281 978.286 697.744C975.89 697.121 973.677 696.548 971.131 695.882C974.083 688.337 976.715 681.611 979.76 673.819C976.244 671.833 974.718 663.745 969.437 667.863C968.082 668.917 965.507 665.706 963.297 662.814C971.023 662.592 975.353 656.699 976.334 642.52C973.733 641.453 970.105 640.424 966.686 638.42C963.94 636.811 961.443 634.025 958.837 631.762C958.998 630.998 959.158 630.234 959.319 629.469C961.89 629.981 964.458 630.499 967.22 631.047C969.448 626.017 971.919 620.438 974.684 614.199C971.721 613.28 969.422 608.842 965.914 613.533C965.141 614.563 961.67 610.081 958.282 607.128C962.424 606.074 965.317 606.499 967.34 604.514C969.616 602.282 971.116 597.874 973.867 592.684C968.866 590.797 964.645 589.201 960.42 587.604C960.304 588.411 960.189 589.219 960.069 590.033C958.95 587.462 957.83 584.891 956.475 581.778C960.259 581.106 964.133 580.422 968.284 579.688C965.081 570.478 962.529 563.13 959.976 555.8C967.074 549.086 961.588 539.42 963.044 531.615C962.544 531.227 962.04 530.838 961.536 530.444C959.472 536.282 957.412 542.114 954.549 550.208C954.296 542.909 954.12 537.866 953.941 532.811C955.523 532.522 956.774 532.287 957.487 532.158C957.964 529.069 958.509 526.647 958.681 524.156C958.867 521.376 958.722 518.534 958.722 515.716C957.893 514.551 957.061 513.392 956.229 512.227C955.337 515.205 954.441 518.176 952.814 523.577C954.24 516.105 955.251 510.809 956.023 506.753C954.766 503.67 953.743 501.161 952.732 498.671C951.937 504.034 951.078 509.823 950.093 516.505C949.511 516.629 948.197 516.9 947.395 517.066C947.753 525.512 948.104 533.767 948.537 544.006C946.018 541.109 944.622 539.5 942.968 537.601C943.494 544.709 943.991 551.447 944.551 559.085C946.536 561.132 949.354 564.048 952.164 566.964C947.663 570.675 943.823 566.36 939.65 564.054C938.583 565.565 937.292 567.389 935.594 569.794C940.632 574.325 942.393 588.664 951.045 580.379C948.596 594.015 940.74 584.041 936.583 592.197C938.068 595.828 939.785 600.026 941.117 603.293C940.035 605.95 938.956 608.577 937.493 612.171C933.504 613.952 930.641 610.333 930.208 602.276C930.033 599.046 931.35 595.661 931.682 592.271C931.943 589.62 931.734 586.846 930.648 582.95C928.417 587.105 926.181 591.253 923.386 596.444C923.121 592.073 922.919 588.708 922.665 584.503C928.775 585.132 926.961 577.247 928.088 570.521C925.998 572.371 924.49 573.708 923.318 574.75C923.318 570.447 923.318 565.355 923.318 560.269C922.628 560.177 921.937 560.096 921.243 560.01C920.784 565.096 920.321 570.182 919.888 574.972C919.247 574.467 917.858 573.375 916.175 572.056C916.615 578.955 916.985 584.811 917.444 592.055C915.152 590.465 913.786 589.515 911.969 588.257C912.447 593.288 912.88 597.838 913.409 603.423C915.305 604.976 918.101 607.263 921.266 609.847C915.944 614.92 910.118 602.492 904.9 611.314C909.629 615.179 912.502 625.24 919.179 619.346C919.176 620.511 919.172 621.683 919.172 622.854C917.078 623.138 914.958 623.162 912.902 623.773C910.517 624.482 908.188 625.708 905.038 627.052C907.121 630.689 908.77 633.581 910.562 636.713C907.822 639.222 905.098 641.712 902.198 644.369C905.579 649.141 909.129 654.159 912.95 659.559C906.576 664.707 903.874 663.795 901.799 656.662C898.697 657.291 898.951 657.198 898.186 651.409C898.003 650.041 895.48 649.529 893.689 648.401C893.931 647.557 894.592 645.288 895.26 642.988C894.345 641.817 893.341 640.529 892.677 639.684C890.957 643.142 889.21 646.638 887.135 650.805C887.269 653.469 887.489 657.772 887.762 663.018C885.78 661.945 884.384 661.187 882.626 660.231C883.037 664.282 883.362 667.494 883.731 671.118C885.732 672.419 888.355 674.127 890.983 675.834L890.863 677.178C888.419 676.784 885.978 676.346 883.533 675.995C881.186 675.662 878.834 675.421 876.483 675.132C876.338 676.235 876.196 677.332 876.047 678.43C880.174 681 884.302 683.571 889.983 687.11C886.597 687.11 884.541 686.919 882.503 687.165C880.492 687.412 878.506 688.108 875.517 688.861C877.67 691.869 878.999 693.725 880.745 696.166C878.159 698.243 875.733 700.191 873.15 702.269C876.319 705.721 879.465 709.149 882.611 712.577C882.44 713.23 882.264 713.877 882.089 714.531C877.539 714.531 872.994 714.531 868.198 714.531C869.097 711.381 869.896 708.588 870.933 704.951C868.873 704.642 866.944 704.347 865.059 704.063C864.798 704.679 864.536 705.302 864.275 705.925C863.54 705.148 862.805 704.377 862.066 703.607C863.055 703.755 864.055 703.909 865.059 704.063C867.377 698.539 869.788 692.806 873.079 684.964C866.787 682.622 861.554 680.68 856.326 678.732C856.318 677.936 856.311 677.141 856.303 676.346C862.741 677.135 867.25 673.134 869.392 662.019C863.73 659.325 857.927 656.563 852.123 653.801C852.168 652.692 852.213 651.582 852.254 650.466C860.021 656.052 863.036 646.379 866.962 639.487C862.853 632.847 855.982 644.203 853.198 634.74C857.457 631.528 861.786 628.261 866.119 624.993C865.94 623.822 865.764 622.645 865.585 621.473C861.312 620.314 857.042 619.155 852.299 617.873C851.567 613.515 851.571 613.921 855.225 613.774C857.031 613.7 858.804 611.801 860.196 610.968C858.046 605.1 856.057 599.748 854.135 594.336C853.87 593.596 853.702 591.895 853.877 591.716C858.998 586.648 854.527 579.744 855.572 573.943C855.142 573.554 854.717 573.16 854.292 572.765C852.138 577.5 849.988 582.234 847.171 588.436C846.902 582.931 846.726 579.232 846.547 575.54C847.07 575.879 847.596 576.218 848.119 576.557C849.552 571.736 850.985 566.909 852.418 562.088C852.049 561.533 851.683 560.978 851.317 560.417C849.783 561.909 848.253 563.395 846.712 564.893C845.331 559.943 852.067 553.624 845.849 549.795C844.465 553.975 842.796 558.993 841.128 564.011L840.21 562.748C840.524 569.03 840.841 575.311 841.225 583.005C838.949 581.217 837.586 580.151 835.84 578.782C836.261 584.454 836.657 589.743 837.083 595.501C839.24 597.227 842.072 599.49 844.909 601.758C844.901 602.436 844.894 603.115 844.887 603.786C840.751 602.677 836.612 601.567 831.566 600.217C831.346 600.47 830.122 601.9 828.476 603.824C833.496 608.157 836.291 619.556 843.558 611.973C843.625 613.083 843.692 614.199 843.759 615.302C841.539 616.073 839.322 616.837 837.105 617.614C834.638 618.471 832.175 619.346 828.741 620.549C830.895 624.697 832.559 627.897 834.388 631.423C831.689 634.031 828.92 636.719 825.92 639.622C829.237 644.634 832.858 650.09 836.474 655.546C836.366 656.354 836.258 657.155 836.15 657.969C828.278 656.73 821.777 671.328 813.327 662.586C817.537 659.898 821.743 657.21 825.946 654.523C825.852 653.61 825.755 652.698 825.658 651.785C820.318 650.139 814.981 648.494 809.636 646.848C809.748 646.028 809.856 645.208 809.964 644.394C813.443 644.073 816.921 643.759 820.81 643.401C819.784 636.318 813.6 637.206 814.772 629.333C814.939 628.205 815.13 627.04 815.115 625.9C815.051 621.516 814.913 617.139 814.798 612.756C809.852 613.385 810.924 608.509 811.722 603.743C811.838 603.041 811.468 602.11 811.189 600.488C809.599 601.906 808.158 603.189 807.304 603.953C807.304 599.977 807.304 595.217 807.304 590.452C806.673 590.378 806.042 590.304 805.411 590.23C804.892 594.804 804.374 599.379 803.9 603.534C803.325 603.213 801.866 602.406 800.384 601.586C800.705 607.658 800.989 612.91 801.328 619.34C799.141 617.855 797.876 616.998 796.092 615.783C796.525 620.505 796.898 624.605 797.346 629.518C799.477 631.065 802.216 633.063 804.956 635.054L804.788 636.497C799.712 635.658 794.633 634.808 789.557 633.969C789.393 635.27 789.228 636.571 789.061 637.872C793.311 640.997 797.562 644.123 801.944 647.347C798.525 648.235 794.245 649.338 788.754 650.762C791.095 654.338 792.602 656.65 794.524 659.59C792.304 661.378 790.176 663.647 787.844 664.781C786.067 665.65 785.952 665.009 786.108 660.428C786.213 657.297 780.514 649.868 778.749 650.608C778.226 650.83 777.532 649.979 776.916 649.622C778.678 643.944 776.319 642.292 773.904 639.721C772.672 638.402 772.475 634.425 771.788 631.559C769.519 636.343 767.776 640.023 765.525 644.776C765.634 647.014 765.846 651.342 766.096 656.403C764.256 655.392 762.801 654.584 761.14 653.672C761.457 661.316 762.021 668.11 767.246 670.348C763.032 669.861 758.819 669.386 754.609 668.905C754.508 669.669 754.411 670.434 754.31 671.204C756.613 673.825 758.923 676.451 761.898 679.842C759.281 681.198 757.333 682.209 754.777 683.534C755.855 685.667 756.781 687.504 758.154 690.217C756.072 692.245 754.03 694.236 751.619 696.579C754.642 699.84 757.833 703.28 761.51 707.244C756.411 709.944 752.347 712.096 747.969 714.414C749.201 710.006 750.085 706.825 751.093 703.224C747.663 702.491 744.67 701.85 742.154 701.314C745.726 694.859 748.969 688.996 752.799 682.079C748.958 679.299 747.066 672.869 742.218 676.18C740.714 677.209 738.232 674.349 736.131 671.864C742.774 670.514 747.958 667.142 749.018 653.752C743.703 650.959 737.713 647.821 731.723 644.671C731.865 643.673 732.007 642.68 732.148 641.682C734.63 641.959 737.112 642.23 739.833 642.538C742.076 638.038 744.577 633.02 747.081 628.002C746.969 627.231 746.857 626.46 746.745 625.69C744.032 626.158 741.262 627.379 738.62 626.867C736.396 626.436 734.317 623.988 732.813 622.891C737.344 618.995 741.609 615.327 745.879 611.659C745.76 610.352 745.64 609.045 745.521 607.732C741.192 606.332 736.858 604.927 731.574 603.213C731.701 602.097 732.04 599.114 732.13 598.312C735.392 597.535 737.698 596.987 740.509 596.321C737.486 588.288 734.951 581.556 732.399 574.775C739.195 568.746 733.981 559.751 735.489 552.674C735.015 552.31 734.545 551.941 734.074 551.577C731.925 557.07 729.775 562.556 727.114 569.344C726.655 563.469 726.315 559.147 725.953 554.468C727.685 553.944 729.077 553.525 729.988 553.248C730.521 547.86 730.991 543.125 731.66 536.374C729.319 539.457 727.685 541.609 725.49 544.5C726.509 539.223 727.368 534.765 728.129 530.814C727.02 528.12 725.979 525.586 724.68 522.424C724.229 529.587 723.807 536.282 723.434 542.176C722.848 541.664 721.288 540.314 719.694 538.933C720.127 547.502 720.504 555.029 720.974 564.35C718.492 561.656 717.19 560.245 715.369 558.266C715.936 565.029 716.44 571.076 717 577.771C719.063 579.793 721.844 582.512 725.035 585.637C719.545 591.845 713.469 575.996 708.401 587.887C713.2 592.061 715.656 605.1 723.576 596.629C721.153 610.223 713.361 600.285 709.031 607.941C710.565 611.215 712.237 614.785 714.137 618.835C711.573 621.985 708.852 625.332 705.956 628.883C709.143 634.376 712.842 640.744 717.63 648.987C712.764 650.454 709.345 651.49 705.083 652.778C707.393 658.092 709.401 662.697 711.689 667.962C709.225 667.962 707.057 667.962 704.889 667.962C704.616 668.85 704.347 669.737 704.079 670.625C706.788 673.455 709.513 676.253 712.2 679.145C712.73 679.718 713.577 680.92 713.484 681.395C713.178 682.942 712.7 684.89 711.927 685.599C708.722 688.521 705.385 691.043 701.851 693.922C701.507 690.87 701.227 688.337 700.731 683.929C698.04 687.48 695.767 690.482 692.983 694.156C692.602 691.345 692.281 689.002 692.184 688.306C694.073 685.075 695.394 683.084 696.473 680.779C696.775 680.137 696.364 678.571 696.278 677.431C694.927 677.739 693.573 678.054 691.942 678.423C692.666 676.05 693.371 673.738 694.032 671.568C693.129 670.44 692.244 669.33 691.415 668.301C689.814 671.451 687.959 675.095 685.978 678.997C686.164 682.067 686.414 686.185 686.717 691.111C684.78 690.445 683.507 690.001 681.529 689.329C682.029 692.448 682.365 694.557 682.917 698.034C679.592 697.762 676.341 697.608 673.113 697.066C672.833 697.017 672.706 694.446 672.594 693.657C675.214 693.256 677.618 692.892 681.492 692.307C678.715 689.101 677.087 687.8 675.972 685.753C675.012 684.003 673.956 681.216 674.147 679.194C674.516 675.255 675.725 671.531 676.908 666.304C670.84 668.788 667.686 669.343 667.376 669.633C668.955 665.983 670.217 663.067 671.474 660.157C670.004 659.658 668.53 659.159 666.891 658.598C667.279 657.396 667.929 655.386 668.321 654.165C667.578 652.538 666.936 651.009 666.175 649.659C666.096 649.523 665.339 650.694 664.842 650.892C661.207 652.347 657.449 656.224 654.493 650.226C658.501 647.415 662.666 644.493 666.828 641.57C666.746 640.547 666.667 639.518 666.585 638.488C662.435 637.409 658.281 636.33 654.131 635.252C654.049 635.843 653.97 636.435 653.888 637.027C652.772 634.999 651.656 632.971 650.436 630.745C654.224 630.412 657.807 630.104 661.401 629.79C659.042 623.89 657.135 619.204 655.303 614.439C655.056 613.792 655.038 612.682 655.168 611.899C655.616 609.193 656.523 606.555 656.59 603.848C656.654 601.475 655.825 599.04 655.389 596.629C654.209 598.133 652.892 599.416 651.895 601.191C650.85 603.059 650.108 605.395 648.391 609.581C647.935 604.064 647.678 600.969 647.633 600.421C649.936 595.624 651.481 592.745 652.716 589.533C652.952 588.923 651.847 585.847 651.582 585.927C650.268 586.322 649.033 587.388 647.208 588.596C647.995 585.169 648.775 581.772 649.406 579.023C648.391 577.087 647.454 575.305 646.387 573.264C645.771 578.246 645.166 583.116 644.61 587.598C643.901 587.104 642.554 586.161 641.072 585.12C641.479 591.587 641.841 597.27 642.289 604.378C639.893 602.677 638.508 601.691 636.791 600.47C637.306 605.408 637.788 610 638.333 615.21C640.482 616.794 643.177 618.773 645.875 620.752C645.894 621.313 645.913 621.88 645.931 622.447C640.68 621.56 635.433 620.672 630.181 619.784C630.092 620.801 629.999 621.818 629.905 622.836C634.376 626.584 637.444 636.478 644.226 630.104C644.256 631.22 644.278 632.336 644.304 633.445C642.136 633.926 639.952 634.271 637.803 634.925C635.448 635.646 633.126 636.657 629.659 637.964C631.947 641.527 633.555 644.043 635.395 646.922C632.712 649.418 630.062 651.884 627.158 654.584C630.424 659.091 633.843 663.813 638.568 670.341C633.652 671.457 630.353 672.209 626.076 673.183C628.453 677.338 630.219 680.439 632.309 684.095C630.267 684.502 628.368 684.884 625.52 685.452C628.48 690.032 629.734 696.597 634.529 692.159C634.417 701.215 630.271 700.216 626.095 701.511C626.86 699.427 627.304 698.219 628.285 695.555C622.396 693.355 616.783 691.258 611.166 689.162C611.222 688.429 611.282 687.695 611.338 686.968C614.055 686.771 617.044 687.665 619.414 686.056C621.833 684.422 623.646 680.322 626.77 675.779C620.754 675.335 616.425 675.008 612.095 674.688L612.215 673.264C616.212 670.477 620.209 667.691 624.206 664.904C624.109 663.986 624.005 663.073 623.904 662.155C618.6 660.706 613.301 659.257 607.994 657.808C608.065 656.995 608.132 656.181 608.199 655.367C611.774 654.911 615.354 654.449 620.377 653.808C617.645 650.121 616.081 648.352 614.775 646.157C613.081 643.321 611.282 641.022 613.805 636.022C614.958 633.735 613.64 628.045 613.446 623.896C611.935 625.715 610.378 627.428 608.942 629.389C608.128 630.492 607.516 631.996 606.012 634.845C605.56 630.387 605.265 627.441 604.967 624.5C605.407 624.852 605.844 625.197 606.284 625.548C607.852 621.603 609.419 617.651 610.983 613.706C610.543 613.058 610.106 612.405 609.666 611.758C608.24 612.997 606.807 614.23 604.683 616.073C605.583 612.541 606.34 609.569 607.001 606.974C606.06 605.284 605.183 603.706 604.045 601.653C603.355 605.987 602.653 610.371 601.985 614.532C601.537 614.254 600.201 613.434 598.742 612.534C599.096 618.483 599.425 623.989 599.85 631.14C597.338 629.056 596.107 628.039 594.244 626.497C594.856 631.559 595.368 635.819 595.942 640.584C598.047 642.064 600.705 643.931 603.358 645.799C603.317 646.397 603.272 646.996 603.228 647.593C600.641 646.996 598.059 646.287 595.461 645.836C593.08 645.43 590.68 645.3 588.071 646.354C592.083 652.075 595.446 660.256 602.007 654.393C602.003 655.509 602 656.625 601.996 657.747C597.454 658.906 592.912 660.065 587.276 661.501C589.579 664.972 591.195 667.413 593.016 670.169C590.228 672.45 587.53 674.657 584.694 676.975C587.926 681.241 591.281 685.667 594.632 690.093C594.356 691.289 594.08 692.485 593.8 693.681C586.093 691.826 578.386 689.976 570.679 688.121C570.743 687.424 570.806 686.727 570.87 686.025C574.102 685.587 577.33 685.143 581.935 684.508C579.192 681.198 577.517 679.638 576.225 677.468C575.076 675.538 572.691 673.8 575.598 669.922C576.565 668.628 575.692 663.572 575.662 660.237C574.135 661.291 572.467 662.001 571.127 663.517C570.161 664.602 569.634 666.753 568.212 670.052C567.544 665.157 567.208 662.691 567.205 662.642C569.507 658.444 571.064 655.614 572.616 652.784C572.236 651.903 571.851 651.027 571.47 650.152C570.011 650.916 568.552 651.681 567.119 652.439C566.171 648.906 572.448 644.234 565.947 641.983C565.406 644.437 564.644 647.883 563.931 651.126C563.14 650.984 561.89 650.762 560.774 650.565C561.084 655.509 561.364 659.874 561.7 665.231C559.531 663.998 558.206 663.246 556.385 662.21C556.915 666.353 556.702 671.056 558.02 673.313C559.565 675.957 562.446 676.469 564.618 679.231C559.751 678.479 554.888 677.733 550.025 676.981C549.962 677.776 549.898 678.572 549.835 679.367C552.351 681.888 554.862 684.416 558.587 688.152C552.69 689.551 547.902 690.685 542.606 691.937C543.785 686.684 544.7 682.603 545.58 678.689C542.206 677.967 539.254 677.339 537.03 676.864C540.37 669.7 543.431 663.461 546.151 656.847C546.461 656.095 544.95 651.712 544.147 651.601C541.523 651.218 539.713 644.474 536.246 649.196C535.522 650.183 532.693 646.952 530.667 644.246C538.288 643.592 542.333 637.052 543.957 625.326C539.616 616.696 530.211 623.551 526.304 610.543C529.416 611.19 532.1 611.751 534.496 612.257C536.959 606.665 539.374 601.191 542.068 595.082C539.03 594.915 536.757 590.649 533.301 594.539C532.242 595.729 528.763 591.05 526.52 587.684C533.988 591.105 536.914 582.456 541.053 573.807C536.25 572.038 531.958 570.454 527.67 568.875C527.573 569.615 527.472 570.361 527.378 571.101C526.229 568.561 525.079 566.027 523.665 562.908C527.606 562.341 531.413 561.798 535.727 561.182C532.536 552.101 529.999 544.888 527.386 537.46C533.873 530.678 529.129 521.283 529.454 512.492C528.166 515.051 526.699 517.412 525.643 520.211C524.535 523.145 523.814 526.486 521.564 529.433C521.433 524.606 521.302 519.779 521.161 514.434C522.605 514.095 523.9 513.793 524.919 513.552C525.449 507.647 525.938 502.271 526.602 494.886C524.385 497.98 522.829 500.15 520.724 503.091C521.665 497.518 522.504 492.567 523.206 488.406C522.168 485.755 521.228 483.357 520.179 480.7C520.011 482.537 520.004 484.812 519.545 486.797C519.22 488.191 518.276 489.189 517.462 490.62C518.033 494.263 518.701 498.529 519.406 503.042C517.716 500.859 516.29 499.022 514.667 496.932C515.088 506.654 515.454 515.032 515.917 525.605C513.431 522.652 512.207 521.197 510.468 519.125C510.916 526.166 511.323 532.497 511.823 540.339C513.711 542.311 516.731 545.462 519.683 548.544C516.727 552.409 511.655 551.078 507.176 544.95C505.922 546.836 504.664 548.735 503.089 551.108C508.169 554.998 509.43 571.471 518.608 562.809C517.365 565.355 516.122 567.907 515.842 568.481C511.106 569.584 507.658 570.386 503.011 571.464C505.377 577.222 507.105 581.427 508.856 585.674C506.359 589.028 503.623 592.702 500.731 596.592C504.082 602.973 507.758 609.976 512.394 618.81C507.617 620.425 504.138 621.603 499.637 623.125C502.127 629.068 504.198 634.018 506.407 639.289C504.22 639.462 502.033 639.629 498.88 639.875C501.5 645.984 502.276 653.21 508.046 652.162C508.762 665.33 498.656 660.022 497.282 670.212C501.731 681.691 501.731 681.691 512.245 679.12C510.184 681.555 508.12 683.984 505.915 686.586C506.351 687.991 506.818 689.489 507.434 691.474C502.679 692.726 498.081 693.94 493.546 695.136C494.058 712.466 504.552 709.291 509.457 717.847C504.832 725.559 499.219 723.58 493.18 722.502C494.479 726.786 495.259 731.391 496.995 734.566C498.894 738.037 501.682 740.17 504.082 742.889C504.097 743.814 504.112 744.738 504.131 745.663C498.615 747.876 493.098 750.089 487.16 752.469C489.631 759.639 491.744 765.778 494.352 773.361C493.987 773.743 492.479 775.353 490.419 777.553C492.841 782.023 495.188 786.357 497.622 790.863C494.364 793.224 488.385 788.373 488.299 800.862C491.176 803.951 494.953 808.007 498.947 812.292C498.708 812.452 497.532 813.987 496.558 813.697C492.091 812.384 489.258 814.388 488.53 822.415C488.448 823.315 487.138 823.919 486.395 824.665C486.395 825.263 486.395 825.867 486.395 826.465C489.919 829.492 494.035 830.725 495.625 838.468C497.749 848.794 506.852 852.03 511.912 844.552C514.551 840.656 516.828 836.1 520.22 830.182C519.724 839.312 519.306 847 518.865 855.131C521.433 855.131 523.699 855.131 526.352 855.131C526.08 850.033 525.837 845.44 525.553 840.157C533.328 851.975 536.19 849.41 539.254 844.065C549.372 847.715 557.434 840.964 566.007 831.908C565.548 837.198 565.204 841.162 564.823 845.563C567.197 845.563 569.328 845.563 571.769 845.563C571.769 843.029 571.769 840.576 571.769 838.079C582.488 843.677 592.957 843.967 603.765 834.282C603.369 838.868 603.108 841.938 602.78 845.742C605.31 845.742 607.673 845.742 610.244 845.742C610.028 842.641 609.83 839.762 609.542 835.663C614.099 841.716 618.35 839.848 623.113 839.682C629.069 839.472 636.325 835.065 642.154 845.274C646.413 852.733 652.701 850.365 658.289 847.172C660.14 846.118 662.054 845.341 663.939 844.429C664.111 845.36 664.286 846.284 664.462 847.209C662.875 848.874 661.286 850.544 659.737 852.166C660.729 857.665 669.996 867.479 673.632 867.972C679.954 868.835 685.38 865.728 691.117 856.999C690.606 863.324 690.296 867.183 689.941 871.579C692.33 871.579 694.431 871.579 696.898 871.579C696.831 869.156 696.767 866.986 696.704 864.662C708.714 871.56 720.161 863.811 732.074 863.533C731.831 858.571 731.618 854.243 731.38 849.416C738.239 858.633 741.162 859.156 745.166 852.295C750.309 855.92 754.986 854.299 759.479 849.157C760.416 848.085 761.83 848.14 763.032 847.703C768.321 845.761 773.613 843.831 779.26 841.76C779.155 843.541 778.928 847.376 778.678 851.599C780.824 851.599 782.951 851.599 785.44 851.599C785.564 849.33 785.683 847.104 785.713 846.55C791.233 846.55 796.465 846.987 801.66 846.426C806.639 845.884 811.577 844.299 816.529 843.171C816.526 842.173 816.518 841.174 816.515 840.175C815.044 839.355 813.57 838.529 812.013 837.672C814.454 831.384 817.955 830.632 822.837 834.88C831.216 842.185 836.941 840.2 843.192 827.815C843.524 827.155 843.834 826.465 845.499 826.058C845.092 831.914 844.681 837.771 844.226 844.287C846.682 844.287 849.093 844.287 851.631 844.287C851.425 840.342 851.242 836.859 850.992 832.05C855.411 838.357 859.457 843.085 864.424 835.755C864.839 835.138 866.123 835.73 866.888 836.236C875.658 842 883.828 841.168 892.11 828.542C891.748 834.387 891.513 838.215 891.203 843.202C893.271 843.393 895.308 843.584 897.783 843.818C897.925 840.977 898.044 838.548 898.163 836.143C898.567 836.063 898.899 835.891 899.216 835.952C902.799 836.686 906.367 837.894 909.961 838.091C913.256 838.27 916.578 837.117 919.874 837.302C920.243 837.327 920.512 842.259 920.508 844.854C922.18 851.518 929.085 850.014 929.129 861.055C929.137 862.985 933.884 865.913 936.586 866.468C939.367 867.048 942.42 865.821 945.185 864.452C950.436 861.863 952.146 864.68 951.138 875C953.68 875 956.218 875 958.755 875C958.755 870.29 958.755 865.574 958.755 860.568C960.696 863.299 962.379 867.43 964.503 868.188C966.776 869.008 969.471 866.653 971.937 866.24C981.078 864.107 990.218 861.974 999.358 859.841C999.339 858.756 999.32 857.671 999.302 856.586C997.563 855.766 995.816 854.94 993.67 853.935Z" fill="url(#paint6_linear_183_1268)"/>
<path d="M1038.84 549.442C1039.35 547.993 1040.22 545.49 1040.62 544.348C1035.97 541.82 1032.67 543.168 1029.7 550.872C1032.67 550.408 1035.61 549.95 1038.84 549.442ZM1107.22 692.716C1103.99 693.205 1101.13 693.795 1098.27 694.008C1095.42 694.228 1092.56 694.052 1088.54 694.052C1095.77 701.097 1102.5 700.369 1107.22 692.716ZM1148.64 599.46C1146.4 603.789 1144.92 606.637 1142.87 610.602C1149.33 608.4 1155.03 606.455 1160.73 604.523C1160.73 603.4 1160.73 602.277 1160.73 601.161C1153.61 606.524 1149.8 598.193 1145.41 592.49C1143.77 594.567 1142.38 596.349 1139.93 599.46C1143.26 599.46 1145.3 599.46 1148.64 599.46ZM1178.41 608.676C1181.21 607.735 1184 606.807 1187.96 605.477C1185.03 602.39 1183.42 600.696 1181.62 598.808C1180.3 601.449 1179.15 603.764 1177.99 606.079C1178.14 606.945 1178.27 607.81 1178.41 608.676ZM1232.47 699.253C1229.19 700.52 1225.92 701.787 1221.86 703.355C1227.08 710.401 1229.72 704.334 1232.47 699.253ZM1266.83 636.75C1266.37 638.105 1265.9 639.51 1264.98 642.208C1270.65 642.208 1275.57 642.208 1280.49 642.208C1280.82 641.455 1281.16 640.696 1281.49 639.943C1278.56 638.964 1275.63 637.986 1272.44 636.913C1275.04 632.653 1277.36 628.864 1279.68 625.069C1279.43 624.153 1279.17 623.231 1278.91 622.308C1272.85 624.391 1268.3 640.213 1260.45 626.079C1260.42 627.547 1260.39 629.015 1260.36 630.483C1262.51 632.572 1264.66 634.661 1266.83 636.75ZM1279.68 666.047C1274.28 664.78 1268.96 663.538 1263.64 662.289C1263.52 663.343 1263.41 664.397 1263.29 665.451C1268.08 671.348 1274.63 671.586 1279.68 666.047ZM1352.83 649.818C1353.27 648.72 1353.73 647.616 1354.18 646.505C1350.87 643.249 1347.56 639.981 1344.25 636.718C1344.01 637.521 1343.77 638.318 1343.52 639.115C1346.62 642.685 1349.73 646.254 1352.83 649.818ZM1410.53 640.263C1406.36 638.758 1403.22 637.622 1398.98 636.085C1397.55 637.214 1394.77 639.391 1392.03 641.549C1393.7 645.759 1401.18 645.89 1410.53 640.263ZM1399.28 622.264C1398.6 623.638 1397.58 625.69 1396.25 628.362C1401.24 628.362 1405.66 628.362 1410.07 628.362C1410.09 627.672 1410.11 626.988 1410.12 626.298C1406.67 625.012 1403.21 623.726 1399.28 622.264ZM971.224 782.822C969.631 779.999 967.944 777.816 966.932 774.999C966.089 772.671 966.046 769.597 965.647 766.855C967.053 766.529 968.459 766.015 969.873 765.921C972.298 765.77 974.731 765.877 977.16 765.877C977.331 764.748 977.499 763.606 977.671 762.47C973.223 759.064 968.775 755.664 962.965 751.216C968.564 749.014 972.747 747.37 977.331 745.57C974.036 738.857 965.702 743.569 964.73 731.843C968.283 730.576 971.673 729.365 975.445 728.017C972.559 724.779 970.142 722.051 966.956 718.475C970.088 717.716 972.423 717.151 975.246 716.473C974.114 713.036 973.091 709.943 971.552 705.263C974.778 706.015 976.878 706.499 979.03 707C978.565 703.494 978.167 700.539 978.007 699.334C976.437 692.527 975.246 687.383 974.047 682.189C976.164 681.762 978.136 681.913 979.788 680.815C980.627 680.256 981.526 677.201 981.299 675.696C980.377 669.529 979.034 663.525 978.042 658.475C980.495 655.903 982.838 653.456 984.794 651.399C983.892 646.135 982.986 640.834 981.893 634.46C984.982 635.916 987.043 636.875 989.839 638.193C988.875 632.703 988.137 628.494 987.325 623.877C989.832 623.237 992.14 622.647 994.807 621.976C991.722 614.303 988.969 607.459 985.774 599.523C989.461 597.509 991.05 589.272 996.58 593.463C997.997 594.542 1000.7 591.267 1003 588.325C994.916 588.105 990.386 582.108 989.359 567.672C992.089 566.587 995.881 565.54 999.458 563.501C1002.34 561.863 1004.95 559.028 1007.67 556.725C1007.5 555.948 1007.33 555.17 1007.16 554.398C1004.48 554.919 1001.79 555.439 998.903 555.998C996.568 550.878 993.983 545.201 991.093 538.859C994.194 537.924 996.599 533.407 1000.27 538.181C1001.07 539.229 1004.71 534.668 1008.25 531.663C1003.91 530.584 1000.89 531.017 998.778 529.003C996.392 526.726 994.826 522.24 991.944 516.964C997.177 515.038 1001.59 513.413 1006.01 511.795C1006.14 512.61 1006.26 513.438 1006.38 514.26C1007.56 511.644 1008.72 509.028 1010.15 505.86C1006.18 505.176 1002.13 504.48 997.79 503.733C1001.14 494.367 1003.81 486.889 1006.48 479.423C999.055 472.592 1004.79 462.761 1003.27 454.819C1003.8 454.418 1004.32 454.022 1004.84 453.627C1007.01 459.562 1009.17 465.503 1012.16 473.734C1012.43 466.306 1012.61 461.18 1012.79 456.03C1011.14 455.735 1009.83 455.497 1009.08 455.365C1008.58 452.222 1008.02 449.756 1007.84 447.228C1007.64 444.392 1007.79 441.5 1007.79 438.633C1008.66 437.448 1009.52 436.268 1010.4 435.083C1011.33 438.107 1012.27 441.137 1013.97 446.638C1012.48 439.029 1011.43 433.64 1010.62 429.512C1011.93 426.375 1013 423.822 1014.06 421.287C1014.89 426.745 1015.79 432.642 1016.82 439.436C1017.43 439.562 1018.8 439.844 1019.64 440.014C1019.27 448.602 1018.9 457.002 1018.45 467.422C1021.08 464.474 1022.54 462.836 1024.27 460.904C1023.72 468.144 1023.2 474.994 1022.62 482.767C1020.55 484.856 1017.6 487.818 1014.65 490.785C1019.36 494.562 1023.38 490.176 1027.75 487.83C1028.87 489.367 1030.21 491.224 1031.99 493.664C1026.72 498.275 1024.88 512.874 1015.83 504.442C1018.39 518.313 1026.6 508.162 1030.96 516.469C1029.4 520.164 1027.61 524.436 1026.21 527.754C1027.34 530.458 1028.47 533.137 1030.01 536.788C1034.18 538.601 1037.17 534.925 1037.63 526.719C1037.81 523.432 1036.43 519.994 1036.08 516.537C1035.81 513.846 1036.03 511.017 1037.17 507.058C1039.5 511.28 1041.84 515.502 1044.76 520.791C1045.04 516.337 1045.26 512.918 1045.52 508.633C1039.13 509.279 1041.02 501.255 1039.84 494.405C1042.03 496.293 1043.61 497.654 1044.83 498.714C1044.83 494.329 1044.83 489.154 1044.83 483.972C1045.56 483.884 1046.28 483.796 1047 483.708C1047.49 488.89 1047.97 494.066 1048.42 498.934C1049.1 498.42 1050.55 497.309 1052.31 495.967C1051.85 502.987 1051.46 508.946 1050.98 516.318C1053.38 514.699 1054.81 513.733 1056.71 512.454C1056.21 517.573 1055.76 522.209 1055.21 527.886C1053.22 529.467 1050.29 531.794 1046.98 534.423C1052.55 539.586 1058.65 526.945 1064.11 535.922C1059.16 539.85 1056.16 550.094 1049.17 544.091C1049.17 545.276 1049.17 546.468 1049.18 547.66C1051.36 547.949 1053.59 547.974 1055.73 548.595C1058.23 549.316 1060.67 550.565 1063.96 551.932C1061.78 555.64 1060.06 558.576 1058.18 561.763C1061.05 564.322 1063.9 566.857 1066.93 569.554C1063.4 574.41 1059.68 579.511 1055.68 585.012C1062.35 590.257 1065.18 589.322 1067.35 582.07C1070.6 582.704 1070.33 582.616 1071.14 576.719C1071.33 575.326 1073.96 574.799 1075.84 573.664C1075.58 572.798 1074.9 570.496 1074.19 568.149C1075.15 566.957 1076.2 565.653 1076.89 564.787C1078.7 568.306 1080.52 571.87 1082.7 576.104C1082.55 578.821 1082.32 583.193 1082.04 588.538C1084.11 587.44 1085.57 586.675 1087.41 585.703C1086.98 589.818 1086.64 593.093 1086.26 596.775C1084.17 598.099 1081.42 599.843 1078.67 601.574L1078.8 602.949C1081.35 602.541 1083.91 602.095 1086.47 601.738C1088.92 601.405 1091.38 601.154 1093.84 600.866C1093.99 601.982 1094.14 603.099 1094.29 604.215C1089.98 606.832 1085.66 609.448 1079.72 613.049C1083.26 613.049 1085.41 612.854 1087.54 613.105C1089.64 613.356 1091.72 614.065 1094.85 614.83C1092.6 617.892 1091.2 619.786 1089.38 622.271C1092.09 624.385 1094.62 626.361 1097.33 628.475C1094.01 631.995 1090.72 635.476 1087.43 638.964C1087.61 639.623 1087.79 640.288 1087.97 640.947C1092.73 640.947 1097.49 640.947 1102.51 640.947C1101.57 637.754 1100.74 634.912 1099.65 631.21C1101.8 630.891 1103.82 630.589 1105.8 630.301C1106.07 630.934 1106.34 631.562 1106.61 632.195C1107.38 631.411 1108.15 630.627 1108.93 629.837C1107.89 629.987 1106.84 630.15 1105.8 630.301C1103.37 624.68 1100.85 618.845 1097.4 610.872C1103.99 608.488 1109.46 606.505 1114.94 604.529C1114.94 603.72 1114.95 602.911 1114.95 602.095C1108.22 602.898 1103.51 598.833 1101.26 587.522C1107.18 584.774 1113.26 581.964 1119.33 579.153C1119.29 578.024 1119.23 576.888 1119.19 575.765C1111.07 581.443 1107.91 571.6 1103.8 564.592C1108.11 557.83 1115.29 569.392 1118.21 559.756C1113.75 556.487 1109.22 553.162 1104.68 549.837C1104.87 548.645 1105.06 547.453 1105.24 546.255C1109.71 545.082 1114.18 543.902 1119.15 542.591C1119.91 538.162 1119.9 538.576 1116.08 538.426C1114.19 538.344 1112.34 536.418 1110.88 535.571C1113.13 529.592 1115.21 524.153 1117.23 518.645C1117.5 517.886 1117.68 516.155 1117.49 515.979C1112.14 510.816 1116.81 503.79 1115.72 497.893C1116.17 497.491 1116.61 497.096 1117.06 496.695C1119.31 501.506 1121.56 506.324 1124.51 512.635C1124.79 507.033 1124.98 503.275 1125.16 499.518C1124.61 499.856 1124.07 500.201 1123.52 500.553C1122.02 495.641 1120.52 490.735 1119.02 485.823C1119.4 485.258 1119.79 484.693 1120.17 484.129C1121.78 485.64 1123.38 487.152 1124.99 488.677C1126.44 483.639 1119.39 477.215 1125.89 473.313C1127.34 477.567 1129.09 482.673 1130.83 487.786L1131.79 486.494C1131.46 492.893 1131.13 499.286 1130.74 507.109C1133.12 505.289 1134.54 504.21 1136.37 502.811C1135.93 508.583 1135.51 513.972 1135.07 519.831C1132.81 521.588 1129.84 523.89 1126.88 526.192C1126.88 526.883 1126.89 527.572 1126.9 528.263C1131.23 527.127 1135.56 525.998 1140.84 524.624C1141.07 524.881 1142.35 526.337 1144.07 528.294C1138.82 532.711 1135.89 544.31 1128.29 536.594C1128.22 537.723 1128.15 538.852 1128.08 539.982C1130.4 540.766 1132.72 541.537 1135.04 542.328C1137.62 543.206 1140.2 544.091 1143.79 545.32C1141.54 549.536 1139.8 552.798 1137.89 556.38C1140.71 559.04 1143.61 561.769 1146.75 564.73C1143.27 569.831 1139.49 575.377 1135.7 580.929C1135.82 581.75 1135.93 582.572 1136.04 583.394C1144.28 582.127 1151.08 596.995 1159.92 588.099C1155.52 585.357 1151.12 582.629 1146.72 579.887C1146.82 578.965 1146.92 578.03 1147.02 577.108C1152.61 575.427 1158.2 573.751 1163.78 572.076C1163.67 571.242 1163.56 570.414 1163.44 569.58C1159.8 569.26 1156.16 568.934 1152.09 568.57C1153.17 561.361 1159.64 562.265 1158.41 554.254C1158.24 553.106 1158.04 551.926 1158.06 550.759C1158.12 546.305 1158.26 541.851 1158.38 537.391C1163.56 538.031 1162.44 533.068 1161.6 528.212C1161.48 527.497 1161.86 526.556 1162.16 524.906C1163.82 526.343 1165.33 527.648 1166.22 528.426C1166.22 524.379 1166.22 519.536 1166.22 514.687C1166.88 514.611 1167.54 514.536 1168.2 514.461C1168.75 519.116 1169.29 523.771 1169.79 527.999C1170.39 527.673 1171.91 526.851 1173.46 526.017C1173.13 532.196 1172.84 537.547 1172.48 544.084C1174.77 542.573 1176.09 541.7 1177.96 540.465C1177.5 545.27 1177.11 549.442 1176.64 554.442C1174.41 556.023 1171.55 558.049 1168.68 560.075L1168.86 561.55C1174.17 560.69 1179.48 559.831 1184.79 558.971C1184.97 560.295 1185.14 561.619 1185.31 562.949C1180.86 566.129 1176.42 569.31 1171.83 572.591C1175.41 573.488 1179.89 574.611 1185.63 576.06C1183.18 579.705 1181.61 582.058 1179.6 585.044C1181.92 586.863 1184.15 589.178 1186.59 590.332C1188.44 591.211 1188.57 590.565 1188.4 585.897C1188.29 582.716 1194.26 575.151 1196.1 575.903C1196.65 576.129 1197.38 575.27 1198.02 574.9C1196.18 569.122 1198.64 567.447 1201.17 564.825C1202.46 563.482 1202.66 559.442 1203.39 556.518C1205.76 561.387 1207.58 565.132 1209.94 569.969C1209.83 572.246 1209.6 576.65 1209.34 581.807C1211.27 580.778 1212.79 579.956 1214.53 579.021C1214.19 586.807 1213.61 593.72 1208.14 595.985C1212.55 595.502 1216.96 595.012 1221.36 594.523C1221.47 595.307 1221.57 596.085 1221.68 596.863C1219.26 599.536 1216.85 602.208 1213.73 605.652C1216.47 607.032 1218.51 608.061 1221.19 609.416C1220.06 611.587 1219.09 613.457 1217.65 616.217C1219.83 618.275 1221.97 620.295 1224.49 622.685C1221.33 626.01 1217.99 629.504 1214.14 633.544C1219.47 636.286 1223.73 638.475 1228.31 640.84C1227.02 636.348 1226.09 633.111 1225.04 629.441C1228.63 628.701 1231.76 628.055 1234.39 627.509C1230.65 620.935 1227.26 614.975 1223.25 607.936C1227.27 605.106 1229.25 598.563 1234.33 601.932C1235.9 602.98 1238.5 600.069 1240.69 597.541C1233.74 596.167 1228.32 592.729 1227.21 579.103C1232.77 576.267 1239.04 573.068 1245.31 569.868C1245.16 568.852 1245.01 567.836 1244.86 566.819C1242.26 567.102 1239.66 567.384 1236.82 567.698C1234.47 563.118 1231.86 558.011 1229.24 552.899C1229.35 552.114 1229.47 551.33 1229.59 550.546C1232.43 551.023 1235.33 552.265 1238.09 551.744C1240.41 551.305 1242.59 548.814 1244.17 547.698C1239.43 543.733 1234.96 540.007 1230.49 536.268C1230.62 534.938 1230.74 533.608 1230.87 532.278C1235.4 530.847 1239.93 529.417 1245.46 527.679C1245.33 526.544 1244.97 523.507 1244.88 522.692C1241.46 521.901 1239.06 521.343 1236.11 520.659C1239.28 512.491 1241.93 505.641 1244.6 498.733C1237.48 492.598 1242.94 483.445 1241.37 476.249C1241.86 475.873 1242.35 475.503 1242.85 475.126C1245.1 480.716 1247.35 486.306 1250.13 493.206C1250.61 487.234 1250.97 482.83 1251.34 478.075C1249.53 477.541 1248.08 477.109 1247.12 476.833C1246.56 471.35 1246.07 466.525 1245.37 459.656C1247.82 462.793 1249.53 464.982 1251.83 467.931C1250.77 462.554 1249.86 458.025 1249.07 454.003C1250.23 451.262 1251.31 448.677 1252.68 445.459C1253.15 452.749 1253.59 459.562 1253.98 465.559C1254.59 465.039 1256.23 463.665 1257.89 462.266C1257.44 470.98 1257.05 478.639 1256.55 488.131C1259.15 485.39 1260.51 483.947 1262.42 481.933C1261.83 488.815 1261.3 494.969 1260.71 501.782C1258.55 503.84 1255.65 506.607 1252.3 509.787C1258.05 516.105 1264.41 499.982 1269.71 512.077C1264.69 516.324 1262.12 529.592 1253.83 520.973C1256.37 534.806 1264.52 524.693 1269.05 532.485C1267.44 535.816 1265.7 539.448 1263.71 543.57C1266.39 546.782 1269.24 550.182 1272.27 553.802C1268.93 559.385 1265.06 565.872 1260.05 574.253C1265.14 575.753 1268.72 576.807 1273.18 578.118C1270.76 583.52 1268.67 588.206 1266.27 593.563C1268.85 593.563 1271.12 593.563 1273.39 593.563C1273.67 594.466 1273.95 595.37 1274.23 596.273C1271.4 599.153 1268.55 601.995 1265.74 604.943C1265.18 605.533 1264.29 606.75 1264.39 607.24C1264.71 608.808 1265.21 610.797 1266.02 611.512C1269.37 614.492 1272.87 617.057 1276.56 619.987C1276.92 616.882 1277.22 614.297 1277.73 609.812C1280.55 613.431 1282.93 616.486 1285.84 620.225C1286.24 617.365 1286.58 614.981 1286.68 614.266C1284.7 610.978 1283.32 608.952 1282.19 606.612C1281.87 605.953 1282.3 604.36 1282.39 603.199C1283.81 603.519 1285.22 603.827 1286.94 604.215C1286.17 601.794 1285.44 599.441 1284.74 597.233C1285.69 596.085 1286.62 594.962 1287.48 593.908C1289.16 597.114 1291.1 600.828 1293.17 604.799C1292.98 607.923 1292.71 612.114 1292.4 617.12C1294.42 616.443 1295.76 615.997 1297.83 615.307C1297.3 618.481 1296.95 620.627 1296.37 624.165C1299.85 623.896 1303.25 623.733 1306.63 623.181C1306.93 623.137 1307.06 620.521 1307.18 619.718C1304.43 619.303 1301.92 618.94 1297.87 618.337C1300.77 615.075 1302.47 613.751 1303.64 611.669C1304.64 609.887 1305.75 607.051 1305.55 604.994C1305.16 600.985 1303.9 597.196 1302.66 591.876C1309.01 594.404 1312.31 594.969 1312.63 595.27C1310.99 591.556 1309.67 588.588 1308.35 585.621C1309.89 585.113 1311.42 584.605 1313.14 584.034C1312.74 582.81 1312.06 580.772 1311.65 579.523C1312.42 577.873 1313.1 576.311 1313.9 574.937C1313.97 574.799 1314.77 575.991 1315.29 576.192C1319.09 577.672 1323.03 581.619 1326.11 575.521C1321.92 572.654 1317.56 569.68 1313.21 566.707C1313.29 565.659 1313.38 564.618 1313.47 563.57C1317.81 562.478 1322.15 561.374 1326.49 560.276C1326.58 560.879 1326.66 561.481 1326.75 562.089C1327.91 560.025 1329.08 557.955 1330.36 555.696C1326.4 555.358 1322.65 555.038 1318.89 554.718C1321.35 548.714 1323.35 543.953 1325.27 539.103C1325.53 538.445 1325.54 537.309 1325.41 536.512C1324.94 533.758 1323.99 531.079 1323.92 528.319C1323.86 525.91 1324.72 523.426 1325.18 520.973C1326.41 522.503 1327.79 523.815 1328.83 525.621C1329.93 527.516 1330.7 529.9 1332.5 534.153C1332.98 528.539 1333.25 525.396 1333.29 524.837C1330.88 519.95 1329.27 517.02 1327.97 513.758C1327.73 513.131 1328.89 510 1329.16 510.082C1330.54 510.49 1331.83 511.575 1333.74 512.805C1332.91 509.317 1332.1 505.854 1331.44 503.056C1332.5 501.086 1333.48 499.273 1334.6 497.203C1335.24 502.265 1335.88 507.228 1336.46 511.789C1337.2 511.28 1338.61 510.32 1340.16 509.26C1339.73 515.847 1339.35 521.625 1338.88 528.865C1341.39 527.127 1342.84 526.129 1344.64 524.881C1344.1 529.912 1343.59 534.58 1343.03 539.887C1340.78 541.494 1337.96 543.507 1335.13 545.521C1335.11 546.098 1335.09 546.669 1335.07 547.246C1340.57 546.343 1346.06 545.439 1351.55 544.542C1351.65 545.577 1351.74 546.612 1351.84 547.648C1347.16 551.462 1343.95 561.531 1336.86 555.044C1336.83 556.173 1336.8 557.309 1336.78 558.444C1339.04 558.934 1341.33 559.279 1343.57 559.95C1346.04 560.684 1348.47 561.707 1352.1 563.037C1349.71 566.669 1348.02 569.228 1346.1 572.152C1348.9 574.693 1351.68 577.202 1354.72 579.956C1351.3 584.542 1347.72 589.348 1342.78 595.985C1347.92 597.12 1351.37 597.886 1355.85 598.877C1353.36 603.105 1351.51 606.261 1349.33 609.987C1351.46 610.401 1353.45 610.79 1356.43 611.367C1353.33 616.029 1352.02 622.704 1347 618.193C1347.12 627.402 1351.46 626.386 1355.83 627.704C1355.03 625.589 1354.56 624.354 1353.54 621.643C1359.7 619.41 1365.57 617.271 1371.45 615.138C1371.39 614.397 1371.33 613.651 1371.27 612.911C1368.43 612.704 1365.3 613.613 1362.82 611.982C1360.29 610.314 1358.39 606.148 1355.12 601.518C1361.42 601.066 1365.95 600.734 1370.48 600.414L1370.36 598.958C1366.17 596.123 1361.99 593.294 1357.8 590.458C1357.91 589.523 1358.02 588.588 1358.12 587.654C1363.67 586.179 1369.22 584.711 1374.77 583.231C1374.69 582.403 1374.63 581.581 1374.55 580.753C1370.81 580.288 1367.07 579.818 1361.81 579.166C1364.67 575.408 1366.31 573.607 1367.67 571.38C1369.44 568.494 1371.33 566.155 1368.69 561.06C1367.49 558.733 1368.86 552.942 1369.07 548.72C1370.64 550.571 1372.27 552.321 1373.78 554.31C1374.63 555.439 1375.27 556.97 1376.84 559.862C1377.31 555.326 1377.62 552.328 1377.94 549.335C1377.47 549.693 1377.02 550.05 1376.56 550.402C1374.92 546.387 1373.28 542.372 1371.64 538.35C1372.1 537.692 1372.56 537.027 1373.02 536.368C1374.51 537.629 1376.01 538.89 1378.23 540.759C1377.29 537.165 1376.5 534.141 1375.81 531.506C1376.79 529.787 1377.71 528.175 1378.9 526.092C1379.63 530.496 1380.36 534.963 1381.06 539.191C1381.52 538.909 1382.93 538.074 1384.45 537.158C1384.08 543.219 1383.74 548.814 1383.29 556.092C1385.92 553.977 1387.21 552.936 1389.15 551.368C1388.51 556.518 1387.98 560.86 1387.38 565.703C1385.18 567.215 1382.4 569.109 1379.62 571.01C1379.67 571.625 1379.7 572.227 1379.75 572.836C1382.46 572.227 1385.16 571.506 1387.88 571.054C1390.38 570.627 1392.88 570.502 1395.61 571.581C1391.41 577.397 1387.9 585.728 1381.03 579.755C1381.04 580.891 1381.04 582.033 1381.04 583.168C1385.8 584.347 1390.55 585.527 1396.45 586.995C1394.04 590.521 1392.35 593.011 1390.44 595.809C1393.36 598.13 1396.18 600.376 1399.15 602.735C1395.77 607.076 1392.26 611.587 1388.75 616.091C1389.04 617.302 1389.33 618.519 1389.62 619.742C1397.68 617.854 1405.75 615.966 1413.81 614.084C1413.75 613.375 1413.68 612.666 1413.61 611.951C1410.23 611.499 1406.85 611.048 1402.03 610.401C1404.9 607.032 1406.66 605.452 1408.01 603.237C1409.21 601.273 1411.71 599.504 1408.66 595.558C1407.65 594.241 1408.57 589.103 1408.6 585.709C1410.2 586.781 1411.94 587.503 1413.34 589.04C1414.35 590.15 1414.9 592.334 1416.39 595.696C1417.09 590.715 1417.44 588.199 1417.45 588.149C1415.04 583.883 1413.41 581.004 1411.78 578.124C1412.19 577.227 1412.59 576.336 1412.98 575.439C1414.51 576.217 1416.04 577.001 1417.54 577.767C1418.53 574.172 1411.96 569.417 1418.76 567.133C1419.33 569.624 1420.13 573.137 1420.87 576.431C1421.7 576.292 1423.01 576.067 1424.18 575.86C1423.85 580.891 1423.56 585.333 1423.21 590.784C1425.47 589.529 1426.87 588.764 1428.77 587.71C1428.21 591.926 1428.44 596.713 1427.06 599.009C1425.44 601.706 1422.43 602.227 1420.16 605.037C1425.25 604.272 1430.33 603.507 1435.42 602.741C1435.49 603.551 1435.56 604.36 1435.63 605.169C1432.99 607.735 1430.36 610.307 1426.46 614.109C1432.63 615.533 1437.64 616.687 1443.19 617.967C1441.95 612.622 1440.99 608.469 1440.07 604.479C1443.61 603.751 1446.7 603.105 1449.02 602.628C1445.52 595.332 1442.33 588.984 1439.48 582.252C1439.15 581.493 1440.73 577.026 1441.57 576.907C1444.32 576.531 1446.22 569.667 1449.84 574.467C1450.6 575.47 1453.56 572.183 1455.68 569.429C1447.7 568.77 1443.47 562.108 1441.77 550.176C1446.31 541.393 1456.15 548.375 1460.24 535.132C1456.98 535.797 1454.18 536.368 1451.67 536.876C1449.09 531.186 1446.56 525.615 1443.75 519.398C1446.93 519.235 1449.3 514.888 1452.92 518.846C1454.03 520.057 1457.67 515.295 1460.02 511.87C1452.21 515.352 1449.14 506.556 1444.81 497.755C1449.84 495.954 1454.33 494.342 1458.82 492.729C1458.92 493.489 1459.02 494.242 1459.12 494.994C1460.32 492.416 1461.53 489.838 1463 486.657C1458.88 486.086 1454.89 485.528 1450.38 484.9C1453.72 475.659 1456.38 468.326 1459.11 460.76C1452.32 453.859 1457.29 444.298 1456.95 435.352C1458.29 437.956 1459.83 440.365 1460.93 443.207C1462.1 446.193 1462.85 449.593 1465.2 452.592C1465.34 447.68 1465.48 442.768 1465.62 437.329C1464.11 436.984 1462.76 436.676 1461.69 436.438C1461.13 430.428 1460.63 424.957 1459.93 417.435C1462.25 420.584 1463.88 422.799 1466.08 425.792C1465.1 420.12 1464.22 415.083 1463.48 410.848C1464.57 408.15 1465.56 405.71 1466.65 403C1466.83 404.876 1466.83 407.185 1467.32 409.205C1467.65 410.622 1468.64 411.638 1469.5 413.094C1468.9 416.802 1468.2 421.143 1467.46 425.735C1469.23 423.514 1470.72 421.645 1472.42 419.518C1471.98 429.418 1471.6 437.937 1471.11 448.696C1473.71 445.691 1475 444.21 1476.81 442.109C1476.34 449.267 1475.92 455.716 1475.39 463.69C1473.42 465.697 1470.26 468.903 1467.17 472.04C1470.26 475.979 1475.57 474.624 1480.25 468.382C1481.57 470.308 1482.88 472.234 1484.53 474.656C1479.22 478.608 1477.9 495.371 1468.3 486.556C1469.6 489.154 1470.9 491.745 1471.19 492.328C1476.14 493.451 1479.75 494.267 1484.61 495.364C1482.14 501.224 1480.33 505.502 1478.5 509.825C1481.11 513.237 1483.97 516.983 1487 520.941C1483.49 527.435 1479.65 534.555 1474.8 543.545C1479.8 545.188 1483.44 546.387 1488.14 547.936C1485.54 553.99 1483.37 559.021 1481.06 564.385C1483.35 564.561 1485.64 564.73 1488.94 564.981C1486.2 571.198 1485.38 578.551 1479.35 577.484C1478.6 590.884 1489.18 585.489 1490.61 595.853C1485.95 607.534 1485.95 607.534 1474.95 604.925C1477.11 607.403 1479.27 609.874 1481.58 612.516C1481.12 613.952 1480.64 615.47 1479.99 617.49C1484.96 618.764 1489.77 620.006 1494.52 621.217C1493.99 638.845 1483 635.627 1477.87 644.328C1482.71 652.17 1488.59 650.163 1494.9 649.065C1493.55 653.431 1492.73 658.117 1490.91 661.348C1488.92 664.874 1486 667.051 1483.5 669.811C1483.48 670.752 1483.46 671.693 1483.44 672.634C1489.22 674.893 1494.99 677.139 1501.2 679.566C1498.61 686.863 1496.4 693.111 1493.67 700.821C1494.06 701.216 1495.63 702.853 1497.79 705.087C1495.26 709.641 1492.8 714.052 1490.25 718.631C1493.66 721.034 1499.92 716.097 1500.01 728.807C1497 731.95 1493.05 736.078 1488.87 740.444C1489.12 740.601 1490.34 742.163 1491.37 741.868C1496.04 740.532 1499 742.577 1499.77 750.739C1499.85 751.661 1501.22 752.276 1502 753.035C1502 753.637 1502 754.252 1502 754.867C1498.31 757.947 1494.01 759.196 1492.34 767.082C1490.12 777.59 1480.6 780.877 1475.3 773.267C1472.54 769.302 1470.16 764.666 1466.61 758.637C1467.13 767.941 1467.57 775.764 1468.03 784.032C1465.34 784.032 1462.97 784.032 1460.19 784.032C1460.47 778.85 1460.73 774.177 1461.03 768.794C1452.89 780.82 1449.89 778.211 1446.7 772.771C1436.11 776.485 1427.67 769.616 1418.7 760.4C1419.18 765.789 1419.54 769.817 1419.94 774.296C1417.45 774.296 1415.22 774.296 1412.67 774.296C1412.67 771.718 1412.67 769.227 1412.67 766.68C1401.46 772.383 1390.5 772.677 1379.19 762.815C1379.61 767.483 1379.88 770.607 1380.22 774.484C1377.58 774.484 1375.1 774.484 1372.41 774.484C1372.64 771.329 1372.85 768.399 1373.15 764.227C1368.38 770.381 1363.93 768.487 1358.95 768.311C1352.72 768.098 1345.12 763.612 1339.02 774.001C1334.57 781.592 1327.99 779.183 1322.14 775.933C1320.21 774.861 1318.2 774.07 1316.23 773.148C1316.05 774.089 1315.87 775.03 1315.68 775.977C1317.35 777.665 1319.01 779.365 1320.62 781.021C1319.59 786.611 1309.89 796.598 1306.09 797.1C1299.47 797.985 1293.8 794.823 1287.79 785.939C1288.33 792.37 1288.65 796.297 1289.02 800.77C1286.52 800.77 1284.33 800.77 1281.74 800.77C1281.82 798.305 1281.88 796.103 1281.95 793.731C1269.38 800.751 1257.4 792.865 1244.94 792.583C1245.19 787.539 1245.42 783.129 1245.67 778.217C1238.49 787.596 1235.43 788.129 1231.24 781.147C1225.86 784.835 1220.96 783.186 1216.27 777.954C1215.28 776.862 1213.8 776.918 1212.55 776.473C1207.01 774.503 1201.48 772.527 1195.56 770.425C1195.67 772.238 1195.92 776.14 1196.18 780.444C1193.93 780.444 1191.71 780.444 1189.1 780.444C1188.98 778.135 1188.84 775.864 1188.82 775.3C1183.04 775.3 1177.57 775.751 1172.13 775.174C1166.92 774.622 1161.76 773.01 1156.57 771.868C1156.58 770.846 1156.58 769.829 1156.59 768.813C1158.13 767.978 1159.67 767.144 1161.3 766.266C1158.74 759.867 1155.08 759.101 1149.97 763.43C1141.2 770.858 1135.21 768.838 1128.67 756.235C1128.33 755.563 1128 754.867 1126.26 754.447C1126.69 760.406 1127.12 766.372 1127.59 772.997C1125.02 772.997 1122.5 772.997 1119.84 772.997C1120.06 768.988 1120.25 765.438 1120.51 760.545C1115.89 766.962 1111.66 771.774 1106.46 764.315C1106.02 763.694 1104.68 764.296 1103.88 764.81C1094.7 770.67 1086.15 769.823 1077.49 756.981C1077.86 762.928 1078.11 766.824 1078.44 771.893C1076.27 772.094 1074.14 772.282 1071.55 772.521C1071.41 769.628 1071.28 767.163 1071.16 764.71C1070.73 764.628 1070.38 764.453 1070.05 764.522C1066.31 765.268 1062.57 766.492 1058.82 766.693C1055.37 766.881 1051.89 765.701 1048.44 765.89C1048.05 765.915 1047.77 770.934 1047.78 773.575C1046.03 780.356 1038.81 778.825 1038.75 790.061C1038.75 792.025 1033.78 795.005 1030.95 795.576C1028.04 796.165 1024.85 794.911 1021.95 793.524C1016.46 790.889 1014.68 793.756 1015.73 804.258C1013.07 804.258 1010.41 804.258 1007.75 804.258C1007.75 799.459 1007.75 794.66 1007.75 789.572C1005.73 792.345 1003.97 796.548 1001.74 797.32C999.36 798.154 996.541 795.757 993.963 795.343C984.4 793.167 974.84 790.996 965.273 788.832C965.292 787.721 965.312 786.617 965.331 785.513C967.155 784.685 968.979 783.844 971.224 782.822Z" fill="url(#paint7_linear_183_1268)"/>
<path d="M363.997 376C345.562 374.413 327.742 370.2 309.994 365.958C303.785 364.469 294.489 365.321 289.799 364.998C269.99 363.675 256.04 351.547 243.838 340.927C240.969 338.428 237.388 336.518 234 334C242.601 334.157 249.991 336.165 256.173 340.025C257.29 340.718 260.513 343.212 265.842 347.51C273.197 353.437 277.694 358.943 288.762 360.158C302.025 361.608 315.54 362.794 328.622 365.184C334.747 366.301 340.679 367.134 346.539 369.113C349.058 369.975 364.25 374.286 363.997 376Z" fill="white"/>
<path d="M199 223.5C188 221 188 214 184 211.5C183.2 221.1 187.5 224.167 190 225C199.2 226.6 204.167 231.333 205.5 233.5C211.1 241.9 222.833 251 228 254.5C236.833 259 254.3 266.9 253.5 262.5C252.7 258.1 271.5 271.667 281 279C289.5 279.333 307.8 283.1 313 295.5C318.2 307.9 328.833 306.667 333.5 304.5C336.7 301.3 347.5 313.833 352.5 320.5C360.1 318.5 372 319.667 377 320.5C398.2 327.3 423.5 314.667 433.5 307.5C413.5 318.5 382 322 376.5 318C372.1 314.8 359.667 317.5 352.5 318.5C342 303 336 299.5 331 301C327.265 302.121 320 296 317.5 294C309.1 279.2 289.667 276.833 281 277.5C259 255.9 251.833 256.833 251 260.5C245.5 258.5 224.833 245.333 216 237.5C211.2 227.9 201.5 223.667 199 223.5Z" fill="white"/>
<defs>
<linearGradient id="paint0_linear_183_1268" x1="0.25" y1="204" x2="231" y2="687" gradientUnits="userSpaceOnUse">
<stop stop-color="#B6C8A2"/>
<stop offset="1" stop-color="#B6C8A2" stop-opacity="0"/>
</linearGradient>
<linearGradient id="paint1_linear_183_1268" x1="896" y1="146" x2="471" y2="663.5" gradientUnits="userSpaceOnUse">
<stop stop-color="#9BB091"/>
<stop offset="1" stop-color="#9BB091" stop-opacity="0"/>
</linearGradient>
<linearGradient id="paint2_linear_183_1268" x1="12.5" y1="227" x2="357" y2="1350" gradientUnits="userSpaceOnUse">
<stop stop-color="#6A8C73"/>
<stop offset="1" stop-color="#6A8C73" stop-opacity="0"/>
</linearGradient>
<linearGradient id="paint3_linear_183_1268" x1="975" y1="310" x2="322.5" y2="597" gradientUnits="userSpaceOnUse">
<stop stop-color="#4A6E64"/>
<stop offset="1" stop-color="#4A6E64" stop-opacity="0"/>
</linearGradient>
<linearGradient id="paint4_linear_183_1268" x1="566.5" y1="339.5" x2="489" y2="775" gradientUnits="userSpaceOnUse">
<stop stop-color="#2D5855"/>
<stop offset="1" stop-color="#2D5855" stop-opacity="0"/>
</linearGradient>
<linearGradient id="paint5_linear_183_1268" x1="1232.48" y1="804.258" x2="1232.48" y2="295.147" gradientUnits="userSpaceOnUse">
<stop stop-color="#132429"/>
<stop offset="1" stop-color="#2E5552"/>
</linearGradient>
<linearGradient id="paint6_linear_183_1268" x1="1232.48" y1="804.258" x2="1232.48" y2="295.147" gradientUnits="userSpaceOnUse">
<stop stop-color="#132429"/>
<stop offset="1" stop-color="#2E5552"/>
</linearGradient>
<linearGradient id="paint7_linear_183_1268" x1="1232.48" y1="804.258" x2="1232.48" y2="295.147" gradientUnits="userSpaceOnUse">
<stop stop-color="#132429"/>
<stop offset="1" stop-color="#2E5552"/>
</linearGradient>
</defs>
</svg>
