<svg width="629" height="812" viewBox="0 0 629 812" fill="none" xmlns="http://www.w3.org/2000/svg">
<path d="M342.259 577.597C221.673 358.439 288.563 101.217 337.081 0C492.845 238.881 417.461 597.869 392.173 579.368C371.942 564.568 350.467 572.02 342.259 577.597Z" fill="url(#paint0_linear_1_4992)"/>
<path d="M289.952 146.192C292.285 111.719 319.427 36.6584 337.081 0C363.925 32.0256 392.87 112.266 402.685 144.07C352.904 149.344 356.427 149.278 289.952 146.192Z" fill="#B380C8"/>
<path d="M354.657 472.993L378.495 472.003L379.118 706.755L354.657 472.993Z" fill="#B380C8"/>
<circle cx="354.105" cy="270.77" r="42.9994" transform="rotate(32.6119 354.105 270.77)" fill="#B380C8"/>
<circle cx="354.105" cy="270.771" r="33.2268" transform="rotate(32.6119 354.105 270.771)" fill="white"/>
<path d="M349.761 544.112L310.338 451.599L279.857 502.866L266.712 697.486L349.761 544.112Z" fill="#B380C8"/>
<path d="M393.015 546.104L407.734 446.624L450.201 488.505L512.187 673.457L393.015 546.104Z" fill="#B380C8"/>
<defs>
<linearGradient id="paint0_linear_1_4992" x1="490.063" y1="97.8809" x2="229.352" y2="505.357" gradientUnits="userSpaceOnUse">
<stop offset="0.260417" stop-color="#A5BDFD"/>
<stop offset="0.786458" stop-color="#587DFF"/>
</linearGradient>
</defs>
</svg>
