<svg width="366" height="431" viewBox="0 0 366 431" fill="none" xmlns="http://www.w3.org/2000/svg">
<rect x="195.77" y="316.791" width="17.7973" height="29.6622" fill="#D9D9D9"/>
<path d="M155.69 319.757L88.1108 386.794L84.2406 365.14L130.385 319.757H155.69Z" fill="#D9D9D9"/>
<path d="M323.298 386.794L256.314 319.757L276.261 316.791L328.657 368.996L323.298 386.794Z" fill="#D9D9D9"/>
<rect x="34.4081" y="194.583" width="347.641" height="128.141" rx="54.5784" fill="#A5BDFD"/>
<rect x="106.784" y="68.8154" width="18.9838" height="125.768" fill="#D9D9D9"/>
<circle cx="205.262" cy="384.42" r="46.273" fill="#587DFF"/>
<circle cx="364.251" cy="383.235" r="46.273" fill="#587DFF"/>
<circle cx="46.273" cy="383.235" r="46.273" fill="#587DFF"/>
<circle cx="45.6798" cy="383.828" r="24.323" fill="#D9D9D9"/>
<ellipse cx="204.669" cy="383.828" rx="23.1365" ry="24.323" fill="#D9D9D9"/>
<ellipse cx="364.251" cy="383.828" rx="23.7297" ry="24.323" fill="#D9D9D9"/>
<path d="M169.277 183.171C156.425 170.444 165.528 148.538 183.616 148.669L340.522 149.803L399.956 203.325C413.691 215.693 404.942 238.484 386.459 238.484H225.136L169.277 183.171Z" fill="#B380C8"/>
<path d="M235.745 220.686L182.719 166.107H245.575L299.793 220.686H235.745Z" fill="#F9FBFB"/>
<path d="M325.71 220.686L272.386 166.107H337.328L390.354 220.686H325.71Z" fill="#F9FBFB"/>
<path d="M152.43 17.9191L51.9317 1.38066C35.6745 -1.50011 35.0834 3.05419 35.6746 6.40125V63.1044C35.6746 70.6648 39.8017 71.0854 42.1774 71.0783C75.5783 70.9799 144.387 71.1563 152.43 71.0783C160.5 71 161.692 65.8608 161.298 63.1044V27.0743C161.298 19.9864 155.5 18.4999 152.43 17.9191Z" fill="#A5BDFD"/>
<rect x="78.3081" y="232.551" width="75.9351" height="53.3919" rx="14.2378" fill="#F9FBFB"/>
<rect x="231.365" y="249.161" width="20.1703" height="36.7811" rx="10.0851" fill="#F9FBFB"/>
<rect x="265.773" y="249.161" width="20.1703" height="36.7811" rx="10.0851" fill="#F9FBFB"/>
<rect x="301.368" y="249.161" width="20.1703" height="36.7811" rx="10.0851" fill="#F9FBFB"/>
</svg>
