<svg width="517" height="889" viewBox="0 0 517 889" fill="none" xmlns="http://www.w3.org/2000/svg">
<circle cx="308.004" cy="269.612" r="24.713" transform="rotate(72.56 308.004 269.612)" fill="#B380C8"/>
<rect x="44.7209" y="338.073" width="121.094" height="13.5921" transform="rotate(43.3108 44.7209 338.073)" fill="#B380C8"/>
<rect x="177.001" y="462.304" width="121.094" height="13.5921" transform="rotate(43.3108 177.001 462.304)" fill="#B380C8"/>
<path d="M376.518 341.341L219.183 197.137C195.929 230.994 170.491 316.308 229.384 363.602C288.278 410.896 349.897 366.542 376.518 341.341Z" fill="#587DFF"/>
<rect x="-88.6497" y="118.345" width="299.051" height="161.7" rx="8.64954" transform="rotate(42.3761 -88.6497 118.345)" fill="white"/>
<rect x="271.646" y="449.407" width="299.051" height="161.7" rx="8.64954" transform="rotate(42.3761 271.646 449.407)" fill="white"/>
<rect x="264.491" y="417.69" width="260.687" height="138.253" rx="4.64954" transform="rotate(131.835 264.491 417.69)" fill="url(#paint0_linear_350_118)" stroke="white" stroke-width="8"/>
<rect x="-35.752" y="178.075" width="67.9607" height="67.9607" transform="rotate(42.7066 -35.752 178.075)" fill="#D9D9D9"/>
<rect x="17.9666" y="227.67" width="67.9607" height="67.9607" transform="rotate(42.7066 17.9666 227.67)" fill="#D9D9D9"/>
<rect x="71.332" y="276.097" width="67.9607" height="67.9607" transform="rotate(42.7066 71.332 276.097)" fill="#D9D9D9"/>
<rect x="271.006" y="459.971" width="67.9607" height="67.9607" transform="rotate(42.7066 271.006 459.971)" fill="#D9D9D9"/>
<rect x="324.371" y="508.396" width="67.9607" height="67.9607" transform="rotate(42.7066 324.371 508.396)" fill="#D9D9D9"/>
<rect x="378.09" y="557.992" width="67.9607" height="67.9607" transform="rotate(42.7066 378.09 557.992)" fill="#D9D9D9"/>
<rect x="431.455" y="606.418" width="67.9607" height="67.9607" transform="rotate(42.7066 431.455 606.418)" fill="#D9D9D9"/>
<rect x="271.006" y="459.971" width="67.9607" height="67.9607" transform="rotate(42.7066 271.006 459.971)" fill="#D9D9D9"/>
<rect x="324.371" y="508.396" width="67.9607" height="67.9607" transform="rotate(42.7066 324.371 508.396)" fill="#D9D9D9"/>
<rect x="378.09" y="557.992" width="67.9607" height="67.9607" transform="rotate(42.7066 378.09 557.992)" fill="#D9D9D9"/>
<rect x="431.455" y="606.418" width="67.9607" height="67.9607" transform="rotate(42.7066 431.455 606.418)" fill="#D9D9D9"/>
<rect x="221.995" y="514.223" width="67.9607" height="67.9607" transform="rotate(42.7066 221.995 514.223)" fill="#D9D9D9"/>
<rect x="275.36" y="562.647" width="67.9607" height="67.9607" transform="rotate(42.7066 275.36 562.647)" fill="#D9D9D9"/>
<rect x="329.079" y="612.244" width="67.9607" height="67.9607" transform="rotate(42.7066 329.079 612.244)" fill="#D9D9D9"/>
<rect x="382.444" y="660.671" width="67.9607" height="67.9607" transform="rotate(42.7066 382.444 660.671)" fill="#D9D9D9"/>
<rect x="-32.5369" y="281.596" width="67.9607" height="67.9607" transform="rotate(42.7066 -32.5369 281.596)" fill="#D9D9D9"/>
<rect x="20.8279" y="330.021" width="67.9607" height="67.9607" transform="rotate(42.7066 20.8279 330.021)" fill="#D9D9D9"/>
<defs>
<linearGradient id="paint0_linear_350_118" x1="519.618" y1="532.454" x2="295.991" y2="548.772" gradientUnits="userSpaceOnUse">
<stop stop-color="#A5BDFD"/>
<stop offset="1" stop-color="#587DFF"/>
</linearGradient>
</defs>
</svg>
