<svg width="456" height="319" viewBox="0 0 456 319" fill="none" xmlns="http://www.w3.org/2000/svg">
<circle cx="157.037" cy="36.8634" r="14.7452" fill="#B380C8"/>
<rect x="148.927" y="198.976" width="72.2517" height="8.10988" transform="rotate(-29.2492 148.927 198.976)" fill="#B380C8"/>
<rect x="243.296" y="145.893" width="72.2517" height="8.10988" transform="rotate(-29.2492 243.296 145.893)" fill="#B380C8"/>
<path d="M210.12 10.6904L99.899 74.4636C115.013 93.7553 159.027 123.491 196.48 98.4246C233.933 73.3577 219.704 30.3507 210.12 10.6904Z" fill="#587DFF"/>
<rect y="235.602" width="178.432" height="96.4797" rx="5.16083" transform="rotate(-30.1839 0 235.602)" fill="white"/>
<rect x="252.881" y="89.7119" width="178.432" height="96.4797" rx="5.16083" transform="rotate(-30.1839 252.881 89.7119)" fill="white"/>
<rect x="233.507" y="88.2682" width="155.315" height="82.2635" rx="2.66083" transform="rotate(59.2755 233.507 88.2682)" fill="url(#paint0_linear_235_230)" stroke="white" stroke-width="5"/>
<rect x="6.35095" y="237.89" width="40.5494" height="40.5494" transform="rotate(-29.8534 6.35095 237.89)" fill="#D9D9D9"/>
<rect x="43.4594" y="216.172" width="40.5494" height="40.5494" transform="rotate(-29.8534 43.4594 216.172)" fill="#D9D9D9"/>
<rect x="81.297" y="194.462" width="40.5494" height="40.5494" transform="rotate(-29.8534 81.297 194.462)" fill="#D9D9D9"/>
<rect x="118.405" y="172.745" width="40.5494" height="40.5494" transform="rotate(-29.8534 118.405 172.745)" fill="#D9D9D9"/>
<rect x="258.779" y="91.9648" width="40.5494" height="40.5494" transform="rotate(-29.8534 258.779 91.9648)" fill="#D9D9D9"/>
<rect x="295.887" y="70.2471" width="40.5494" height="40.5494" transform="rotate(-29.8534 295.887 70.2471)" fill="#D9D9D9"/>
<rect x="333.725" y="48.5381" width="40.5494" height="40.5494" transform="rotate(-29.8534 333.725 48.5381)" fill="#D9D9D9"/>
<rect x="370.833" y="26.8203" width="40.5494" height="40.5494" transform="rotate(-29.8534 370.833 26.8203)" fill="#D9D9D9"/>
<rect x="258.779" y="91.9648" width="40.5494" height="40.5494" transform="rotate(-29.8534 258.779 91.9648)" fill="#D9D9D9"/>
<rect x="295.887" y="70.2471" width="40.5494" height="40.5494" transform="rotate(-29.8534 295.887 70.2471)" fill="#D9D9D9"/>
<rect x="333.725" y="48.5381" width="40.5494" height="40.5494" transform="rotate(-29.8534 333.725 48.5381)" fill="#D9D9D9"/>
<rect x="370.833" y="26.8203" width="40.5494" height="40.5494" transform="rotate(-29.8534 370.833 26.8203)" fill="#D9D9D9"/>
<rect x="280.897" y="129.565" width="40.5494" height="40.5494" transform="rotate(-29.8534 280.897 129.565)" fill="#D9D9D9"/>
<rect x="318.005" y="107.848" width="40.5494" height="40.5494" transform="rotate(-29.8534 318.005 107.848)" fill="#D9D9D9"/>
<rect x="355.843" y="86.1377" width="40.5494" height="40.5494" transform="rotate(-29.8534 355.843 86.1377)" fill="#D9D9D9"/>
<rect x="392.951" y="64.4209" width="40.5494" height="40.5494" transform="rotate(-29.8534 392.951 64.4209)" fill="#D9D9D9"/>
<rect x="28.016" y="276.28" width="40.5494" height="40.5494" transform="rotate(-29.8534 28.016 276.28)" fill="#D9D9D9"/>
<rect x="65.1244" y="254.563" width="40.5494" height="40.5494" transform="rotate(-29.8534 65.1244 254.563)" fill="#D9D9D9"/>
<rect x="102.962" y="232.854" width="40.5494" height="40.5494" transform="rotate(-29.8534 102.962 232.854)" fill="#D9D9D9"/>
<rect x="140.07" y="211.136" width="40.5494" height="40.5494" transform="rotate(-29.8534 140.07 211.136)" fill="#D9D9D9"/>
<defs>
<linearGradient id="paint0_linear_235_230" x1="281.251" y1="78.7404" x2="392.792" y2="83.7117" gradientUnits="userSpaceOnUse">
<stop stop-color="#A5BDFD"/>
<stop offset="1" stop-color="#587DFF"/>
</linearGradient>
</defs>
</svg>
