<svg width="283" height="283" viewBox="0 0 283 283" fill="none" xmlns="http://www.w3.org/2000/svg">
<path d="M95.5392 100.758L105.18 183.357C168.879 166.14 222.907 170.197 261.183 178.642L272.844 170.114C277.173 166.947 279.198 161.811 278.59 156.829C236.335 121.499 168.323 80.575 95.5392 100.758V100.758Z" fill="url(#paint0_linear_166_207)"/>
<path d="M261.473 157.232C181.437 100.535 96.3914 115.31 96.3914 115.31L93.7307 162.07C93.7307 162.07 127.705 147.189 173.065 144.029C209.81 141.477 244.154 154.724 259.92 160.228C261.776 160.887 263.086 158.378 261.473 157.232Z" fill="url(#paint1_linear_166_207)"/>
<path d="M141.437 158.21C149.028 153.323 169.889 144.29 169.889 144.29C176.577 141.015 174.083 134.577 169.565 132.277C156.722 125.742 141.269 120.121 135.731 113.76C129.127 106.185 137.118 98.8781 141.85 95.5947C126.78 94.9203 111.273 96.4042 95.5393 100.757L105.18 183.356C166.878 166.673 219.513 169.977 257.541 177.872L261.169 178.652L264.575 176.161C216.599 160.057 177.488 163.099 156.295 163.714C142.905 164.093 135.397 162.097 141.437 158.21V158.21Z" fill="url(#paint2_linear_166_207)"/>
<path d="M118.511 73.8321L120.608 109.47C120.772 112.208 122.406 114.623 124.87 115.812L156.529 130.869C160.032 132.781 159.832 137.868 156.189 139.491L123.828 151.065C121.213 152.002 119.333 154.308 118.932 157.06L113.673 193.271C112.935 197.2 108.027 198.575 105.366 195.603L82.9772 168.295C81.2678 166.2 78.5334 165.187 75.8635 165.656L41.082 171.801C37.1239 172.325 34.3032 168.075 36.2973 164.623L55.8944 133.719C56.624 132.568 57.027 131.24 57.0604 129.877C57.0938 128.515 56.7562 127.168 56.0838 125.983L39.0795 96.1313C37.374 92.5274 40.526 88.5384 44.4286 89.3613L78.2642 98.5508C80.9163 99.2693 83.7366 98.4914 85.6413 96.5223L110.429 70.8383C113.313 68.087 118.091 69.8646 118.511 73.8321V73.8321Z" fill="#FBCC26"/>
<path d="M105.505 105.963L111.598 82.5217C111.978 81.2245 112.506 78.9778 114.539 79.7282C116.148 80.3233 115.775 83.963 115.775 83.963L115.885 104.617C115.919 112.478 113.965 114.44 110.973 114.922C107.497 115.471 103.761 112.665 105.505 105.963V105.963Z" fill="#FFECA9"/>
<path d="M121.936 148.086L147.184 140.053C148.455 139.61 150.681 138.957 149.825 136.97C149.146 135.406 145.531 135.945 145.531 135.945L125.9 136.303C120.137 136.177 115.768 137.533 114.249 140.727C112.246 144.983 114.923 149.826 121.936 148.086Z" fill="#E79800"/>
<defs>
<linearGradient id="paint0_linear_166_207" x1="85.0381" y1="136.071" x2="296.03" y2="154.249" gradientUnits="userSpaceOnUse">
<stop stop-color="#FFF7AF"/>
<stop offset="1" stop-color="#FFF7AF" stop-opacity="0.1"/>
</linearGradient>
<linearGradient id="paint1_linear_166_207" x1="91.8712" y1="132.208" x2="267.574" y2="167.088" gradientUnits="userSpaceOnUse">
<stop offset="0.254" stop-color="#FFFDE7"/>
<stop offset="1" stop-color="#FFFDE7" stop-opacity="0"/>
</linearGradient>
<linearGradient id="paint2_linear_166_207" x1="231.903" y1="115.121" x2="93.8481" y2="178.497" gradientUnits="userSpaceOnUse">
<stop offset="0.005" stop-color="#4453AB" stop-opacity="0"/>
<stop offset="1" stop-color="#3949AB"/>
</linearGradient>
</defs>
</svg>
