<svg width="2094" height="709" viewBox="0 0 2094 709" fill="none" xmlns="http://www.w3.org/2000/svg">
<path d="M-0.0480957 595.983C-40.3219 464.422 -164.499 485.23 -221.554 512.079L-234.979 734.425L2189 718.483V363.57C2115.84 290.406 2064.54 357.696 2048.04 400.487C2037.97 367.596 1996.3 377.833 1976.72 387.063C1965.98 332.694 1904.57 322.457 1875.2 324.135C1864.46 206.669 1770.04 204.153 1724.17 217.578C1691.28 209.523 1663.48 139.268 1653.69 105.147L1609.23 0.26709L1569.79 105.147C1555.02 193.078 1493.72 240.791 1464.91 253.656C1437.39 222.109 1401.42 249.461 1386.88 267.081C1280.15 189.889 1213.76 272.954 1193.9 324.135C1131.48 292.587 1091.26 337.28 1078.95 363.57C1031.3 334.036 963.446 375.875 935.478 400.487C927.647 380.35 892.52 339.573 814.657 337.559C736.794 335.546 716.21 415.031 715.651 455.025C608.925 438.244 615.805 517.393 632.586 559.065C576.203 544.298 540.851 593.186 530.223 619.476C479.881 581.887 448.277 603.814 438.768 619.476C384.399 571.818 336.126 608.568 318.786 632.901C218.102 520.134 109.586 576.965 67.9139 619.476C59.1879 592.627 18.9701 592.627 -0.0480957 595.983Z" fill="#C4C4C4"/>
<path d="M186.7 621.168C151.259 505.391 41.9795 523.703 -8.22987 547.331L-20.0438 743L2113.11 728.971V416.639C2048.73 352.253 2003.59 411.47 1989.07 449.127C1980.21 420.183 1943.53 429.191 1926.31 437.314C1916.85 389.468 1862.81 380.459 1836.96 381.935C1827.51 278.563 1744.42 276.348 1704.06 288.163C1675.11 281.074 1650.65 219.248 1642.03 189.221L1602.9 96.9241L1568.2 189.221C1555.2 266.602 1501.25 308.591 1475.9 319.913C1451.68 292.15 1420.03 316.22 1407.23 331.726C1313.31 263.796 1254.88 336.895 1237.4 381.935C1182.47 354.173 1147.08 393.503 1136.25 416.639C1094.31 390.648 1034.6 427.468 1009.99 449.127C1003.09 431.406 972.181 395.521 903.66 393.749C835.139 391.977 817.024 461.926 816.532 497.121C722.611 482.354 728.666 552.007 743.433 588.68C693.815 575.684 662.704 618.707 653.352 641.842C609.049 608.763 581.237 628.059 572.869 641.842C525.023 599.902 482.542 632.243 467.282 653.656C378.677 554.419 283.181 604.432 246.509 641.842C238.83 618.214 203.437 618.214 186.7 621.168Z" fill="#F8F8FF"/>
</svg>
