<svg width="2094" height="685" viewBox="0 0 2094 685" fill="none" xmlns="http://www.w3.org/2000/svg">
<path d="M126.669 549.411C89.5259 428.076 -24.9992 447.267 -77.6189 472.029L-90 677.091L2145.56 662.389V335.063C2078.08 267.586 2030.78 329.646 2015.56 369.111C2006.27 338.777 1967.84 348.218 1949.79 356.73C1939.88 306.587 1883.24 297.146 1856.15 298.693C1846.25 190.358 1759.17 188.038 1716.87 200.419C1686.53 192.99 1660.89 128.196 1651.87 96.7273L1610.85 0L1574.48 96.7273C1560.86 177.824 1504.32 221.828 1477.76 233.693C1452.38 204.598 1419.2 229.824 1405.79 246.074C1307.36 174.883 1246.13 251.491 1227.81 298.693C1170.24 269.598 1133.15 310.817 1121.8 335.063C1077.85 307.824 1015.27 346.412 989.477 369.111C982.255 350.539 949.857 312.932 878.047 311.074C806.237 309.217 787.252 382.524 786.736 419.409C688.307 403.933 694.652 476.93 710.128 515.363C658.128 501.743 625.524 546.831 615.723 571.078C569.293 536.411 540.146 556.633 531.376 571.078C481.233 527.124 436.712 561.018 420.72 583.459C327.862 479.457 227.781 531.871 189.348 571.078C181.301 546.315 144.209 546.315 126.669 549.411Z" fill="#A5BDFD"/>
<path d="M185.791 572.611C150.684 465.808 42.4372 482.7 -7.29768 504.497L-19 685L2094 672.058V383.934C2030.22 324.539 1985.51 379.166 1971.13 413.905C1962.35 387.203 1926.02 395.514 1908.96 403.007C1899.6 358.869 1846.06 350.559 1820.46 351.921C1811.1 256.56 1728.79 254.517 1688.81 265.416C1660.14 258.877 1635.9 201.843 1627.37 174.143L1588.61 89L1554.23 174.143C1541.36 245.527 1487.92 284.261 1462.81 294.705C1438.82 269.094 1407.46 291.299 1394.79 305.603C1301.75 242.938 1243.88 310.371 1226.57 351.921C1172.15 326.31 1137.09 362.592 1126.36 383.934C1084.82 359.958 1025.68 393.924 1001.3 413.905C994.47 397.557 963.849 364.454 895.975 362.819C828.102 361.184 810.158 425.711 809.67 458.179C716.637 444.556 722.634 508.811 737.262 542.641C688.113 530.653 657.297 570.34 648.032 591.683C604.148 561.168 576.599 578.968 568.31 591.683C520.916 552.994 478.836 582.828 463.721 602.581C375.953 511.036 281.36 557.172 245.034 591.683C237.427 569.886 202.369 569.886 185.791 572.611Z" fill="white"/>
</svg>
