<svg width="1678" height="402" viewBox="0 0 1678 402" fill="none" xmlns="http://www.w3.org/2000/svg">
<path d="M1514.78 96.1565C1542.63 187.197 1628.56 172.819 1668.04 154.25L1677.37 0.400598L0.0931478 11.0308L0.0344776 256.613C50.6482 307.251 86.1515 260.697 97.5765 231.091C104.538 253.851 133.375 246.775 146.923 240.392C154.345 278.014 196.841 285.108 217.162 283.952C224.573 365.234 289.907 366.991 321.647 357.709C363.449 395.806 457.853 444.157 501.049 332.787C520.087 354.621 544.979 335.701 555.045 323.511C628.881 376.941 674.837 319.476 688.586 284.064C731.775 305.904 759.611 274.986 768.13 256.796C801.102 277.24 848.058 248.3 867.414 231.275C872.829 245.21 897.129 273.432 951.006 274.838C1004.88 276.244 1019.14 221.248 1019.53 193.574C1093.38 205.203 1088.63 150.435 1077.03 121.597C1116.04 131.824 1140.51 98.0023 1147.87 79.8128C1182.69 105.831 1204.57 90.6637 1211.15 79.8279C1248.76 112.814 1282.17 87.3925 1294.17 70.5586C1363.82 148.604 1438.92 109.298 1467.76 79.8892C1473.79 98.469 1501.62 98.4756 1514.78 96.1565Z" fill="white"/>
</svg>
