<svg width="1440" height="271" viewBox="0 0 1440 271" fill="none" xmlns="http://www.w3.org/2000/svg">
<path d="M20.6041 51.6766L-1 44.3523V262.862L1464 271V46.7943H1376.77C1344.16 32.7967 1318.07 29.2973 1309.1 29.2973V21.1592C1296.71 19.8571 1283.02 26.042 1277.72 29.2973H1226.76C1219.91 20.5081 1172.01 21.2948 1148.91 22.7868C1146.95 18.2294 1139.4 14.6486 1135.86 13.4279H1110.59C1102.11 6.59189 1090.75 1.62763 1086.13 0L1064.12 1.62763C1062.22 2.84835 1054.99 6.42911 1041.29 10.9864C1027.6 15.5437 1007.05 12.8853 998.494 10.9864C992.624 17.1713 987.624 18.7175 985.857 18.7175H967.922C955.204 24.9025 914.523 29.704 895.772 31.3317C815.552 26.4486 709.896 38.5204 667.095 45.1667V42.3183C649.812 43.9459 622.936 39.7412 611.659 37.4354C601.55 27.0186 582.989 24.6856 574.972 24.8212C547.58 5.61522 529.862 7.5955 524.427 10.9864C506.818 26.6116 470.077 31.0604 453.908 31.3317C434.07 25.635 394.395 15.1368 394.395 18.7175C394.395 22.2983 385.971 24.2786 381.759 24.8211C364.476 22.5428 349.013 30.3823 343.442 34.5869C321.159 38.2491 273.901 44.3527 263.14 39.4698C252.379 34.5869 218.166 34.18 202.404 34.5869C198.491 26.4488 176.588 26.5842 166.126 27.6691C133.842 14.3226 96.1503 26.1771 81.34 33.7727C57.5348 25.3091 30.9305 42.1821 20.6041 51.6766Z" fill="white"/>
</svg>
