<svg width="624" height="1306" viewBox="0 0 624 1306" fill="none" xmlns="http://www.w3.org/2000/svg">
<path d="M545.511 1018.37L-62.9995 887.747L-25.6294 1206.97L269.118 1252.1C718.611 1294.63 620.756 1039.27 545.511 1018.37Z" fill="#152225"/>
<path d="M474.404 489.194H168.136C138.046 489.194 126.941 516.657 125.151 530.388V575.164C113.688 572.298 102.464 587.104 98.2852 594.865V729.194C98.2852 743.522 105.449 745.91 109.031 745.313C108.434 756.06 107.598 782.209 109.031 800.836C110.464 819.462 120.374 820.537 125.151 818.746V861.731L135.897 888.597V1130.39C135.897 1163.34 157.389 1168 168.136 1166.21C253.509 1166.81 434.285 1167.64 474.404 1166.21C514.524 1164.78 519.777 1147.7 517.389 1139.34V888.597L529.927 861.731C529.33 773.373 528.494 585.91 529.927 542.925C531.359 499.94 493.509 489.194 474.404 489.194Z" fill="#507367"/>
<path d="M263.311 15.231C256.131 136.604 266.302 394.983 272.285 509H202.285C219.516 459.347 217.841 159.132 214.849 15.231C233.516 -12.3538 254.935 3.73734 263.311 15.231Z" fill="#507367"/>
<path d="M447.985 385.313H408.582C397.12 385.313 393.06 392.478 392.463 396.06V446.209C392.463 454.806 399.627 456.955 403.209 456.955V467.702C391.746 467.702 391.269 482.03 392.463 489.194H462.314C463.746 470.567 454.552 467.105 449.776 467.702V458.746C456.94 458.746 461.119 455.164 462.314 453.373V396.06C459.448 387.463 451.567 385.313 447.985 385.313Z" fill="#507367"/>
<rect x="162.763" y="532.179" width="329.552" height="634.03" rx="28.6567" fill="#38605B"/>
<rect x="198.584" y="575.164" width="265.075" height="214.925" rx="7.16418" fill="#D9D9D9"/>
<path d="M216.494 618.149L227.24 600.239H435.002L441.217 618.149H216.494Z" fill="#313131"/>
<path d="M232.613 607.403L227.24 618.149H433.21L426.046 607.403H232.613Z" fill="#6A6A6A"/>
<path d="M216.494 646.806L227.24 628.896H435.002L441.217 646.806H216.494Z" fill="#313131"/>
<path d="M232.613 636.06L227.24 646.806H433.21L426.046 636.06H232.613Z" fill="#6A6A6A"/>
<path d="M216.494 675.463L227.24 657.552H435.002L441.217 675.463H216.494Z" fill="#313131"/>
<path d="M232.613 664.716L227.24 675.463H433.21L426.046 664.716H232.613Z" fill="#6A6A6A"/>
<path d="M216.494 704.119L227.24 686.209H435.002L441.217 704.119H216.494Z" fill="#313131"/>
<path d="M232.613 693.373L227.24 704.12H433.21L426.046 693.373H232.613Z" fill="#6A6A6A"/>
<path d="M216.494 732.776L227.24 714.866H435.002L441.217 732.776H216.494Z" fill="#313131"/>
<path d="M232.613 722.03L227.24 732.776H433.21L426.046 722.03H232.613Z" fill="#6A6A6A"/>
<path d="M216.494 761.433L227.24 743.522H435.002L441.217 761.433H216.494Z" fill="#313131"/>
<path d="M232.613 750.686L227.24 761.433H433.21L426.046 750.686H232.613Z" fill="#6A6A6A"/>
</svg>
