<svg width="725" height="1479" viewBox="0 0 725 1479" fill="none" xmlns="http://www.w3.org/2000/svg">
<path d="M502.129 129.93L508.192 137.647H436.54L428.272 127.725L417.249 137.647H408.981L422.209 118.355C399.611 95.0225 352.651 46.7029 345.596 40.0888C338.541 33.4747 341.554 26.6769 343.942 24.1047C347.433 20.7977 356.068 12.3095 362.682 4.81356C369.296 -2.68241 376.094 0.220441 378.666 2.60886C411.369 34.577 477.547 98.7336 480.634 99.6155C483.72 100.497 485.962 98.5132 486.696 97.4108C489.636 91.1642 495.956 76.6867 497.72 68.7498C499.484 60.8129 503.232 60.2984 504.885 61.0333L518.665 68.7498C514.806 81.0593 506.318 107.883 503.232 116.702C500.145 125.521 501.211 129.195 502.129 129.93Z" fill="#161616"/>
<path d="M85.5 1385.5L-49 1302.5V834C149.833 921.667 572.1 1112.8 670.5 1176C768.9 1239.2 711.5 1342 670.5 1385.5C466.9 1553.1 195.667 1455.33 85.5 1385.5Z" fill="#152225"/>
<path fill-rule="evenodd" clip-rule="evenodd" d="M171.036 137.793C144.947 140.733 94.0916 162.707 99.3829 227.084C104.674 291.461 178.017 299.839 214.027 295.98H569.535H575.046C575.965 296.715 577.692 295.87 577.251 286.61C576.81 277.351 577.067 232.412 577.251 211.1L557.96 137.793H171.036ZM246.546 188.501C249.192 166.455 230.379 158.003 220.641 156.533C197.66 154.88 149.157 151.573 133.173 180.234C115.606 211.734 118.674 244.721 147.335 263.461C175.996 282.201 188.673 277.241 214.027 266.768C238.45 256.68 242.927 218.974 246.179 191.586C246.303 190.542 246.425 189.513 246.546 188.501Z" fill="#161616"/>
<path d="M579.702 376.452L576.56 306.453C446.042 312.626 293.624 304.064 230.974 300.39C230.239 309.944 230.092 326.185 230.974 343.381C232.077 364.877 232.462 393.538 207.659 403.459C187.817 411.396 179.916 445.716 178.447 461.884V1287.54C174.037 1337.37 208.578 1357.17 226.399 1360.85C411.042 1397.78 557.655 1370.22 591.827 1355.34C619.166 1343.43 627.837 1313.26 628.756 1299.67C628.94 1035.66 629.197 498.482 628.756 461.884C628.315 425.286 606.893 404.378 596.237 398.499C579.922 394.53 578.415 382.147 579.702 376.452Z" fill="#233A3F"/>
<path d="M284 220.624V295.124H577V232.124C575.333 234.791 568.9 234.224 556.5 210.624C544.1 187.024 508.667 176.124 492.5 173.624C362.5 150.024 299.333 195.124 284 220.624Z" fill="#262628"/>
<path d="M240.561 293.485C369.315 301.422 514.678 296.792 571.265 293.485C578.32 291.721 580.084 299.364 580.084 303.406V345.295C463.676 351.909 296.781 348.051 227.884 345.295V305.611C226.12 293.705 235.6 292.566 240.561 293.485Z" fill="#D9D9D9"/>
</svg>
